<?xml version="1.0" encoding="UTF-8"?>
<svg width="811.27" height="828.17" version="1.1" viewBox="0 0 811.26593 828.17249" xmlns="http://www.w3.org/2000/svg" xmlns:xlink="http://www.w3.org/1999/xlink">
 <defs>
  <linearGradient id="v">
   <stop stop-color="#f90" offset="0"/>
   <stop stop-color="#fff" offset="1"/>
  </linearGradient>
  <linearGradient id="ae">
   <stop stop-color="#fff" offset="0"/>
   <stop stop-color="#cecece" offset="1"/>
  </linearGradient>
  <linearGradient id="bd" x1="356.41" x2="288.22" y1="104.42" y2="102.45" gradientTransform="matrix(1.1905 .10973 -.2187 1.284 -112.78 174.45)" gradientUnits="userSpaceOnUse" xlink:href="#v"/>
  <linearGradient id="be" x1="312.95" x2="312.7" y1="647.02" y2="675.95" gradientTransform="matrix(.83816 0 0 .78807 -24.875 75.668)" gradientUnits="userSpaceOnUse" xlink:href="#ae"/>
  <linearGradient id="bf" x1="304.07" x2="312.55" y1="752.35" y2="815.21" gradientTransform="matrix(.83816 0 0 .78807 -24.875 75.668)" gradientUnits="userSpaceOnUse" xlink:href="#ae"/>
  <linearGradient id="ah" x1="532.61" x2="462.28" y1="515.02" y2="446.08" gradientTransform="matrix(.87238 -.86256 .69877 1.0769 -654.24 579.89)" gradientUnits="userSpaceOnUse" xlink:href="#v"/>
  <linearGradient id="ai" x1="556.7" x2="573.75" y1="527.65" y2="514.08" gradientTransform="translate(14.664 -97.022)" gradientUnits="userSpaceOnUse" xlink:href="#ae"/>
  <linearGradient id="aj" x1="569.03" x2="588.84" y1="494.54" y2="472.4" gradientTransform="translate(10.289 -97.678)" gradientUnits="userSpaceOnUse" xlink:href="#ae"/>
  <linearGradient id="ak" x1="495.97" x2="543.7" y1="498.72" y2="527.65" gradientTransform="translate(24.664 -103.93)" gradientUnits="userSpaceOnUse" xlink:href="#ae"/>
  <linearGradient id="am" x1="532.61" x2="462.28" y1="515.02" y2="446.08" gradientTransform="matrix(-.47347 -1.3011 1.4554 -.20982 33.672 1245.3)" gradientUnits="userSpaceOnUse" xlink:href="#v"/>
  <linearGradient id="an" x1="532.61" x2="462.28" y1="515.02" y2="446.08" gradientTransform="matrix(1.0725 .59989 -.62237 1.0305 201.35 -330.18)" gradientUnits="userSpaceOnUse" xlink:href="#v"/>
  <linearGradient id="ao" x1="181.87" x2="240.02" y1="532.23" y2="436.26" gradientTransform="matrix(1.0943 .086003 -.16519 1.21 -5.8231 -180.8)" gradientUnits="userSpaceOnUse">
   <stop stop-color="#9cdafb" offset="0"/>
   <stop stop-color="#fff" offset="1"/>
  </linearGradient>
  <linearGradient id="ap" x1="363.66" x2="475.7" y1="474.68" y2="435.28" gradientTransform="matrix(1.0943 .086003 -.16519 1.21 -5.8231 -180.8)" gradientUnits="userSpaceOnUse">
   <stop stop-color="#9cdafb" offset="0"/>
   <stop stop-color="#1aa9f6" offset="1"/>
  </linearGradient>
  <linearGradient id="aq" x1="375.05" x2="385.19" y1="587.94" y2="521.77" gradientTransform="matrix(1.0845 .070302 -.17077 1.1407 12.689 -149.21)" gradientUnits="userSpaceOnUse">
   <stop stop-color="#f90" offset="0"/>
   <stop stop-color="#8d5500" offset="1"/>
  </linearGradient>
  <linearGradient id="ar" x1="362.79" x2="438.37" y1="690.61" y2="604.74" gradientTransform="matrix(1.1186 .052188 -.054053 1.08 -76.751 -114.66)" gradientUnits="userSpaceOnUse">
   <stop stop-color="#36f" offset="0"/>
   <stop stop-color="#00279c" offset="1"/>
  </linearGradient>
  <linearGradient id="as" x1="215.19" x2="283.83" y1="649.58" y2="649.58" gradientTransform="matrix(-.37358 1.7002 -1.3084 .17224 1031.2 27.698)" gradientUnits="userSpaceOnUse" xlink:href="#v"/>
  <linearGradient id="at" x1="402.37" x2="384.41" y1="915.92" y2="806.28" gradientTransform="matrix(.92438 .049148 -.074797 .87693 12.16 52.255)" gradientUnits="userSpaceOnUse">
   <stop stop-color="#ff0" offset="0"/>
   <stop stop-color="#ff0" stop-opacity="0" offset="1"/>
  </linearGradient>
  <linearGradient id="au" x1="397.67" x2="366.45" y1="972.9" y2="816.83" gradientTransform="matrix(.85141 .045268 -.068892 .8077 36.688 110.66)" gradientUnits="userSpaceOnUse">
   <stop offset="0"/>
   <stop stop-opacity="0" offset="1"/>
  </linearGradient>
  <linearGradient id="av" x1="377.17" x2="372.08" y1="987.52" y2="827.17" gradientTransform="matrix(.85141 .045268 -.068892 .8077 36.688 110.66)" gradientUnits="userSpaceOnUse">
   <stop stop-color="#f00" offset="0"/>
   <stop stop-color="#f00" stop-opacity="0" offset="1"/>
  </linearGradient>
  <linearGradient id="aw" x1="343.07" x2="419.03" y1="796.06" y2="771.06" gradientTransform="matrix(1.0041 .088011 -.061257 1.1357 -34.757 -170.53)" gradientUnits="userSpaceOnUse">
   <stop stop-color="#969696" offset="0"/>
   <stop stop-color="#5a5a5a" offset="1"/>
  </linearGradient>
  <linearGradient id="af" x1="475.32" x2="457.72" y1="482.37" y2="436.65" gradientUnits="userSpaceOnUse" xlink:href="#v"/>
  <linearGradient id="ax" x1="365.11" x2="313.37" y1="127.82" y2="126.45" gradientUnits="userSpaceOnUse" xlink:href="#v"/>
  <linearGradient id="ay" x1="289.55" x2="287.07" y1="526.78" y2="466.31" gradientUnits="userSpaceOnUse">
   <stop stop-color="#00f" offset="0"/>
   <stop stop-opacity="0" offset="1"/>
  </linearGradient>
  <linearGradient id="ag" x1="569.03" x2="588.84" y1="494.54" y2="472.4" gradientTransform="rotate(-34.673 385.17 390.28)" gradientUnits="userSpaceOnUse" xlink:href="#ae"/>
  <linearGradient id="bc" x1="1151.5" x2="1136.3" y1="911.72" y2="813.42" gradientTransform="matrix(.073931 -.45651 .50492 .081772 38.342 657.86)" gradientUnits="userSpaceOnUse">
   <stop stop-color="#fff48f" offset="0"/>
   <stop stop-color="#fffde5" offset="1"/>
  </linearGradient>
  <radialGradient id="bb" cx="1216.2" cy="821.33" r="56.314" gradientTransform="matrix(.074599 -.46063 .5004 .08104 38.342 657.86)" gradientUnits="userSpaceOnUse">
   <stop stop-color="#ffe8da" offset="0"/>
   <stop stop-color="#ffc5a5" offset="1"/>
  </radialGradient>
  <linearGradient id="az" x1="426.94" x2="483.34" y1="1591.2" y2="1690.1" gradientTransform="matrix(.12722 -.78557 .29342 .047519 38.342 657.86)" gradientUnits="userSpaceOnUse">
   <stop stop-color="#efc65c" offset="0"/>
   <stop stop-color="#af9143" offset="1"/>
  </linearGradient>
  <linearGradient id="ba" x1="239.51" x2="289.34" y1="1633" y2="1742.4" gradientTransform="matrix(.11824 -.73013 .3157 .051127 38.342 657.86)" gradientUnits="userSpaceOnUse">
   <stop stop-color="#ffecd5" offset="0"/>
   <stop stop-color="#af9143" offset="1"/>
  </linearGradient>
  <linearGradient id="al" x1="494.58" x2="526.7" y1="499.07" y2="507.86" gradientTransform="translate(24.664 -103.93)" gradientUnits="userSpaceOnUse" xlink:href="#ae"/>
 </defs>
 <g transform="translate(-18.609 -101.09)">
  <path d="m510.66 341.94c-16.539 13.666-23.88 37.627-16.969 58.188-6.1394 5.7138-10.262 13.621-11.812 21.969-4.7424-7.9952-9.9486-15.708-15.594-23.094 2.7546-8.9224 3.0899-18.39-0.34375-27.438-6.4773-15.659-24.16-23.809-40.656-22.562-3.0651 0.17584-6.1088 0.57216-9.125 1.1562-24.834-17.963-53.099-31.049-83.188-37.656-8.1787-12.374-24.431-15.58-38.156-17.344-6.0659-2.231-12.601-2.9622-19.062-2.8125-15.352-0.23387-30.776 3.2539-44.094 10.719-11.131 3.6028-23.059 9.301-31.25 18-31.266 12.137-59.865 31.327-83.062 55.438-35.276 35.054-61.802 78.311-80.125 124.41 11.295 12.926 26.995 19.409 43.438 23.469-21.525 30.839-38.107 65.537-46 102.34-9.1775 9.9081-15.266 22.494-16.031 36.25-0.51307 16.948 11.426 33.09 28 37.062 16.84 4.8484 34.724 0.92401 49.188-8.4375 3.8956 0.55371 7.7448 1.2494 11.406 2.5 11.673 2.2794 23.338 4.5782 35 6.9062 3.9853 13.233 13.649 26.659 28.344 27.75 8.0582 0.26172 15.352-4.2794 20.219-10.469 1.9664 5.5944 3.9446 11.185 5.9062 16.781 6.2174 1.5358 12.491 2.83 18.812 3.9062 3.7404 15.763 7.4505 31.542 11.156 47.312 34.159 13.621 75.468 15.757 107.69-3.9375 7.8765-4.287 15.507-9.1393 22.5-14.75 0.55527-14.647 1.1361-29.292 1.75-43.938 6.9828-2.8663 13.842-6.0478 20.531-9.5625 5.9126-3.878 3.1765-12.565 5.0312-18.562 5.5716-45.926 10.71-91.912 15.969-137.88 2.6476-1.3065 5.2849-2.6398 7.9062-4 0.2186 1.9926 0.55065 3.9852 1 5.9688 5.2348 34.934 44.769 59.822 78.469 48.844 34.782-9.0039 55.436-52.228 40.156-84.969-1.3826-3.3925-3.1103-6.6246-5.0938-9.6875 9.4955-12.758 19.087-25.418 28.375-38.344 2.1976-0.3822 4.3635-0.8801 6.5-1.5 15.673-5.028 29.313-19.01 30.562-35.719 25.563-1.7347 34.56-13.037 44.471-35.38 2.4945-5.6986 3.3009-14.735 3.3009-14.735 3.0241-3.8733-1.8093-11.385-2.5171-17.883-0.67468-6.1942-6.1655-9.3716-7.1134-13.128-2.1279-8.4323 0.57552-14.227-0.56004-21.251-4.8907-8.4843-31.591 32.276-53.36 27.355-13.276-3.0011 21.668-20.807 25.557-27.297 9.7351-16.245 8.4208-27.558 6.7775-30.276-29.306-48.471-47.063 17.136-93.899 36.281zm-24.062 106.5c0.10175 0.15713 0.20772 0.31306 0.3125 0.46875-5.5645 11.146-11.313 22.237-16.844 33.406-2.3706-6.3469-4.7416-12.689-7.125-19.031 6.9212-4.1087 13.729-8.4198 20.406-12.938 1.2452-0.43604 2.3217-1.0904 3.25-1.9062zm-368 109.75c2.7022 8.9865 5.4717 17.95 8.4688 26.844 6.2748 2.7425 12.671 5.1612 19.156 7.2812 3.6016 10.143 7.1822 20.293 10.781 30.438-7.2404 3.8818-13.06 10.235-15.375 18.281-5.5515-0.13867-11.105-0.308-16.656-0.4375-0.99985-12.262-8.1368-23.81-18.938-29.844 3.4209-17.767 6.1724-35.84 12.562-52.562z"/>
  <path d="m352.04 713.05c-41.205 23.336-89.932 26.711-134.98 15.2 4.3409 18.359 8.6976 36.714 13.014 55.079 32.342 11.95 69.283 14.546 99.921-3.2285 8.0518-4.1582 15.631-8.8927 22.923-14.495 0.69772-18.056 1.3997-36.11 2.1816-54.16-1.0195 0.5347-2.0391 1.0694-3.0586 1.6041z"/>
  <path d="m350.49 723.46c-39.226 21.285-82.429 23.326-126.74 15.875l9.6364 40.405s31.567 12.064 61.689 7.6895c27.697-4.0219 53.907-24.366 53.907-24.366z" fill="#969696"/>
  <path d="m350.74 723.21c-28.149 12.122-58.62 19.259-89.059 20.027 2.0851 1.5546 3.8535 3.1308 5.1357 4.7291 8.4397 10.52 12.854 25.391 12.854 25.391s1.0412-32.912 14.536-29.284c13.495 3.628 17.483 30.058 17.483 30.058s1.2685-30.447 9.5161-29.724c8.2476 0.72295 15.515 26.213 15.515 26.213l0.87855 0.077c7.0049-4.2623 11.382-7.6314 11.382-7.6314z" fill="url(#aw)"/>
  <path d="m250.83 846.4c6.1014 32.289 43.143 43.684 43.143 43.684 1.7664 32.468-15.068 34.852-15.068 34.852s55.169-11.205 73.146-57.376-12.862-77.112-26.107-86.422-26.367-12.467-26.367-12.467l-28.495 17.541s-26.354 27.9-20.253 60.188z" fill="url(#av)"/>
  <path d="m299.44 763.66c-0.46036-0.0164-0.89634 0.0272-1.3231 0.15785-13.617 9.5943-31.23 15.497-39.457 30.484-13.213 19.702-19.095 46.004-7.999 67.146 7.8035 14.888 22.244 25.716 38.243 32.003 0.17615 9.5491-0.75225 22.171-11.176 26.992-3.424 1.927-5.881 4.8678-8.3602 7.7706 14.37 3.9844 28.082-4.2459 40.793-9.7987 29.849-15.013 52.431-44.926 52.544-77.379 0.50118-33.724-23.763-65.047-57.08-75.627-1.9423-0.44411-4.1904-1.6765-6.1852-1.7488zm0.13462 5.0021s13.112 3.1716 26.357 12.482c13.245 9.3101 44.095 40.259 26.117 86.43-16.734 42.978-65.645 55.635-72.337 57.184 3.3048-0.95595 15.797-6.4487 14.262-34.663 0 0-37.051-11.41-43.152-43.699-6.1014-32.289 20.261-60.181 20.261-60.181z" fill="url(#au)"/>
  <path d="m288.55 787.32s-20.645 27.6-9.6071 46.651c11.038 19.051 17.113 17.363 28.303 29.781 6.1025 6.7724 4.3431 19.117 4.3431 19.117s17.38-11.311 21.374-47.138-15.019-54.857-17.391-54.538c-2.3722 0.31879-27.021 6.127-27.021 6.127z" fill="url(#at)"/>
  <path d="m133.62 517.96c4.7229-15.201-0.30838-31.28-13.438-27.382-11.124 1.2788-22.231 13.549-29.298 26.446-20.525 27.676-38.382 59.339-47.313 92.194-3.5709 10.495-6.7046 21.387-6.6718 31.267 20.397-4.0564 40.784-8.0576 61.166-12.025 7.0634-28.456 8.8161-57.854 22.931-85.931 4.9378-7.7713 11.184-15.556 12.625-24.57z"/>
  <path d="m94.169 622.71s8.9156-45.915 14.787-64.378c5.8718-18.462 15.483-29.162 15.483-29.162s7.1408-13.912 4.8026-25.987c-2.3381-12.075-22.23-4.1494-28.37 7.2726-6.1398 11.422-30.733 39.734-43.323 73.303-15.097 40.255-14.948 49.063-14.948 49.063z" fill="#f90"/>
  <path d="m123.61 517.78c2.5246-8.2754 2.597-13.819-4.6483-13.211-5.8106 0.48742-23.975 32.066-30.113 44.458-9.016 18.201-23.572 43.343-31.324 73.448 7.1514-1.6612 31.263-4.541 33.506-8.8257-1.5773-34.145 21.545-75.616 32.579-95.869z" fill="url(#as)"/>
  <path d="m394.75 538.87c-45.78 22.465-95.402 38.269-146.49 44.657-35.207 3.5525-71.025 0.40705-104.56-10.389 18.705 52.842 37.415 105.68 56.056 158.54 56.76 14.304 127.14 6.6472 178.54-21.649 5.0674-39.589 14.442-123.77 20.165-172.98-1.2382 0.60703-2.4763 1.214-3.7145 1.8211z"/>
  <path d="m393.08 544.58c-30.347 14.934-62.626 26.027-95.646 34.169-47.479 12.991-99.284 14.612-146.68 0.97091l52.521 148.42s44.127 12.447 96.059 4.4816c51.931-7.9653 74.944-26.577 74.944-26.577z" fill="#36f"/>
  <path d="m393.08 544.58c-30.347 14.934-62.626 26.027-95.646 34.169-17.051 4.6656-34.668 7.8414-52.431 9.3937 62.376 21.956 109.79 66.028 127.56 119.14 1.0931-0.76306 1.7088-1.2396 1.7088-1.2396z" fill="url(#ar)"/>
  <path d="m432.15 464.61c-95.065 41.893-197.51 52.643-295.88 47.19-9.6728-0.74002-26.549-1.5903-36.076-3.0572 7.4999 22.428 19.297 50.929 26.854 73.331 62.51 25.346 117.01 19.92 175.43 6.3907 37.575-8.701 74.494-22.738 109.42-41.414 8.0541-28.061 16.126-56.118 24.268-84.159-1.3405 0.57295-2.681 1.1459-4.0215 1.7188z"/>
  <path d="m429.5 470.52c-75.94 33.231-157.98 45.727-237.41 47.272-25.917 0.0111-52.467 0.1031-77.882-3.8969l20.276 64.187s54.567 26.734 135.19 12.764c80.627-13.97 138.65-46.835 138.65-46.835z" fill="#f90"/>
  <path d="m429.5 470.52c-75.94 33.231-157.98 45.727-237.41 47.272-9.8429 4e-3 -19.778 3e-3 -29.707-0.19814-2.1763 0.78163-4.3335 1.5693-6.5504 2.3827 126.56 5.7539 213.55 9.0984 252.51 23.963z" fill="url(#aq)"/>
  <path d="m293.47 311.13c-54.522-4.282-112.36 13.816-157.07 53.239-41.546 35.438-73.512 83.49-94.491 135.66 16.27 17.297 40 25.357 62.093 29.528 56.801 8.3397 115.8 0.18524 173.61-7.3156 70.056-10.639 140.94-32.692 202.79-75.041 7.581-3.1086 7.4248-8.0793 3.1214-13.631-38.307-72.561-111.29-118.96-190.06-122.44z"/>
  <path d="m47.193 498.64s65.079-177 220.98-182.87 213.71 124.65 213.71 124.65-85.597 69.302-246.85 81.824c-161.26 12.522-187.83-23.603-187.83-23.603z" fill="#9cdafb"/>
  <path d="m296.26 316.2c-8.9873-0.63345-18.33-0.81522-28.073-0.44832-1.6671 0.0628-3.3315 0.15701-4.9778 0.25849 64.059 27.864 103.97 85.585 95.358 148.64-1.8139 13.287-5.6846 26.014-11.303 37.98 88.438-24.815 134.61-62.188 134.61-62.188s-50.806-114.73-185.62-124.24z" fill="url(#ap)"/>
  <path d="m249.03 336.57c-72.789-5.7207-155.28 68.054-187.23 166.1 20.085 10.662 43.851 12.793 66.467 15.428 3.6903 0.29248 7.3911 0.5711 11.09 0.79515 0.46447-3.3148 1.008-6.6532 1.6073-10.002 14.769-82.52 66.348-149.4 124.76-169.52-5.3219-1.4067-10.893-2.3466-16.692-2.8024z" fill="url(#ao)"/>
  <path d="m405.99 353.47c-29.32 8.1262-48.684 41.417-43.358 64.805 3.5165 23.488 34.182 33.459 62.088 20.025 28.231-12.05 49.651-41.368 40.219-62.285-6.6467-16.947-36-29.611-58.948-22.545z"/>
  <circle transform="matrix(1.3596 -.349 0 1.1618 -229.38 25.602)" cx="472.63" cy="463.06" r="34.219" fill="#f90"/>
  <circle transform="matrix(1.2091 -.31037 0 1.0332 -158.24 66.9)" cx="472.63" cy="463.06" r="34.219" fill="url(#af)"/>
  <path d="m428.74 405.63c-10.269-4.6889-19.068 6.2282-20.594 15.019-3.7652 12.495 3.9838 24.498 5.1189 36.888 4.8413 21.686 9.6822 43.292 14.404 64.936 13.334 6.964 29.371 16.884 44.861 10.575 6.8153-2.9136 11.488-12.008 6.0325-18.081-13.714-33.381-24.961-67.827-40.185-100.5-2.3868-3.651-5.5009-6.9948-9.6379-8.8376z"/>
  <path d="m437.25 422.41 38.981 100.14s-3.6185 9.2911-15.94 7.7953c-12.322-1.4958-28.201-10.9-28.201-10.9l-20.491-92.06s2.8783-17.365 11.273-18.065c8.3946-0.70087 14.378 13.09 14.378 13.09z" fill="#f90"/>
  <path d="m424.63 414.36c-5.2434-1.1672-6.7982 7.1273-7.3608 10.703-1.6709 10.62 4.7173 20.677 5.8206 31.235 4.4654 20.011 8.9308 40.023 13.396 60.034 9.8048 4.473 23.085 10.386 34.041 5.18-18.442-42.048-27.91-74.756-40.745-102.25-0.97534-2.0889-2.7483-4.3716-5.152-4.9067z" fill="url(#an)"/>
  <path d="m467.35 489.24c-33.397 0.80667-60.743 34.407-54.677 67.698 4.0055 32.801 38.935 56.795 70.723 48.363 32.157-6.4592 53.248-43.57 42.504-74.955-7.5711-25.085-32.41-42.686-58.55-41.106z"/>
  <circle transform="matrix(1.5487 0 0 1.5624 -261.67 -175.49)" cx="472.63" cy="463.06" r="34.219" fill="#f90"/>
  <circle transform="matrix(1.3772 0 0 1.3895 -180.64 -95.401)" cx="472.63" cy="463.06" r="34.219" fill="url(#af)"/>
  <path d="m454.52 543.5c5.4371 11.72 22.886 11.31 31.82 6.4106 14.166-5.6508 17.313-20.419 26.879-30.024 14.116-19.156 28.163-38.255 42.353-57.284-6.3102-15.831-12.576-35.952-32.24-44.265-8.7689-3.5612-20.858-1.0357-21.038 7.6973-15.965 34.632-35.111 67.983-49.078 103.36-0.92976 4.5166-0.92679 9.4159 1.3032 14.105z"/>
  <path d="m461.05 524.77 49.878-102.12s11.288-3.5293 21.349 7.6427 16.625 30.802 16.625 30.802l-59.98 81.269s-17.521 9.7881-25.849 3.3806c-8.3277-6.4075-2.024-20.976-2.024-20.976z" fill="#f90"/>
  <path d="m465.78 540.77c3.827 5.1255 12.362 0.59791 15.942-1.4424 10.633-6.0595 13.366-18.348 21.393-26.644 13.028-17.675 26.055-35.35 39.083-53.025-5.1948-11.187-12.356-26.239-26.899-31.598-19.035 44.583-38.331 75.256-50.059 105.04-0.89119 2.2635-1.2141 5.318 0.54039 7.6677z" fill="url(#am)"/>
  <path d="m570.88 376.29c-6.6796 4.5087-12.746 9.3311-16.656 14.094-4.8182 5.8684-1.4375 21.446 21.062 20.375 28.719-1.3676 40.78-12.181 55.78-32.538-3.1305-37.699-48.079-10.227-60.186-1.9306z" fill="url(#aj)"/>
  <path d="m582.57 295.26c-15.412 0.40489-26.096 24.379-43.25 36.031-18.929 12.857-30.737 18.045-38.594 40.188-7.8571 22.143 15 58.375 15 58.375s-13.549-13.013-16.406-23.906c0 0-12.5 12.121-10 26.406 2.5 14.286 13.188 27.866 35.688 33.938s36.79-0.37053 48.219-12.156c5.1429-5.3036 6.6575-12.992 6.7812-19.844-6.5762-0.30873-12.907-4.4686-16-10.156l-17.188 6.4375s-0.0179-0.70535 9.625-6.0625c2.054-1.1411 4.0941-2.6214 6-4.4375-0.57452-2.4294-0.56432-5.0026 0.21875-7.5938 1.6288-3.1523 3.6038-7.1252 6.6562-9.2812-5.6459-4.852-8.6817-12.681-5.0938-19.656 2.0677-2.5777 4.2929-4.9909 6.6562-7.25-4.0404-14.481-11.938-16.062-11.938-16.062s26.062-22.147 33.562-28.219c7.5-6.0714 13.214-30.705-5-36.062-1.7076-0.50223-3.3431-0.72938-4.9375-0.6875z" fill="url(#ak)"/>
  <path d="m627.26 393.29c-13.931 15.469-35.196 24.634-56.188 21.5-2.9317-0.0232-5.8182-0.8608-8.4062-2.3125-1.9085 1.8632-3.5952 3.7606-4.9688 5.625-4.0545 5.5035-1.1834 20.099 17.75 19.094 24.167-1.2826 37.276-12.342 49.898-31.434 2.1448-3.244 1.4446-9.2581 1.9141-12.473z" fill="url(#ai)"/>
  <path d="m614.45 567.11-28.256-348.93c0.19587-1.2095-0.0334-26.071-2.2579-34.233 0.58628-10.189 1.5678-28.294-1.4597-35.877-4.2797-10.8-48.077-10.8-57.291 6.6802-2.6766 18.717 3.0463 30.46 2.9539 35.41-0.55965 3.4557 0.40698 25.954 1.9452 35.069 0.73025 8.6295 26.204 348.42 26.204 348.42s20.933 36.977 27.427 72.428c5.9137-6.1473 12.582-13.335 15.002-14.899 1.1536-11.549 7.1816-43.703 15.733-64.059z" fill="none" stroke="#000" stroke-width="6.0795"/>
  <path d="m559.17 572.19s19.482 33.946 26.067 67.611c1.7118 0.25028 8.7035-9.1035 10.623-9.7895 1.7004-23.418 15.453-63.922 15.453-63.922l-10.488-68.402-40.931 1.8972z" fill="url(#ba)" fill-rule="evenodd" stroke="#000" stroke-width=".48636pt"/>
  <path d="m533.39 224.52 25.998 347.5s8.5084-89.763 25.925-6.7951c6.1089-85.896 25.375-1.21 25.964 1.7224-0.52596-14.271-28.277-348.75-28.277-348.75s-30.112-8.955-49.61 6.3284z" fill="url(#az)" fill-rule="evenodd" stroke="#000" stroke-width=".48636pt"/>
  <path d="m546.09 221.76c1.2564 7.7264 21.704 286.38 24.151 305.33" fill="none" stroke="#000" stroke-linecap="round" stroke-opacity=".18333" stroke-width="1.8238"/>
  <path d="m578.49 615.12c7.4528 1.207 15.107-4.6374 20.658-5.6193-1.1348 5.4584-3.7355 19.582-3.0402 20.321-3.8645 2.5714-8.2382 9.4487-10.871 9.8372-1.5106-7.7049-2.834-12.308-6.7461-24.539z" fill-rule="evenodd" stroke="#000" stroke-width=".48636pt"/>
  <path d="m580.87 183.76c-26.656-8.3953-47.869 3.2413-49.582 6.1556-0.94298 1.4431-6.1053-32.374-2.2628-35.298 2.3568-6.8883 30.47-19.535 49.493-6.7019 4.5861 2.3386 2.6825 32.706 2.3516 35.844z" fill="url(#bb)" fill-rule="evenodd" stroke="#000" stroke-width=".48636pt"/>
  <path d="m582.97 218.36c-26.656-8.3953-47.869 3.2414-49.582 6.1556-0.94298 1.4431-2.8602-33.799-2.2628-35.298 0.59741-1.4991 30.686-16.486 49.493-6.7019 2.0286 9.3717 2.6825 32.706 2.3516 35.844z" fill="url(#bc)" fill-rule="evenodd" stroke="#000" stroke-width=".48636pt"/>
  <path d="m582.65 208.12c-25.209-8.471-49.096 5.0886-49.096 5.0886" fill="none" stroke="#000" stroke-opacity=".26667" stroke-width=".48636pt"/>
  <path d="m582.13 192.38c-25.209-8.471-49.585 5.0095-49.585 5.0095" fill="none" stroke="#000" stroke-opacity=".26667" stroke-width=".48636pt"/>
  <path d="m533.57 211.41c24.374-12.943 46.662-5.9343 47.497-5.6736" fill="none" stroke="#fff" stroke-linecap="round" stroke-width="2.4318"/>
  <path d="m532.62 195.4c25.395-12.276 46.397-5.8517 47.599-5.5317" fill="none" stroke="#fff" stroke-linecap="round" stroke-width="2.4318"/>
  <path d="m570.51 219.19c1.2564 7.7264 21.704 286.38 24.151 305.33" fill="none" stroke="#000" stroke-linecap="round" stroke-opacity=".18333" stroke-width="1.8238"/>
  <path d="m69.378 610.68c-28.095 6.2888-51.1 35.773-45.997 59.333 3.3696 23.55 32.754 35.322 59.495 23.674 27.052-10.253 44.795-41.265 35.756-62.62-6.3691-17.241-27.265-26.01-49.255-20.388z"/>
  <circle transform="matrix(1.3028 -.26398 0 1.1543 -543.9 243.86)" cx="472.63" cy="463.06" r="34.219" fill="#f90"/>
  <circle transform="matrix(1.1586 -.23476 0 1.0265 -475.74 289.22)" cx="472.63" cy="463.06" r="34.219" fill="url(#af)"/>
  <path d="m62.713 651.43c-7.4309 8.7002-0.74393 22.398 6.445 27.657 9.6993 9.1317 22.706 6.1051 33.904 10.106 20.526 4.0396 40.982 8.0461 61.433 12.192 10.414-10.931 24.289-23.432 23.801-42.15-0.335-8.293-6.7677-16.945-13.846-13.821-33.628 0.28206-67.386-2.4412-100.89-0.29495-3.9658 0.95147-7.8992 2.7865-10.852 6.3108z"/>
  <path d="m80.138 649.61 100.18 1.3944s6.9469 7.6403 1.6408 19.806c-5.3061 12.166-18.679 24.719-18.679 24.719l-87.117-17.212s-14.244-10.247-12.132-19.254c2.1116-9.0075 16.108-9.4533 16.108-9.4533z" fill="#f90"/>
  <path d="m69.012 659.34c-2.7218 4.9553 4.0237 10.037 6.9666 12.115 8.7401 6.1739 19.604 3.7464 29.191 7.0149 18.941 3.7298 37.881 7.4595 56.822 11.189 7.0916-8.3086 16.57-19.623 15.575-33.173-42.738 1.567-74.4-2.2769-102.59-0.44415-2.1424 0.13927-4.713 1.0256-5.9607 3.2972z" fill="url(#ah)"/>
  <path d="m337.19 549.89c-0.30215-0.01-0.61242 4e-3 -0.91674 0.0246-14.693 3.3085-25.438 14.31-37.429 22.337-10.314 8.0916-20.965 16.264-33.212 21.401 2.5168-7.8526 3.8965-17.063-2.7764-23.174-3.2635-2.6409-7.6657-3.7359-11.918-3.5956-14.362 1.4551-23.287 13.772-30.698 24.036-4.9155 7.184-8.7362 12.293-12.687 19.962-7.2194 2.6753-14.633 7.7744-18.282 14.362-13.483-10.57-34.321-6.4647-42.423 13.945-6.1502 14.498-3.9933 30.692-3.4574 45.979 1.2693 14.287 6.2001 30.805 20.587 38.049 8.0341 3.6286 17.877 0.36713 22.63-6.5016 2.9945-2.8454 5.2634-4.0718 6.0512-6.9778 12.316 16.204 41.944 18.79 59.318 5.6047 7.0915 7.3301 17.042 6.2505 29.867 2.0627 22.125-8.2142 36.618-28.958 41.463-50.313 1.1639-6.5904 0.17905-14.519-4.4677-17.644 5.6133-16.639-3.3348-23.189-6.159-25.507 11.343-5.6667 31.064-22.099 39.439-35.361 5.5421-12.269 1.9945-28.229-9.0365-36.719-1.7399-1.1062-3.7783-1.9011-5.8934-1.9702z"/>
  <path d="m185.73 654.34s-0.16913-20.094 16.295-33.885c16.464-13.791 58.073-17.732 76.932-29.834s49.691-39.685 59.27-37.433c9.579 2.2516 17.063 21.953 10.776 34.337-6.2862 12.384-40.262 33.774-40.262 33.774-29.934-4.5033-46.249 4.7847-46.249 4.7847s59.57-16.606 52.685 20.968c-25.744-6.7549-48.793 8.5843-48.793 8.5843s44.486-16.214 52.984 3.096c3.5921 8.1622-5.6876 30.397-19.158 43.344-13.181 12.669-26.734 15.185-34.425 14.917-8.0823-0.28145-10.178-3.9404-10.178-3.9404s23.648-13.791 26.043-31.523c0 0-26.642 42.781-61.366 36.589s-34.73-35.628-34.73-35.628c-2.9934 14.917 3.5984 24.088 3.5984 24.088s-5.6875 13.51-15.865 14.917-25.444-9.5694-26.941-41.374c-1.522-32.34 1.4967-45.033 15.267-51.225s26.043 2.2516 26.043 2.2516c-3.8915 14.917-1.9263 23.19-1.9263 23.19z" fill="url(#bf)"/>
  <path d="m251.85 570.01c-16.115-0.21172-30.605 24.081-38.183 38.79 13.394-6.1913 27.47-7.0451 41.484-11.651 2.1793-0.53224 4.3118-1.1657 6.391-1.8963 3.6024-9.7316 6.2055-23.885-8.6174-25.169-0.35547-0.0308-0.71866-0.0692-1.0739-0.0738z" fill="url(#be)"/>
  <path d="m282.96 296.59c-0.98521-0.10189-1.9642-0.17439-2.946-0.23077-14.575-0.131-31.059 1.0719-44.337 9.6074-15.644 5.0983-35.962 13.147-42.959 30.332-4.356 14.288 11.502 23.987 22.669 26.894 31.001 9.249 66.585 4.386 97.153-11.749 10.765-5.6496 27.26-18.071 23.225-31.348-4.4437-14.623-25.668-18.812-38.754-20.58-0.61744-0.0233-1.1314 0.0733-1.5869 0.22054-3.8528-1.7739-8.16-2.7009-12.463-3.1458z"/>
  <ellipse transform="matrix(1.1449 -.093219 -.21243 1.2472 -98.014 190.56)" cx="340.3" cy="127.19" rx="31.694" ry="12.753" fill="#f90"/>
  <path d="m301.82 305.46c3.1868 2.4586 4.7708 5.4912 4.1827 8.9443-1.7491 10.269-21.747 20.176-44.657 22.131s-40.07-4.7968-38.321-15.066c0.43238-2.5387 1.9765-5.0797 4.407-7.4597-15.378 6.5813-26.001 15.545-27.551 24.645-2.7289 16.022 23.711 26.504 59.08 23.419s66.271-18.578 69-34.6c1.7745-10.418-8.8079-18.485-26.141-22.013z" fill="#f90"/>
  <ellipse transform="matrix(.93716 -.076302 -.17388 1.0209 -32.21 213.59)" cx="340.3" cy="127.19" rx="31.694" ry="12.753" fill="url(#ax)"/>
  <path d="m310.77 313.91c-2.7004 14.828-18.95 20.604-30.723 24.189-19.161 5.3923-41.129 6.8462-57.185-4.3741-2.5489-2.3419-4.4459-5.6093-4.7908-9.3671-6.2124 3.6175-16.081 11.229-12.583 19.3 8.1816 12.285 24.842 12.51 38.453 13.614 24.965 0.48388 52.487-4.3857 73.916-21.515 5.2576-4.2739 7.768-13.296 1.7239-16.999-2.4328-2.0932-6.0226-4.7999-8.8106-4.8469z" fill="url(#bd)"/>
  <ellipse transform="matrix(.86592 0 0 1.0721 -.37969 -105.75)" cx="287.23" cy="504.86" rx="17.232" ry="33.571"/>
  <ellipse transform="matrix(.75573 0 0 .9357 31.271 -36.868)" cx="287.23" cy="504.86" rx="17.232" ry="33.571" fill="url(#ay)"/>
  <ellipse transform="matrix(.37748 0 0 .46737 135.35 188.18)" cx="287.23" cy="504.86" rx="17.232" ry="33.571" fill="#fff"/>
  <path d="m158.01 445.72s-0.5954-22.691 19.563-24.178c20.159-1.4872 23.995 24.574 23.995 24.574s-15.663-18.138-26.953-16.028-16.605 15.633-16.605 15.633z"/>
  <path d="m286.49 493.24s38.512-26.39 41.543-51.265c-4.7982-3.7881-27.148-4.0406-27.148-4.0406s25.254-16.668 46.467-4.5457c16.785 9.5913 9.5964 33.335 9.5964 33.335s-6.0609-15.152-12.879-17.425c-16.92 37.123-57.579 43.942-57.579 43.942z"/>
  <path d="m620.98 328.64c-21.421 4.9655-30.185-6.5764-43.932 30.673-2.9284 7.508-5.1739 14.925-5.6804 21.067-0.62407 7.5673 11.019 18.456 28.913 4.7742 22.841-17.463 19.944-31.238 20.699-56.514 0.0878-2.9387 0.71881 2.3834 0 0z" fill="url(#ag)"/>
  <path d="m577.05 359.31c-2.9284 7.508-5.1739 14.925-5.6804 21.067-0.62407 7.5673 11.019 18.456 28.913 4.7742 22.841-17.463 33.489-51.307 15.101-62-15.185-8.8308-34.687 26.742-38.334 36.16z" fill="url(#ag)" stroke="#000" stroke-width="5"/>
  <path d="m582.57 295.26c-15.412 0.40489-27.137 20.562-44.291 32.213-18.929 12.857-34.555 23.945-42.412 46.088-7.8571 22.143 19.859 56.292 19.859 56.292s-13.549-13.013-16.406-23.906c0 0-12.5 12.121-10 26.406 2.5 14.286 13.188 27.866 35.688 33.938 8.979 3.5544 21.984 2.074 21.984 2.074-0.17114-37.793-4.3352-63.883-5.0534-89.394-0.48608-17.265 45.152-39.155 54.735-48.35 6.9624-6.681 9.0492-29.317-9.1651-34.674-1.7076-0.50223-3.3431-0.72938-4.9375-0.6875z" fill="url(#al)" stroke="#000300" stroke-width="6"/>
 </g>
</svg>
