<?xml version="1.0" encoding="UTF-8"?>
<svg version="1.1" viewBox="0 0 562.26 709.8" xmlns="http://www.w3.org/2000/svg" xmlns:xlink="http://www.w3.org/1999/xlink">
 <defs>
  <linearGradient id="aw" x1="356.41" x2="288.22" y1="104.42" y2="102.45" gradientTransform="matrix(1.051 .32246 -.24738 1.37 29.329 -28.848)" gradientUnits="userSpaceOnUse" xlink:href="#b"/>
  <linearGradient id="b">
   <stop stop-color="#f90" offset="0"/>
   <stop stop-color="#fff" offset="1"/>
  </linearGradient>
  <linearGradient id="an" x1="365.11" x2="313.37" y1="127.82" y2="126.45" gradientUnits="userSpaceOnUse" xlink:href="#b"/>
  <linearGradient id="bg" x1="337.19" x2="323.78" y1="682.37" y2="719.5" gradientTransform="translate(-7.6711 -131.53)" gradientUnits="userSpaceOnUse" xlink:href="#a"/>
  <linearGradient id="a">
   <stop stop-color="#fff" offset="0"/>
   <stop stop-color="#cecece" offset="1"/>
  </linearGradient>
  <linearGradient id="ax" x1="532.61" x2="462.28" y1="515.02" y2="446.08" gradientTransform="matrix(1.2959 -.32438 .48754 1.2486 -661.5 75.648)" gradientUnits="userSpaceOnUse" xlink:href="#b"/>
  <linearGradient id="bj" x1="617.03" x2="546.48" y1="566.27" y2="607.18" gradientTransform="translate(-6.6041 -134.35)" gradientUnits="userSpaceOnUse" xlink:href="#a"/>
  <linearGradient id="al" x1="520.44" x2="521.38" y1="606.36" y2="615.7" gradientTransform="translate(-6.6041 -134.35)" gradientUnits="userSpaceOnUse" xlink:href="#a"/>
  <linearGradient id="am" x1="388.95" x2="494.76" y1="590.45" y2="613.68" gradientTransform="translate(-6.6041 -134.35)" gradientUnits="userSpaceOnUse" xlink:href="#a"/>
  <linearGradient id="bi" x1="548.19" x2="651.21" y1="674.56" y2="674.56" gradientTransform="translate(-6.6041 -134.35)" gradientUnits="userSpaceOnUse" xlink:href="#ai"/>
  <linearGradient id="ai">
   <stop stop-color="#008000" offset="0"/>
   <stop stop-color="#62b862" offset="1"/>
  </linearGradient>
  <linearGradient id="bh" x1="365.88" x2="533.45" y1="693.93" y2="702.01" gradientTransform="translate(-6.6041 -134.35)" gradientUnits="userSpaceOnUse" xlink:href="#ai"/>
  <linearGradient id="ay" x1="572.67" x2="572.25" y1="516.38" y2="535.32" gradientTransform="translate(-7.0706 -135.14)" gradientUnits="userSpaceOnUse" xlink:href="#a"/>
  <linearGradient id="az" x1="533.52" x2="537.04" y1="532.01" y2="576.96" gradientTransform="translate(-7.0706 -135.14)" gradientUnits="userSpaceOnUse" xlink:href="#a"/>
  <linearGradient id="bf" x1="424.28" x2="425.01" y1="419.03" y2="534.16" gradientUnits="userSpaceOnUse" xlink:href="#ag"/>
  <linearGradient id="ag">
   <stop stop-color="#feffff" offset="0"/>
   <stop stop-color="#feffff" stop-opacity="0" offset="1"/>
  </linearGradient>
  <linearGradient id="ba" x1="624.73" x2="627.2" y1="29.459" y2="147.14" gradientTransform="translate(-137.64 243.62)" gradientUnits="userSpaceOnUse" xlink:href="#ah"/>
  <linearGradient id="ah">
   <stop stop-color="#a1e2f9" offset="0"/>
   <stop stop-color="#a1e2f9" stop-opacity="0" offset=".5"/>
   <stop stop-color="#a1e2f9" offset="1"/>
  </linearGradient>
  <linearGradient id="be" x1="422.26" x2="424" y1="416.11" y2="538.05" gradientUnits="userSpaceOnUse" xlink:href="#ag"/>
  <linearGradient id="bb" x1="501.75" x2="502.19" y1="39.302" y2="149.91" gradientTransform="translate(-137.64 243.62)" gradientUnits="userSpaceOnUse" xlink:href="#ah"/>
  <linearGradient id="aj" x1="289.55" x2="287.07" y1="526.78" y2="466.31" gradientUnits="userSpaceOnUse">
   <stop stop-color="#00f" offset="0"/>
   <stop stop-opacity="0" offset="1"/>
  </linearGradient>
  <linearGradient id="ak" x1="475.32" x2="457.72" y1="482.37" y2="436.65" gradientUnits="userSpaceOnUse" xlink:href="#b"/>
  <linearGradient id="bc" x1="532.61" x2="462.28" y1="515.02" y2="446.08" gradientTransform="matrix(.11533 1.3309 -1.3479 .11388 796 -316.64)" gradientUnits="userSpaceOnUse" xlink:href="#b"/>
  <linearGradient id="ao" x1="343.07" x2="419.03" y1="796.06" y2="771.06" gradientTransform="matrix(1.0706 .28126 -.2654 1.1346 147.38 -322.88)" gradientUnits="userSpaceOnUse">
   <stop stop-color="#969696" offset="0"/>
   <stop stop-color="#5a5a5a" offset="1"/>
  </linearGradient>
  <linearGradient id="ap" x1="299.75" x2="273.4" y1="756.41" y2="644.98" gradientTransform="matrix(1.0706 .28126 -.2654 1.1346 147.38 -322.88)" gradientUnits="userSpaceOnUse">
   <stop stop-color="#36f" offset="0"/>
   <stop stop-color="#fff" offset="1"/>
  </linearGradient>
  <linearGradient id="aq" x1="181.87" x2="240.02" y1="532.23" y2="436.26" gradientTransform="matrix(1.0706 .28126 -.2654 1.1346 147.38 -322.88)" gradientUnits="userSpaceOnUse">
   <stop stop-color="#9cdafb" offset="0"/>
   <stop stop-color="#fff" offset="1"/>
  </linearGradient>
  <linearGradient id="ar" x1="363.66" x2="475.7" y1="474.68" y2="435.28" gradientTransform="matrix(1.0706 .28126 -.2654 1.1346 147.38 -322.88)" gradientUnits="userSpaceOnUse">
   <stop stop-color="#9cdafb" offset="0"/>
   <stop stop-color="#1aa9f6" offset="1"/>
  </linearGradient>
  <linearGradient id="as" x1="375.05" x2="385.19" y1="587.94" y2="521.77" gradientTransform="matrix(1.0706 .28126 -.2654 1.1346 147.38 -322.88)" gradientUnits="userSpaceOnUse">
   <stop stop-color="#f90" offset="0"/>
   <stop stop-color="#8d5500" offset="1"/>
  </linearGradient>
  <linearGradient id="at" x1="362.79" x2="438.37" y1="690.61" y2="604.74" gradientTransform="matrix(1.0706 .28126 -.2654 1.1346 147.38 -322.88)" gradientUnits="userSpaceOnUse">
   <stop stop-color="#36f" offset="0"/>
   <stop stop-color="#00279c" offset="1"/>
  </linearGradient>
  <linearGradient id="av" x1="397.67" x2="366.45" y1="972.9" y2="816.83" gradientTransform="matrix(1.0747 .13206 -.13406 1.0587 35.928 -224.79)" gradientUnits="userSpaceOnUse">
   <stop offset="0"/>
   <stop stop-opacity="0" offset="1"/>
  </linearGradient>
  <linearGradient id="au" x1="402.37" x2="384.41" y1="915.92" y2="806.28" gradientTransform="matrix(1.1668 .14338 -.14555 1.1494 8.2843 -303.86)" gradientUnits="userSpaceOnUse">
   <stop stop-color="#ff0" offset="0"/>
   <stop stop-color="#ff0" stop-opacity="0" offset="1"/>
  </linearGradient>
  <linearGradient id="bd" x1="377.17" x2="372.08" y1="987.52" y2="827.17" gradientTransform="matrix(1.0747 .13206 -.13406 1.0587 35.928 -224.79)" gradientUnits="userSpaceOnUse">
   <stop stop-color="#f00" offset="0"/>
   <stop stop-color="#f00" stop-opacity="0" offset="1"/>
  </linearGradient>
 </defs>
 <g transform="translate(-90.653 -164.85)">
  <path d="m264.17 763.1c5.8458 43.075 52.053 61.243 52.053 61.243 0.35021 42.942-21.089 44.652-21.089 44.652s70.455-10.076 95.882-69.4-11.798-102.73-28.016-116.12c-16.219-13.397-32.639-18.673-32.639-18.673l-37.072 20.695s-34.966 34.53-29.12 77.605z" fill="url(#bd)"/>
  <path d="m315.33 688.44s-27.724 34.621-14.864 60.668c12.86 26.048 20.646 24.34 34.083 41.657 7.3284 9.4448 4.3855 25.565 4.3855 25.565s22.647-13.43 29.78-60.309c7.1331-46.879-15.819-73.577-18.839-73.359-3.02 0.2184-34.545 5.7775-34.545 5.7775z" fill="url(#au)"/>
  <path d="m330.49 658.18c-0.58153-0.061-1.1357-0.04-1.6833 0.096-17.786 11.487-40.415 17.769-51.694 36.821-17.861 24.843-26.832 59.008-14.019 87.817 9.0094 20.286 26.653 35.785 46.531 45.431-0.33144 12.6-2.2389 29.157-15.707 34.625-4.4443 2.2486-7.7238 5.9156-11.029 9.5305 17.951 6.4733 35.779-3.208 52.184-9.4456 38.64-17.249 68.949-54.753 70.976-97.516 2.5918-44.404-26.292-87.751-67.833-104.53-2.4319-0.7505-5.2048-2.5659-7.7246-2.8308zm-0.12004 6.6041s16.407 5.2951 32.625 18.692c16.219 13.397 53.456 56.809 28.029 116.13-23.669 55.221-86.29 67.744-94.847 69.216 4.237-0.9789 20.362-7.1559 20.058-44.472 0 0-46.218-18.189-52.063-61.264-5.8457-43.075 29.129-77.594 29.129-77.594l37.069-20.711z" fill="url(#av)"/>
  <path d="m351.01 167.37c-10.088-0.11437-18.547 5.7436-28.188 7.5312-13.337 3.5852-26.645 13.936-29.188 27.844-25.394 6.847-49.445 18.662-70.5 34.438-37.346 27.026-67.149 63.492-88.875 104.03 2.6703 3.7772 5.7073 7.1587 9.0312 10.219-1.0341 3.9736-0.87446 8.1526 1.125 12.094 3.132 7.6436 14.257 10.394 20 3.9688 0.50308-0.35912 0.98185-0.74702 1.4688-1.125 6.4623 3.178 13.192 5.8839 19.844 8.3438 0.65395 2.9178 1.3137 5.8324 1.9688 8.75-14.137 14.615-28.448 29.125-42.625 43.75-31.012 3.0252-57.135 34.4-51.031 65.781 4.2484 33.371 41.857 56.249 73.75 46.531 9.2772-2.1451 17.623-6.9691 24.469-13.438 13.92 7.9352 27.617 16.377 41.625 24.031 0.49954 0.26511 1.0014 0.5401 1.5 0.8125 3.4378 27.017 6.8818 54.045 10.312 81.062 4.9134 2.4944 9.861 4.8659 14.969 7.0625 1.3207 17.628 2.661 35.254 4.0625 52.875 33.59 19.157 75.68 29.202 113.31 15.906 9.042-2.6125 17.828-6.0361 26.312-10.094 3.0713-14.383 6.2303-28.751 9.3438-43.125 22.493 3.7728 45.446 5.4042 68.125 6.6875 4.4817 0.058 7.5527-0.1951 11.438 1.2188 15.125 3.4343 33.794 4.1211 45.156-8.125 1.7561-2.5427 3.3779-4.5686 6.5-5.25 33.662-18.942 68.079-36.896 102.12-55.281 1.112-52.665 4.8492-105.43 2.7188-158.06-1.6462-5.0455-7.9324-6.2546-12.219-4.1875-11.791-8.4633-26.935-12.254-41.406-11.875-5.7414-0.0547-11.31 0.69852-16.688 2.0938 2.8814-17.711 7.7386-36.797 1.0312-54 3.2456-3.0418 0.50979-7.9213-1.3125-11.156-2.2143-5.462-4.6255-10.837-7.2188-16.125 0.75082-12.548-0.44856-25.247-3.375-37.312-4.8456-17.074-13.763-35.104-30.562-42.938-4.1836-1.8143-8.7237-2.7823-13.344-2.5-4.966 1.2361-9.99 1.5149-15.031 1.5625-26.171-22.988-56.867-40.789-90.125-51.375-1.4304-12.553-10.108-24.779-23.281-28.719-5.1926-2.5133-10.62-3.7112-15.344-6.9375-9.1819-4.1594-19.822-5.1472-29.875-4.9688zm174.16 100.5c15.487 0.14619 25.396 15.027 30.438 28.031 2.9576 8.1893 4.9837 16.847 5.9688 25.625-11.568-19.257-25.641-37.024-41.719-52.719 1.6998-0.53583 3.4689-0.87404 5.3125-0.9375zm-15.875 141.5c1.737 1.9935 3.5081 3.9539 5.4688 5.6875-2.7072-0.0703-5.4337 0.29291-8.0625 1.0312 0.85797-2.2419 1.7352-4.477 2.5938-6.7188zm-304.66 36c6.0705 4.5588 12.345 8.7781 18.906 12.656 1.4926 11.658 2.9802 23.311 4.4688 34.969-5.6525-2.3586-11.315-4.7008-17-6.9688 0.30803-6.7485-0.6589-13.576-3.1562-20.094-1.7453-5.207-4.2905-10.08-7.4688-14.469 1.4222-2.0257 2.8189-4.0738 4.25-6.0938z" stroke="#000" stroke-linejoin="round" stroke-width="5"/>
  <path d="m407.23 206.56c-2.2492-0.60242-4.5099-1.1644-6.775-1.7045-53.357-14.008-111.86-7.0451-159.27 22.741-43.858 26.601-79.484 67.042-104.56 113.44 12.582 16.982 31.954 25.096 50.782 32.196 5.1466 22.766 10.252 45.533 15.494 68.275 7.2031 5.6291 14.719 10.72 22.484 15.315 7.4349 57.975 14.808 115.93 22.154 173.86 4.9299 2.52 9.9516 4.8561 15.045 7.0383 1.346 17.654 2.6578 35.314 4.0535 52.963 33.231 18.615 73.333 28.07 109.82 15.566 8.9424-2.5942 17.684-5.8514 26.141-9.8803 3.4945-16.405 7.1067-32.782 10.651-49.176 1.275-0.4212 2.5501-0.8423 3.8182-1.2927 5.4863-1.7968 10.102-5.8742 10.377-12.478 16.313-54.579 32.627-109.14 48.885-163.74 2.9611-0.93663 5.907-1.8929 8.848-2.9068 9.6888-25.41 19.39-50.814 29.152-76.192 19.869-5.245 39.38-12.023 58.274-20.633 4.4449-2.1548 10.44-3.8047 5.8508-9.6782-23.617-59.908-69.897-109.31-125.42-136.52-14.725-7.2204-30.06-12.972-45.804-17.189z"/>
  <path d="m141.95 340.66s79.127-158.55 233.2-135.92c154.07 22.628 199.93 158.73 199.93 158.73s-90.199 51.173-250.11 33.975c-159.91-17.197-183.02-56.786-183.02-56.786z" fill="#9cdafb"/>
  <path d="m509.04 391.9c-78.177 19.358-160.67 16.315-239.64 2.5679-25.728-4.9904-52.091-10.02-76.983-19.019l14.406 63.36s52.245 44.147 133.46 45.409c81.211 1.2613 141.57-21.18 141.57-21.18l27.188-71.138z" fill="#f90"/>
  <path d="m471.27 471.25c-32.273 9.7113-65.655 14.959-99.171 16.927-48.445 4.1911-98.827-4.5522-141.94-28.593l21.457 168.03s40.185 22.114 91.941 24.153c51.756 2.0391 77.667-13.054 77.667-13.054l50.04-167.46z" fill="#36f"/>
  <path d="m408.42 648.67c-46.163 13.968-96.431 9.0242-141.29-9.0411l3.6598 48.075s32.03 18.226 65.38 19.584c30.665 1.2483 62.583-14.264 62.583-14.264z" fill="#969696"/>
  <path d="m471.27 471.25c-32.273 9.7113-65.655 14.959-99.171 16.927-17.398 1.5051-35.049 1.3157-52.52-0.62498 55.943 35.886 93.067 92.208 99.755 152.13 1.2069-0.5885 1.896-0.9696 1.896-0.9696l50.04-167.46z" fill="url(#at)"/>
  <path d="m509.04 391.9c-78.177 19.358-160.67 16.315-239.64 2.5679-9.7711-1.8953-19.634-3.8141-29.473-5.936-2.2261 0.38005-4.4337 0.76999-6.7027 1.1747 125.15 30.315 211.22 50.527 248.65 73.261l27.172-71.067z" fill="url(#as)"/>
  <path d="m402.77 210.25c-8.7993-2.2398-17.986-4.1093-27.616-5.5235-1.6475-0.24196-3.2951-0.45318-4.9254-0.65412 60.738 38.437 95.149 101.23 81.319 160.35-2.9144 12.459-7.8074 24.006-14.357 34.503 89.223-7.8413 137.88-35.436 137.88-35.436s-40.31-119.64-172.3-153.24z" fill="url(#ar)"/>
  <path d="m354.52 221.28c-71.216-18.709-158.73 37.332-198.53 125.9 18.88 13.905 42.11 20.267 64.165 26.905 3.6104 0.95086 7.2322 1.8903 10.857 2.7768 0.73883-3.106 1.5576-6.2204 2.4321-9.3343 21.551-76.741 78.035-131.75 137.28-140.52-5.123-2.3192-10.531-4.2342-16.204-5.7247z" fill="url(#aq)"/>
  <path d="m245.2 472.3 15.722 154.59c14.05 6.3488 28.748 11.364 43.76 14.845l7.134-150.43c-22.837-3.2137-45.395-9.4779-66.617-19.006z" fill="url(#ap)"/>
  <path d="m408.42 648.67c-31.492 9.5287-64.888 10.25-97.18 4.0139 1.9829 1.9688 3.6193 3.8987 4.726 5.7577 7.2844 12.236 6.0118 31.687 6.0118 31.687s6.8975-33.022 20.859-26.773c13.961 6.2483 13.64 33.691 13.64 33.691s6.7112-30.49 15.506-28.18c8.7945 2.3104 12.186 29.433 12.186 29.433l0.9368 0.2461c8.3245-2.9598 13.65-5.5216 13.65-5.5216l9.665-44.354z" fill="url(#ao)"/>
  <path d="m249.24 305.61c-22.994 0.52118-41.821 22.23-37.645 43.739 2.7578 21.192 26.807 36.695 48.692 31.247 22.14-4.1732 36.661-28.15 29.264-48.428-5.2126-16.207-22.314-27.579-40.311-26.558z"/>
  <path transform="matrix(1.0662 0 0 1.0095 -252.69 -123.87)" d="m506.84 463.06c0 18.899-15.32 34.219-34.219 34.219s-34.219-15.32-34.219-34.219 15.32-34.219 34.219-34.219 34.219 15.32 34.219 34.219z" fill="#f90"/>
  <path transform="matrix(.9482 0 0 .89772 -196.9 -72.123)" d="m506.84 463.06c0 18.899-15.32 34.219-34.219 34.219s-34.219-15.32-34.219-34.219 15.32-34.219 34.219-34.219 34.219 15.32 34.219 34.219z" fill="url(#ak)"/>
  <path d="m254.93 356.8c-2.0846-12.066-17.748-12.803-26.874-8.497-13.972 4.7133-20.264 19.26-31.065 28.225-17.114 18.208-47.285 48.486-64.434 66.562 1.8934 16.23 15.867 24.62 31.447 34.218 6.9824 4.1343 18.363 2.4065 20.584-6.3057 22.415-33.547 47.366-65.604 68.175-100.03 1.8953-4.4508 3.0489-9.3453 2.1661-14.176z"/>
  <path d="m244.68 375.09-68.596 98.734s-10.903 2.7833-17.242-9.0391c-6.3394-11.822-15.138-22.773-15.138-22.773l80.264-86.333s17.94-8.6257 23.857-1.677c5.917 6.9488-3.1447 21.088-3.1447 21.088z" fill="#f90"/>
  <path d="m244.24 358.8c-2.2045-5.372-10.887-1.4104-14.562 0.39234-10.916 5.354-16.253 17.45-25.372 25.21-15.793 16.8-31.586 33.6-47.38 50.4 1.9941 11.518 4.8305 27.025 16.54 33.335 27.503-43.286 51.955-72.658 69.447-101.64 1.3292-2.2026 2.3381-5.2327 1.3274-7.6954z" fill="url(#bc)"/>
  <path d="m149.27 429.02c-32.531 0.75827-59.169 32.342-53.259 63.637 3.9017 30.833 37.926 53.388 68.889 45.461 31.323-6.0716 51.868-40.956 41.402-70.458-7.3748-23.58-31.57-40.125-57.032-38.64z"/>
  <path transform="matrix(1.4656 0 0 1.4269 -540.58 -176.51)" d="m506.84 463.06c0 18.899-15.32 34.219-34.219 34.219s-34.219-15.32-34.219-34.219 15.32-34.219 34.219-34.219 34.219 15.32 34.219 34.219z" fill="#f90"/>
  <path transform="matrix(1.3034 0 0 1.269 -463.9 -103.36)" d="m506.84 463.06c0 18.899-15.32 34.219-34.219 34.219s-34.219-15.32-34.219-34.219 15.32-34.219 34.219-34.219 34.219 15.32 34.219 34.219z" fill="url(#ak)"/>
  <path transform="matrix(.94882 0 0 1.3017 129.74 -322.84)" d="m304.46 504.86c0 18.541-7.7151 33.571-17.232 33.571s-17.232-15.03-17.232-33.571 7.7151-33.571 17.232-33.571 17.232 15.03 17.232 33.571z"/>
  <path transform="matrix(.82808 0 0 1.136 164.43 -239.21)" d="m304.46 504.86c0 18.541-7.7151 33.571-17.232 33.571s-17.232-15.03-17.232-33.571 7.7151-33.571 17.232-33.571 17.232 15.03 17.232 33.571z" fill="url(#aj)"/>
  <path transform="matrix(.41362 0 0 .56744 278.47 34.02)" d="m304.46 504.86c0 18.541-7.7151 33.571-17.232 33.571s-17.232-15.03-17.232-33.571 7.7151-33.571 17.232-33.571 17.232 15.03 17.232 33.571z" fill="#fff"/>
  <path transform="matrix(.94882 0 0 1.3017 231.27 -327.89)" d="m304.46 504.86c0 18.541-7.7151 33.571-17.232 33.571s-17.232-15.03-17.232-33.571 7.7151-33.571 17.232-33.571 17.232 15.03 17.232 33.571z"/>
  <path transform="matrix(.82808 0 0 1.136 265.95 -244.26)" d="m304.46 504.86c0 18.541-7.7151 33.571-17.232 33.571s-17.232-15.03-17.232-33.571 7.7151-33.571 17.232-33.571 17.232 15.03 17.232 33.571z" fill="url(#aj)"/>
  <path transform="matrix(.41362 0 0 .56744 379.99 28.969)" d="m304.46 504.86c0 18.541-7.7151 33.571-17.232 33.571s-17.232-15.03-17.232-33.571 7.7151-33.571 17.232-33.571 17.232 15.03 17.232 33.571z" fill="#fff"/>
  <path d="m524.73 259.81c-6.5904 1.0862-13.028 2.187-19.812 1.5-5.6885-0.63064-10.978 0.83964-14.936 5.0328-15.076 12.082-25.933 29.395-30.658 48.092-4.2248-0.11667-8.3805 0.77354-12.281 2.1875-4.082-18.334-12.355-38.554-30.094-47.344-7.2296-3.8755-15.632-2.6919-23.219-1.0938-8.5354 0.33061-18.087-1.8334-25.188 4.0312-17.604 10.934-28.3 30.734-31.312 50.875-51.175-1.1748-102.42-3.5689-153.66-3.0312-10.843-0.0906-18.046 8.959-25.992 15.014-6.8884 6.4896-15.893 15.289-12.008 25.673 1.5821 7.1824 11.108 11.471 16.719 5.7812 10.133-6.859 16.746-17.934 27.75-23.594 48.764 0.8505 97.513 2.425 146.28 3.0625 2.0259 22.59 5.982 48.974 25.812 63.031 10.638 6.7061 23.775 2.6247 35.562 3.6562 7.8136 1.1385 16.272 0.34888 23-4.3438 18.784-12.264 25.936-36.354 27.969-57.812 1.3835-4.9332-2.0952-12.687 4.4688-14.281 1.9329-0.8386 5.1217-2.1261 4.125 1.3438 1.819 22.971 5.4874 49.548 25.219 64.188 10.62 7.3169 24.203 3.0404 36.188 4.0938 7.8136 1.1385 16.272 0.34888 23-4.3438 18.871-12.396 25.924-36.434 28-57.969 2.285-26.186-3.1123-55.124-21.812-74.312-6.1956-5.7839-14.427-9.9676-23.125-9.4375zm1.1562 6.0625c16.129 0.56632 26.189 15.703 31.562 29.25 10.101 27.494 9.3017 60.037-4.8125 85.875-6.2027 11.31-18.547 22.248-32.375 18.5-17.488-5.56-25.638-24.507-29.759-40.974-5.7528-26.695-3.495-57.018 12.884-79.714 5.3848-6.9345 13.242-12.978 22.5-12.938zm-19.781 1.5c-17 14.465-22.684 38.22-24.406 59.25-3.9939-5.4624-9.621-9.9392-16.312-11.438 4.872-19.236 16.935-36.593 33.219-47.812h7.5zm-101.16 5.3125c16.596 0.62251 26.798 16.532 32.031 30.625 9.636 27.574 8.6294 59.921-5.9375 85.594-6.3754 11.161-19.13 21.551-32.688 17.125-17.093-6.2273-24.889-24.8-28.969-41.25-5.5398-26.533-3.2357-56.708 13.031-79.125 5.366-6.9314 13.251-13.01 22.531-12.969zm-19.812 1.5c-18.028 15.689-23.669 40.952-24.49 63.937-0.28348 22.453 5.2521 46.243 20.146 63.438 1.7982 1.87 3.7531 3.651 5.8438 5.125-8.0538 0.13262-17.077 1.6277-23.5-4.4062-15.644-13.407-18.726-35.387-20.562-54.75 0.3875-3.5389 6.9558 0.35722 9.5625-2.5 6.7545-3.6478 8.8286-14.773 1.1875-18.719-2.9367-1.9234-6.4293-2.8223-9.9062-3.125 2.9058-20.332 14.97-40.116 33.969-49h7.75zm78.438 62.312c4.155 4.0942 9.5579 10.032 16.094 7.2188 3.2958-3.1206 2.1519 1.7503 2.8125 4.2188 2.6983 18.594 8.9897 38.405 23.656 50.844 3.3446 2.7383-9.1504 0.33197-11.531 1.215-13.41-1.9075-21.129-15.731-25.166-27.474-3.7058-11.445-5.9056-24.218-5.8659-36.022z"/>
  <path d="m348.49 342.4s-151.27-3.283-158.34-3.5355c-7.0711-0.25253-27.274 25.001-33.335 26.264-6.0609 1.2627-10.354-8.0812-6.8185-15.152 3.5355-7.0711 21.466-22.476 28.537-25.254s167.43 2.7779 167.43 2.7779 7.5761 1.5152 8.3338 6.566c0.75761 5.0508-5.8084 8.3338-5.8084 8.3338z" fill="#d36533"/>
  <path d="m377.04 272.19s-30.316 11.401-35.938 52.875c4.5825 0.14889 8.9618 0.96577 12.594 4.0312 5.4813 4.6247 1.4541 12.825-4.25 15.062-3.0312-0.0292-6.0608-0.0878-9.0938-0.125 0.0539 1.2036 0.12688 2.4148 0.21875 3.6562 4.4481 60.108 32.469 61.125 32.469 61.125l20.812-0.1875c-7.6609-3.4869-14.218-10.153-18.344-17.531-15.298-26.438-16.426-60.577-6.375-89.219 4.2262-11.544 11.734-23.783 22.5-29.688h-14.594z" fill="url(#bb)"/>
  <path transform="matrix(.99976 0 0 1.0397 -15.566 -159.43)" d="m460.88 480.24c0 36.751-18.034 66.544-40.28 66.544s-40.28-29.793-40.28-66.544 18.034-66.544 40.28-66.544 40.28 29.793 40.28 66.544z" fill="url(#be)"/>
  <path d="m458.73 318.44c-5.2381 0-9.6313 1.4995-12.875 3.125 0.7144 4.5887 1.1406 9.2382 1.2812 13.906 2.8762-2.513 6.7641-4.721 11.781-4.375 10.357 0.71428 10.545 8.3884 16.438 9.2812s6.7902-7.1429 3.2188-11.25-8.4152-10.688-19.844-10.688z" fill="#d36533"/>
  <path d="m498.01 265.38s-27.032 16.292-35.062 51.344c4.2416 0.65674 8.2937 2.4142 11.562 5.25 5.1942 4.0704 11.173 11.613 6.5312 18.219-4.3778 5.1387-11.419 0.43416-14.344-3.7812-0.79603-0.79005-1.6574-1.412-2.5625-1.9062-0.93754-0.01-1.8745-0.023-2.8125-0.0312 0.0539 0.85464 0.12688 5.1648 0.21875 6.4062 4.4481 60.108 32.469 61.125 32.469 61.125l20.812-0.1875c-7.6609-3.4869-14.218-10.153-18.344-17.531-15.298-26.438-16.426-60.577-6.375-89.219 4.2262-11.544 11.734-23.783 22.5-29.688h-14.594z" fill="url(#ba)"/>
  <path transform="matrix(.99976 0 0 1.0397 105.4 -166.25)" d="m460.88 480.24c0 36.751-18.034 66.544-40.28 66.544s-40.28-29.793-40.28-66.544 18.034-66.544 40.28-66.544 40.28 29.793 40.28 66.544z" fill="url(#bf)"/>
  <path d="m481.57 347.37c-13.141 1.1405-28.852 0.24023-38.938 10.188-8.8611 10.99-4.2583 30.452 8.875 35.719 15.408 4.1559 31.757 0.61104 47.281 3.5 6.7686 3.8597 11.083 10.978 16.719 16.281 4.0458 3.4661 3.2654 4.3349-1.4374 3.9688-11.996 0.31915-24.708 8.9432-25.094 21.812-0.8293 4.9193 1.1592 10.689-0.8438 15.062-8.377 8.547-3.8375 21.323-1.8154 31.5 3.7255 12.832 7.8549 25.894 14.253 37.687 4.911 8.1061 12.964 15.986 21.857 9.9554-4.1774 3.0164-2.5575 9.4183 2.2053 11.732 40.371 19.613 42.501 2.2608 50.107-9.3125 9.0682-13.798 2.7785-34.416 6.6885-49.923 3.8241-20.398 1.9571-41.614-4.4206-61.233 2.7897-17.88 8.0405-36.97 2.1876-54.719-2.4248-7.6109-11.993-11.816-18.906-7.0312-4.9703 2.7363-8.1969 8.3441-8.625 13.781-8.052-10.758-17.338-21.863-31.031-25.125-12.643-3.5627-25.99-4.0597-39.062-3.8438z"/>
  <path d="m519.36 468.47s-9.8214 23.75 7.1429 56.964c-6.0715 10.357-20.357 4.2857-26.786-12.857-6.4286-17.143-16.786-45-10.357-53.929 6.4286-8.9286 21.786-13.929 21.786-13.929s-9.2857-2.8572-18.214 2.8571c0-7.1429-1.4285-15.714 7.8572-22.143 12.22-8.4604 28.929-2.1429 28.929-2.1429s-22.343-26.414-28.572-30c-4.7182-2.7167-38.214-0.71428-48.214-3.5714-10-2.8572-17.5-26.786-1.7857-33.571 15.714-6.7857 62.857-7.1429 78.572 3.2143 15.714 10.357 33.571 40 40.357 57.143s11.786 42.5 8.2143 62.5 0.5357 44.464-5.5358 53.036c-6.0714 8.5714-12.321 30.893-47.321 8.3929 0 0-1.25-6.9643 6.4286-10.357 0 0-18.036-44.286-12.5-61.607z" fill="url(#az)"/>
  <path d="m566.84 364.57c-4.4835 0.29849-8.8304 4.2455-9.9688 7.2812-0.808 2.1548-0.5971 4.4679-0.9107 10.049 7.6053 11.126 13.913 23.191 18.406 35.875 2.8534-15.015 4.9573-31.937 2.5044-42.362-2.0089-8.5379-6.0751-11.107-10.031-10.844z" fill="url(#ay)"/>
  <path d="m598.71 421.71c-0.85003-2e-3 -1.7102 7.1e-4 -2.5625 0.0312-27.255-0.26127-50.35 17.839-66.625 38.062-2.504 2.9599-4.8115 6.0546-7.125 9.1562-3.2762-0.68224-6.632-1.0195-10.094-0.84375-5.314 0.27815-11.052 2.8536-14.688 6.9688-7.9374-14.842-25.974-20.443-41.219-24.812-13.856-3.7031-28.117-6.2067-42.531-5.9688-13.667-7e-3 -27.933 3.4323-38.312 12.562-2.2997-0.24788-4.6186-0.38788-6.9688-0.34375-7.9717 1.0199-9.4934 10.404-9.9375 16.875-2.4686 16.676-2.7243 33.677-3.5312 50.531 26.678 1.1893 53.787 0.883 80 5.9687 9.4882 4.7527 9.1155 19.654 2.5 26.656-5.0184 4.4619-12.314 4.1016-18.188 6.8125 6.3884 2.4302 16.145 2.5893 17.906 10.844 3.6237 9.2389-0.28867 22.633-11.125 24.562 1.5559 14.229-12.503 27.478-26.656 24.656-15.245-0.036-30.276-2.508-44.844-6.875 2.2972 6.8331-1.0156 15.947 4.9375 21.219 33.187 13.893 69.551 17.615 105.12 20.656 7.5971 0.4919 15.203 0.8326 22.812 1.0625-0.11489-3.0016 3.8458 1.2963 5.875 1.0312 9.2676 1.9635 19.233 3.0661 28.594 1.0938 7.0946-1.9693 14.746-6.3904 18.094-13.156 2.3341 0.3145 5.4375-2.082 7.2188-3.25 32.561-17.532 65.104-35.131 97.719-52.562 1.2561-51.812 4.4381-103.7 2.9688-155.5-0.64228-2.834-3.447-4.8893-6.3438-4.4688-1.7335 0.4063-3.4399 0.87402-5.125 1.4062-0.22914-0.81509-0.79816-1.5817-1.8438-2.1875-10.84-6.5419-23.281-10.162-36.031-10.188z"/>
  <path d="m371.27 460.46c-2.3293 0.046-4.1666 0.50201-5.375 1.4688-3.3577 2.6861-5.5034 27.848-6.625 58.125 20.603 0.6371 41.326 1.2928 61.75 3.5625 8.2232 0.8459 19.742 0.7274 23.094 10 5.0125 10.548 1.4425 26.998-11.188 29.875 2.6722 0.7314 4.7991 2.7621 6.125 5.125 6.6106 10.799 4.0918 28.394-8.9062 33.094-0.2508 11.986-9.6417 23.598-21.906 25.5-16.347 0.8604-32.934-0.8887-48.781-5.2187 0.48222 7.2509 1.1107 11.754 1.875 12.156 11.614 6.1128 55.577 18.946 122.5 21.219l4.7812-76.25 2.2812 76.25s2.0335 2.2711 20.469 3.2812c18.435 1.0102 26-12.625 26-12.625 2.5254-77.024 4.2812-151.78 4.2812-151.78s-8.569 6.5886-23.469 7.0937-23.5-4.0625-23.5-4.0625l-6.5625 76.281 2.2812-86.375s-43.197-4.0244-57.844-7.8125c-12.359-3.1962-45.032-18.469-60.25-18.906-0.35228-0.0101-0.69849-7e-3 -1.0312 0zm167.03 24.156c-4.3823 0.39306-11.734 6.1406-21.5 7.7812-11.161 1.875-21.085-4.4821-21.531-4.75 0 0-2.308 5.6339-0.96875 6.4375 1.3393 0.80357 8.558 3.4777 20.344 4.9063 11.786 1.4285 21.964-5.192 25-7.1563 3.0357-1.9643 4.3616-5.5134 0.34375-7.0312-0.50223-0.18973-1.0614-0.24365-1.6875-0.1875z" fill="url(#bh)"/>
  <path d="m642.27 436.68c-8.2996-0.13812-41.221 24.512-61.469 33.844-11.118 5.1237-26.09 8.2222-35.009 13.991-1.1352 48.277-2.6527 106.37-4.2098 154.63 0.29121 1.5992 0.32125 3.1338 0.125 4.5938l99.438-53.531s5.3066-147.48 2.7812-152.78c-0.23676-0.49718-0.79767-0.73571-1.6562-0.75z" fill="url(#bi)"/>
  <path d="m414.18 448.28c-20.345 0.31233-29.947 6.7415-33.094 9.4375 10.94 2.1343 21.389 6.7096 31.844 10.5 24.444 11.092 51.565 11.928 77.844 14.969 1.7909 0.96247 3.6711 0.0125 5.4688 0.34375-0.0145-1.003-0.25328-2.2802-0.875-3.9062-2.3214-6.0714-9.3036-20.366-55.375-28.938-10.078-1.875-18.607-2.5169-25.812-2.4062z" fill="url(#am)"/>
  <path d="m513.61 472.06c-12.624 0.39237-15.938 10.594-15.938 10.594s0.25702 0.84122 0.65625 2c10.374 7.3888 24.104 3.2649 34.469-2.4062 1.7907-1.5066 4.1901-1.9397 6.4688-1.5938-4.0767-2.8332-12.523-7.7716-23.031-8.5312-0.92634-0.067-1.7834-0.0887-2.625-0.0625z" fill="url(#al)"/>
  <path d="m596.99 425.71c-5.1096 0.0721-10.674 0.70447-16.688 2.125-24.699 5.8345-45.458 30.93-53.719 42.188 9.4364 2.9452 12.621 3.7072 19.987 10.29 13.615-9.0307 32.175-13.594 45.92-22.478 12.83-7.5777 25.356-16.651 39.312-22.062l0.5-0.375s-13.171-10-35.312-9.6875z" fill="url(#bj)"/>
  <path d="m434.58 455.24c1.1364 0.25254 27.455 0.76267 39.775 8.8388 11.364 7.4499 11.49 10.733 13.006 15.026 0 0-8.3338-2.5254-30.178-6.8185-21.845-4.2931-37.376-5.3033-37.376-5.3033s30.81-1.1364 39.775 1.894c8.9651 3.0305 22.097 6.8185 22.097 6.8185s-2.7779-7.955-18.814-13.006c-16.036-5.0508-28.284-7.4499-28.284-7.4499z"/>
  <path d="m536.73 470.64s6.6923-12.374 19.193-20.961c12.501-8.5863 21.845-10.354 21.845-10.354-21.213 10.985-41.037 31.315-41.037 31.315z"/>
  <path d="m544.81 475.06s5.177-12.122 20.961-20.203c15.784-8.0812 23.107-7.4499 23.107-7.4499-16.622 6.8793-39.586 21.172-44.068 27.653z"/>
  <path d="m160.48 474.98c-11.459 3.9174-7.8502 18.761-1.0222 26.64 8.5782 12.368 24.836 15.923 36.777 24.621 22.913 13.132 45.754 26.203 68.545 39.39 15.667-4.4133 35.898-8.5329 41.152-24.735 2.1877-7.2343-2.6932-17.652-12.001-18.326-39.687-15.627-78.591-33.879-118.71-47.854-4.9663-1.0594-10.169-1.3495-14.744 0.26427z"/>
  <path d="m181.57 481.64 117.53 48.459s5.8014 9.7971-4.235 17.674c-10.036 7.8774-29.693 12.279-29.693 12.279l-97.226-55.792s-13.583-15.464-8.2913-22.154c5.2912-6.6896 21.911-0.46591 21.911-0.46591z" fill="#f90"/>
  <path d="m165.44 484.7c-4.748 2.944 1.613 10.463 4.4311 13.625 8.3697 9.392 21.918 12.447 32.19 19.759 21.142 12.119 42.285 24.239 63.427 36.358 10.938-3.7434 25.622-8.9259 28.669-20.957-50.815-18.829-86.902-37.048-120.67-48.787-2.5662-0.89204-5.8692-1.3487-8.0458 9.2e-4z" fill="url(#ax)"/>
  <path d="m344.58 485.09c-15.796 1.3209-26.417 15.446-36.656 25.531-7.0155-10.907-23.131-15.163-33.844-7.1875-16.724 9.9736-21.744 31.642-18.499 49.746 1.3158 13.586 6.8347 29.872 21.03 34.442 8.2972 1.8229 17.005-1.5263 24.531-3.125 7.441 12.617 20.872 20.056 33.094 27.094 23.271 11.716 49.935 16.995 75.969 15.625 12.265-1.9018 21.655-13.514 21.906-25.5 12.998-4.6993 15.517-22.294 8.9062-33.094-1.3259-2.363-3.4528-4.3936-6.125-5.125 12.63-2.8773 16.2-19.327 11.188-29.875-3.3513-9.2726-14.87-9.1541-23.094-10-20.96-2.3293-42.238-2.9717-63.375-3.625 0.24086-10.281 0.47168-20.563 0.71875-30.844-4.6759-2.8674-10.187-4.5273-15.75-4.0625z"/>
  <path d="m298.04 528.33c0.35715-0.7143 7.1376-14.86 7.1376-14.86s-7.9924-11.291-18.885-10.22c-10.893 1.0714-29.16 13.818-27.36 41.865 1.4592 22.732 6.4973 31.475 15.66 37.51 6.3199 4.1628 23.268-1.6176 23.268-1.6176s-4.793-5.8408-0.24728-32.357c0.25254 17.173 3.4563 33.35 13.278 41.921s34.712 30.681 89.962 33.143c24.639 1.098 26.597-18.485 26.597-18.485s-42.545-2.8453-82.446-15.472c0 0 71.597 10.712 83.382 8.7478 11.786-1.9643 15.985-17.064 8.0463-29.641-3.2254-5.1096-35.378 3.6318-90.179-13.036 34.345 5.8084 75 7.3214 87.857 3.9286 12.857-3.3929 11.786-23.393 5.5358-28.75-6.25-5.3572-84.107-7.1429-84.107-7.1429l0.71429-32.321s-10.536-6.7857-23.929 1.9643-34.286 34.821-34.286 34.821z" fill="url(#bg)"/>
  <path d="m375.13 172.22c-0.86931-0.27899-1.7344-0.52472-2.6025-0.75325-12.918-2.619-27.584-4.1004-39.713 2.9983-14.083 2.9301-29.713 8.0322-36.632 25.677-4.4574 14.918 6.4781 28.507 16.259 33.59 27.102 15.401 58.856 16.115 86.632 3.6245 9.7807-4.3629 21.495-15.931 18.739-31.212-3.5989-16.728-18.816-24.173-30.346-28.333-0.54649-0.13044-1.0062-0.11179-1.4162-0.0278-3.3423-2.5983-7.1227-4.3458-10.92-5.5642z"/>
  <path transform="matrix(1.0191 .092302 -.2403 1.3307 41.749 -8.6869)" d="m371.99 127.19c0 7.0434-14.19 12.753-31.694 12.753s-31.694-5.7098-31.694-12.753c0-7.0434 14.19-12.753 31.694-12.753s31.694 5.7098 31.694 12.753z" fill="#f90"/>
  <path d="m391.48 185.14c2.7232 3.2356 4.0014 6.8279 3.3362 10.512-1.9785 10.957-20.122 18.417-40.517 16.668-20.395-1.7485-35.329-12.062-33.351-23.019 0.4891-2.7086 1.9641-5.2311 4.2182-7.4264-13.91 4.6004-23.702 12.619-25.455 22.328-3.0869 17.095 19.92 33.072 51.409 35.698 31.489 2.6264 59.534-9.1034 62.621-26.198 2.0072-11.116-7.0399-21.753-22.262-28.564z" fill="#f90"/>
  <path transform="matrix(.83413 .075551 -.19669 1.0892 99.136 27.73)" d="m371.99 127.19c0 7.0434-14.19 12.753-31.694 12.753s-31.694-5.7098-31.694-12.753c0-7.0434 14.19-12.753 31.694-12.753s31.694 5.7098 31.694 12.753z" fill="url(#an)"/>
  <path d="m399.07 195.92c-3.0118 15.791-17.66 19.361-28.249 21.291-17.214 2.655-36.753 0.5172-50.522-14.506-2.1625-2.9994-3.7085-6.9022-3.8578-11.079-5.659 2.9093-14.726 9.5744-11.961 19.013 6.7427 14.852 21.506 17.929 33.528 21.45 22.116 4.7704 46.721 4.1082 66.435-11.024 4.8397-3.7907 7.4413-13.252 2.2364-18.336-2.07-2.7071-5.1401-6.283-7.6102-6.808z" fill="url(#aw)"/>
 </g>
</svg>
