<?xml version="1.0" encoding="UTF-8"?>
<!DOCTYPE svg PUBLIC "-//W3C//DTD SVG 1.1//EN" "http://www.w3.org/Graphics/SVG/1.1/DTD/svg11.dtd">
<svg xmlns="http://www.w3.org/2000/svg" version="1.1" width="240px" height="240px" style="shape-rendering:geometricPrecision; text-rendering:geometricPrecision; image-rendering:optimizeQuality; fill-rule:evenodd; clip-rule:evenodd" xmlns:xlink="http://www.w3.org/1999/xlink">
<g><path style="opacity:1" fill="#525353" d="M 125.5,-0.5 C 128.167,-0.5 130.833,-0.5 133.5,-0.5C 133.614,1.71791 134.28,3.71791 135.5,5.5C 134.965,7.44563 133.632,8.44563 131.5,8.5C 131.5,7.5 131.5,6.5 131.5,5.5C 127.167,5.83333 125.167,3.83333 125.5,-0.5 Z"/></g>
<g><path style="opacity:1" fill="#1f1e1c" d="M 108.5,-0.5 C 114.167,-0.5 119.833,-0.5 125.5,-0.5C 125.167,3.83333 127.167,5.83333 131.5,5.5C 131.5,6.5 131.5,7.5 131.5,8.5C 131.5,8.83333 131.5,9.16667 131.5,9.5C 130.092,10.0614 128.592,10.3948 127,10.5C 116.562,8.88641 106.062,8.21974 95.5,8.5C 95.1192,6.05815 95.7859,5.39149 97.5,6.5C 101.311,5.37358 104.977,4.04025 108.5,2.5C 108.5,1.5 108.5,0.5 108.5,-0.5 Z"/></g>
<g><path style="opacity:1" fill="#453c3d" d="M 102.5,-0.5 C 104.5,-0.5 106.5,-0.5 108.5,-0.5C 108.5,0.5 108.5,1.5 108.5,2.5C 104.977,4.04025 101.311,5.37358 97.5,6.5C 95.7859,5.39149 95.1192,6.05815 95.5,8.5C 106.062,8.21974 116.562,8.88641 127,10.5C 128.592,10.3948 130.092,10.0614 131.5,9.5C 131.611,10.1174 131.944,10.6174 132.5,11C 130.167,11.1667 127.833,11.3333 125.5,11.5C 118.527,10.5722 111.527,9.90552 104.5,9.5C 100.01,9.321 95.6765,9.98767 91.5,11.5C 90.5224,11.0233 89.6891,10.3567 89,9.5C 88.3378,10.9839 87.5045,12.3172 86.5,13.5C 85.2023,10.3717 86.0356,7.70506 89,5.5C 89.772,5.6448 90.4387,5.97814 91,6.5C 91.49,5.20677 91.6567,3.87344 91.5,2.5C 95.2332,1.38738 98.8999,0.387384 102.5,-0.5 Z"/></g>
<g><path style="opacity:1" fill="#a9a0ae" d="M 133.5,-0.5 C 134.5,-0.5 135.5,-0.5 136.5,-0.5C 136.5,-0.166667 136.5,0.166667 136.5,0.5C 138.482,3.81035 140.815,6.81035 143.5,9.5C 140.591,8.57616 137.924,7.24283 135.5,5.5C 134.28,3.71791 133.614,1.71791 133.5,-0.5 Z"/></g>
<g><path style="opacity:1" fill="#cac6c7" d="M 83.5,4.5 C 83.3893,5.11742 83.056,5.61742 82.5,6C 84.1869,7.91304 84.6869,10.0797 84,12.5C 83.1005,10.4839 81.7672,8.81719 80,7.5C 79.4054,8.89888 79.5721,10.2322 80.5,11.5C 80.1667,11.8333 79.8333,12.1667 79.5,12.5C 78.8333,11.5 78.1667,10.5 77.5,9.5C 76.5412,12.1225 74.8745,14.1225 72.5,15.5C 72.1667,14.8333 71.8333,14.1667 71.5,13.5C 71.3691,12.6236 71.7025,11.9569 72.5,11.5C 73.4255,12.6405 74.2588,12.6405 75,11.5C 75.49,10.2068 75.6567,8.87344 75.5,7.5C 77.936,6.12904 80.6027,5.12904 83.5,4.5 Z"/></g>
<g><path style="opacity:1" fill="#877674" d="M 135.5,5.5 C 137.924,7.24283 140.591,8.57616 143.5,9.5C 143.238,10.9778 143.571,12.3112 144.5,13.5C 147.333,16.5043 149.666,19.8376 151.5,23.5C 150.07,23.5792 148.736,23.2458 147.5,22.5C 146.395,20.3886 144.729,19.0553 142.5,18.5C 140.442,17.0669 138.108,16.4003 135.5,16.5C 135.5,15.5 135.5,14.5 135.5,13.5C 131.833,13.5 128.167,13.5 124.5,13.5C 122.5,13.5 120.5,13.5 118.5,13.5C 116.693,12.3852 114.693,11.7186 112.5,11.5C 108.202,12.2965 103.868,12.6299 99.5,12.5C 95.1548,11.6261 90.8214,11.9594 86.5,13.5C 87.5045,12.3172 88.3378,10.9839 89,9.5C 89.6891,10.3567 90.5224,11.0233 91.5,11.5C 95.6765,9.98767 100.01,9.321 104.5,9.5C 111.527,9.90552 118.527,10.5722 125.5,11.5C 127.833,11.3333 130.167,11.1667 132.5,11C 131.944,10.6174 131.611,10.1174 131.5,9.5C 131.5,9.16667 131.5,8.83333 131.5,8.5C 133.632,8.44563 134.965,7.44563 135.5,5.5 Z"/></g>
<g><path style="opacity:1" fill="#b8a6e5" d="M 136.5,0.5 C 152.871,2.28815 167.871,7.62148 181.5,16.5C 177.203,17.5121 172.87,17.5121 168.5,16.5C 168.773,24.8878 168.44,33.2212 167.5,41.5C 165.703,40.2702 163.703,39.6036 161.5,39.5C 159.308,33.9813 155.975,29.3147 151.5,25.5C 151.5,24.8333 151.5,24.1667 151.5,23.5C 149.666,19.8376 147.333,16.5043 144.5,13.5C 143.571,12.3112 143.238,10.9778 143.5,9.5C 140.815,6.81035 138.482,3.81035 136.5,0.5 Z"/></g>
<g><path style="opacity:1" fill="#a794a1" d="M 75.5,7.5 C 75.6567,8.87344 75.49,10.2068 75,11.5C 74.2588,12.6405 73.4255,12.6405 72.5,11.5C 71.7025,11.9569 71.3691,12.6236 71.5,13.5C 71.1949,15.9193 71.1949,18.586 71.5,21.5C 72.5,21.5 73.5,21.5 74.5,21.5C 73.7095,22.4013 72.7095,23.0679 71.5,23.5C 70.2196,22.0687 68.5529,21.4021 66.5,21.5C 66.5,22.5 66.5,23.5 66.5,24.5C 62.9153,25.2657 60.9153,27.5991 60.5,31.5C 60.1667,31.5 59.8333,31.5 59.5,31.5C 60.5117,25.7321 63.3451,21.0654 68,17.5C 68.405,15.2251 67.905,13.2251 66.5,11.5C 69.0884,9.40821 72.0884,8.07488 75.5,7.5 Z"/></g>
<g><path style="opacity:1" fill="#41323a" d="M 71.5,13.5 C 71.8333,14.1667 72.1667,14.8333 72.5,15.5C 72.8333,16.1667 73.1667,16.8333 73.5,17.5C 73.8333,18.8333 74.1667,20.1667 74.5,21.5C 73.5,21.5 72.5,21.5 71.5,21.5C 71.1949,18.586 71.1949,15.9193 71.5,13.5 Z"/></g>
<g><path style="opacity:1" fill="#716766" d="M 74.5,21.5 C 74.1667,20.1667 73.8333,18.8333 73.5,17.5C 74.1174,17.6107 74.6174,17.944 75,18.5C 75.3333,17.1667 75.6667,15.8333 76,14.5C 77.3333,15.8333 78.6667,15.8333 80,14.5C 80.5,15 81,15.5 81.5,16C 79.0672,17.8616 76.7339,19.6949 74.5,21.5 Z"/></g>
<g><path style="opacity:1" fill="#a79795" d="M 91.5,2.5 C 91.6567,3.87344 91.49,5.20677 91,6.5C 90.4387,5.97814 89.772,5.6448 89,5.5C 86.0356,7.70506 85.2023,10.3717 86.5,13.5C 90.8214,11.9594 95.1548,11.6261 99.5,12.5C 99.5,12.8333 99.5,13.1667 99.5,13.5C 91.9701,11.3362 88.3035,14.0029 88.5,21.5C 86.5853,21.2155 84.9187,21.5489 83.5,22.5C 80.1667,22.4999 77.5001,23.8332 75.5,26.5C 73.5466,27.1556 71.5466,27.4889 69.5,27.5C 69.0603,30.7136 67.3937,33.047 64.5,34.5C 65.1667,32.8333 65.8333,31.1667 66.5,29.5C 68.1667,27.5 69.8333,25.5 71.5,23.5C 72.7095,23.0679 73.7095,22.4013 74.5,21.5C 76.7339,19.6949 79.0672,17.8616 81.5,16C 81,15.5 80.5,15 80,14.5C 78.6667,15.8333 77.3333,15.8333 76,14.5C 75.6667,15.8333 75.3333,17.1667 75,18.5C 74.6174,17.944 74.1174,17.6107 73.5,17.5C 73.1667,16.8333 72.8333,16.1667 72.5,15.5C 74.8745,14.1225 76.5412,12.1225 77.5,9.5C 78.1667,10.5 78.8333,11.5 79.5,12.5C 79.8333,12.1667 80.1667,11.8333 80.5,11.5C 79.5721,10.2322 79.4054,8.89888 80,7.5C 81.7672,8.81719 83.1005,10.4839 84,12.5C 84.6869,10.0797 84.1869,7.91304 82.5,6C 83.056,5.61742 83.3893,5.11742 83.5,4.5C 86.0667,3.52498 88.7334,2.85831 91.5,2.5 Z"/></g>
<g><path style="opacity:1" fill="#b9948d" d="M 99.5,13.5 C 99.4606,14.5832 99.1272,15.5832 98.5,16.5C 101.212,17.2281 103.879,18.0615 106.5,19C 107.573,20.3129 108.24,21.8129 108.5,23.5C 107.119,28.7096 105.285,33.7096 103,38.5C 97.9054,39.7072 97.0721,42.3739 100.5,46.5C 98.244,47.4209 97.244,49.0876 97.5,51.5C 94.8127,51.3359 92.146,51.5026 89.5,52C 88.944,52.3826 88.6107,52.8826 88.5,53.5C 88.1667,53.5 87.8333,53.5 87.5,53.5C 85.5,53.5 83.5,53.5 81.5,53.5C 83.9938,51.9909 84.9938,49.6576 84.5,46.5C 84.4043,42.8561 83.7376,39.3561 82.5,36C 83.9047,34.7308 85.5714,34.2308 87.5,34.5C 86.1084,31.9746 86.4418,29.8079 88.5,28C 87.631,25.3455 85.9643,23.5122 83.5,22.5C 84.9187,21.5489 86.5853,21.2155 88.5,21.5C 88.3035,14.0029 91.9701,11.3362 99.5,13.5 Z"/></g>
<g><path style="opacity:1" fill="#44353d" d="M 71.5,23.5 C 69.8333,25.5 68.1667,27.5 66.5,29.5C 66.5654,29.0618 66.3988,28.7284 66,28.5C 64.5123,30.16 62.679,31.16 60.5,31.5C 60.9153,27.5991 62.9153,25.2657 66.5,24.5C 66.5,23.5 66.5,22.5 66.5,21.5C 68.5529,21.4021 70.2196,22.0687 71.5,23.5 Z"/></g>
<g><path style="opacity:1" fill="#806b5f" d="M 142.5,18.5 C 144.729,19.0553 146.395,20.3886 147.5,22.5C 148.736,23.2458 150.07,23.5792 151.5,23.5C 151.5,24.1667 151.5,24.8333 151.5,25.5C 152.478,27.6638 153.478,29.8305 154.5,32C 154.227,33.5328 153.894,35.0328 153.5,36.5C 151.339,36.1742 149.506,35.1742 148,33.5C 146.795,29.6926 144.795,26.3593 142,23.5C 141.616,21.8034 141.782,20.1368 142.5,18.5 Z"/></g>
<g><path style="opacity:1" fill="#ada1e8" d="M 181.5,16.5 C 188.401,20.4019 194.734,25.0685 200.5,30.5C 195.764,30.8853 195.431,32.2186 199.5,34.5C 199.291,35.086 198.957,35.586 198.5,36C 199.561,37.8491 200.227,39.8491 200.5,42C 199.928,50.9515 199.261,60.1182 198.5,69.5C 199.175,72.1778 199.842,74.8445 200.5,77.5C 197.185,71.5534 193.352,65.8867 189,60.5C 182.24,53.5636 175.073,47.2303 167.5,41.5C 168.44,33.2212 168.773,24.8878 168.5,16.5C 172.87,17.5121 177.203,17.5121 181.5,16.5 Z"/></g>
<g><path style="opacity:1" fill="#a9807a" d="M 118.5,13.5 C 115.98,14.2528 113.314,15.2528 110.5,16.5C 114.393,18.9997 118.726,20.1663 123.5,20C 125,21.5 126.5,23 128,24.5C 129,23.1667 130,23.1667 131,24.5C 131.814,26.9018 131.647,29.2351 130.5,31.5C 129.833,30.1667 129.167,28.8333 128.5,27.5C 126.955,29.3945 125.455,31.3945 124,33.5C 122.693,34.7717 121.193,35.7717 119.5,36.5C 122.574,38.7193 123.907,41.7193 123.5,45.5C 126.108,45.6056 128.108,46.7723 129.5,49C 125.321,52.1085 120.654,53.1085 115.5,52C 113.68,49.3605 112.346,46.5271 111.5,43.5C 110.5,43.5 109.5,43.5 108.5,43.5C 108.167,46.1667 107.833,48.8333 107.5,51.5C 101.611,51.4497 95.9438,52.1164 90.5,53.5C 89.8333,53.5 89.1667,53.5 88.5,53.5C 88.6107,52.8826 88.944,52.3826 89.5,52C 92.146,51.5026 94.8127,51.3359 97.5,51.5C 97.244,49.0876 98.244,47.4209 100.5,46.5C 97.0721,42.3739 97.9054,39.7072 103,38.5C 105.285,33.7096 107.119,28.7096 108.5,23.5C 108.24,21.8129 107.573,20.3129 106.5,19C 103.879,18.0615 101.212,17.2281 98.5,16.5C 99.1272,15.5832 99.4606,14.5832 99.5,13.5C 99.5,13.1667 99.5,12.8333 99.5,12.5C 103.868,12.6299 108.202,12.2965 112.5,11.5C 114.693,11.7186 116.693,12.3852 118.5,13.5 Z"/></g>
<g><path style="opacity:1" fill="#ab94a3" d="M 59.5,31.5 C 55.3867,37.7219 52.3867,44.3885 50.5,51.5C 50.7495,44.5864 52.9162,38.253 57,32.5C 57.6708,31.7476 58.5041,31.4142 59.5,31.5 Z"/></g>
<g><path style="opacity:1" fill="#e6c0d6" d="M 66.5,11.5 C 67.905,13.2251 68.405,15.2251 68,17.5C 63.3451,21.0654 60.5117,25.7321 59.5,31.5C 58.5041,31.4142 57.6708,31.7476 57,32.5C 52.9162,38.253 50.7495,44.5864 50.5,51.5C 50.5,56.1667 50.5,60.8333 50.5,65.5C 50.5,67.5 50.5,69.5 50.5,71.5C 49.8333,68.5 49.1667,65.5 48.5,62.5C 46.857,62.5198 45.5237,61.8532 44.5,60.5C 43.3758,66.0251 41.2091,71.0251 38,75.5C 37.6924,74.6919 37.1924,74.0253 36.5,73.5C 33.7877,75.2603 30.7877,75.927 27.5,75.5C 27.5,72.8333 27.5,70.1667 27.5,67.5C 28.8333,67.5 30.1667,67.5 31.5,67.5C 31.5,62.8333 31.5,58.1667 31.5,53.5C 29.2495,53.8186 27.2495,53.3186 25.5,52C 27.1066,50.951 27.7733,49.451 27.5,47.5C 25.7839,47.6287 24.1172,47.962 22.5,48.5C 34.0345,32.4054 48.7012,20.072 66.5,11.5 Z"/></g>
<g><path style="opacity:1" fill="#2c2124" d="M 66.5,29.5 C 65.8333,31.1667 65.1667,32.8333 64.5,34.5C 62.1468,36.8599 60.1468,39.5265 58.5,42.5C 56.6896,45.145 55.6896,48.145 55.5,51.5C 53.9538,56.2328 53.2871,61.2328 53.5,66.5C 53.5617,70.8636 53.895,75.197 54.5,79.5C 54.2528,80.7133 53.5862,81.38 52.5,81.5C 52.5,80.8333 52.5,80.1667 52.5,79.5C 52.0886,74.6616 51.4219,69.9949 50.5,65.5C 50.5,60.8333 50.5,56.1667 50.5,51.5C 52.3867,44.3885 55.3867,37.7219 59.5,31.5C 59.8333,31.5 60.1667,31.5 60.5,31.5C 62.679,31.16 64.5123,30.16 66,28.5C 66.3988,28.7284 66.5654,29.0618 66.5,29.5 Z"/></g>
<g><path style="opacity:1" fill="#a37976" d="M 118.5,13.5 C 120.5,13.5 122.5,13.5 124.5,13.5C 127.424,14.3659 130.424,15.3659 133.5,16.5C 133.023,17.4776 132.357,18.3109 131.5,19C 133.022,21.3051 135.022,22.8051 137.5,23.5C 135.929,32.7735 135.095,42.1069 135,51.5C 129.636,52.1733 124.802,54.0067 120.5,57C 117.802,59.546 117.136,62.3793 118.5,65.5C 121.07,70.4903 122.07,75.8236 121.5,81.5C 120.069,81.1193 119.236,80.1193 119,78.5C 118.064,74.8865 117.564,71.2198 117.5,67.5C 115.833,67.5 114.167,67.5 112.5,67.5C 112.762,66.0222 112.429,64.6888 111.5,63.5C 108.896,67.6772 108.896,71.8438 111.5,76C 109.104,79.8889 107.437,84.0556 106.5,88.5C 104.435,88.5172 102.435,88.8505 100.5,89.5C 100.833,88.8333 101.167,88.1667 101.5,87.5C 102.675,87.719 103.675,87.3857 104.5,86.5C 105.414,84.3359 106.581,82.3359 108,80.5C 108.879,76.5227 108.379,72.8561 106.5,69.5C 106.266,64.8307 107.933,61.1641 111.5,58.5C 112.246,57.2638 112.579,55.9305 112.5,54.5C 105.151,54.4512 97.8174,54.1178 90.5,53.5C 95.9438,52.1164 101.611,51.4497 107.5,51.5C 107.833,48.8333 108.167,46.1667 108.5,43.5C 109.5,43.5 110.5,43.5 111.5,43.5C 112.346,46.5271 113.68,49.3605 115.5,52C 120.654,53.1085 125.321,52.1085 129.5,49C 128.108,46.7723 126.108,45.6056 123.5,45.5C 123.907,41.7193 122.574,38.7193 119.5,36.5C 121.193,35.7717 122.693,34.7717 124,33.5C 125.455,31.3945 126.955,29.3945 128.5,27.5C 129.167,28.8333 129.833,30.1667 130.5,31.5C 131.647,29.2351 131.814,26.9018 131,24.5C 130,23.1667 129,23.1667 128,24.5C 126.5,23 125,21.5 123.5,20C 118.726,20.1663 114.393,18.9997 110.5,16.5C 113.314,15.2528 115.98,14.2528 118.5,13.5 Z"/></g>
<g><path style="opacity:1" fill="#fcfcfc" d="M 161.5,39.5 C 163.703,39.6036 165.703,40.2702 167.5,41.5C 175.073,47.2303 182.24,53.5636 189,60.5C 193.352,65.8867 197.185,71.5534 200.5,77.5C 200.427,79.0269 201.094,80.0269 202.5,80.5C 203.575,85.7251 205.242,90.7251 207.5,95.5C 207.851,98.9032 208.518,102.237 209.5,105.5C 209.666,115.506 209.5,125.506 209,135.5C 206.848,142.116 205.015,148.782 203.5,155.5C 198.253,165.643 191.753,174.977 184,183.5C 183.51,184.793 183.343,186.127 183.5,187.5C 182.167,186.833 180.833,186.167 179.5,185.5C 175.285,181.805 170.618,178.639 165.5,176C 163.024,172.855 160.69,169.688 158.5,166.5C 158.167,165.5 157.5,164.833 156.5,164.5C 156.5,164.167 156.5,163.833 156.5,163.5C 159.622,157.233 161.622,150.566 162.5,143.5C 164.928,133.12 166.094,122.454 166,111.5C 167.484,106.899 168.65,102.232 169.5,97.5C 170.15,95.5648 170.483,93.5648 170.5,91.5C 171.473,89.0521 171.806,86.3854 171.5,83.5C 169.5,83.5 167.5,83.5 165.5,83.5C 165.5,79.5 165.5,75.5 165.5,71.5C 167.727,61.0706 166.727,51.0706 162.5,41.5C 162.167,40.8333 161.833,40.1667 161.5,39.5 Z"/></g>
<g><path style="opacity:1" fill="#8d6865" d="M 124.5,13.5 C 128.167,13.5 131.833,13.5 135.5,13.5C 135.5,14.5 135.5,15.5 135.5,16.5C 138.108,16.4003 140.442,17.0669 142.5,18.5C 141.782,20.1368 141.616,21.8034 142,23.5C 144.795,26.3593 146.795,29.6926 148,33.5C 149.506,35.1742 151.339,36.1742 153.5,36.5C 153.46,41.233 155.127,45.5663 158.5,49.5C 160.123,48.5092 161.123,49.1759 161.5,51.5C 161.12,53.0207 160.954,54.6874 161,56.5C 158.079,54.2879 154.912,52.4545 151.5,51C 150.809,49.9326 150.309,48.7659 150,47.5C 149.691,48.7659 149.191,49.9326 148.5,51C 149.634,52.016 149.301,52.6827 147.5,53C 147.833,53.3333 148.167,53.6667 148.5,54C 145.305,54.1805 142.305,54.6805 139.5,55.5C 137.446,55.3653 135.779,56.032 134.5,57.5C 130.864,58.3255 127.197,58.9922 123.5,59.5C 123.5,60.8333 123.5,62.1667 123.5,63.5C 121.517,63.1568 120.183,63.8235 119.5,65.5C 119.167,65.5 118.833,65.5 118.5,65.5C 117.136,62.3793 117.802,59.546 120.5,57C 124.802,54.0067 129.636,52.1733 135,51.5C 135.095,42.1069 135.929,32.7735 137.5,23.5C 135.022,22.8051 133.022,21.3051 131.5,19C 132.357,18.3109 133.023,17.4776 133.5,16.5C 130.424,15.3659 127.424,14.3659 124.5,13.5 Z"/></g>
<g><path style="opacity:0.996" fill="#efc4d5" d="M 48.5,62.5 C 46.3939,64.7188 45.3939,67.3855 45.5,70.5C 43.6096,70.2965 42.1096,70.9632 41,72.5C 27.5845,99.487 25.9178,127.154 36,155.5C 38.4605,161.083 41.4605,166.416 45,171.5C 45.6708,172.252 46.5041,172.586 47.5,172.5C 46.5433,175.168 44.5433,176.668 41.5,177C 39.2953,179.54 36.7953,181.707 34,183.5C 33.5004,190.158 33.3337,196.825 33.5,203.5C 22.4447,193.072 14.1114,180.738 8.5,166.5C 9.68787,165.316 10.8545,165.316 12,166.5C 13.2933,169.719 14.9599,172.719 17,175.5C 17.227,172.94 18.5603,171.274 21,170.5C 21.3108,168.444 21.8108,166.444 22.5,164.5C 20.314,163.779 18.1474,163.113 16,162.5C 15.5005,156.175 15.3338,149.842 15.5,143.5C 13.1667,143.5 10.8333,143.5 8.5,143.5C 10.0084,136.547 12.0084,129.881 14.5,123.5C 13.5,123.5 12.5,123.5 11.5,123.5C 10.1928,118.933 9.19282,114.267 8.5,109.5C 9.52302,106.135 10.523,102.802 11.5,99.5C 14.1667,99.5 16.8333,99.5 19.5,99.5C 21.1125,93.5319 22.1125,87.3653 22.5,81C 22.7404,78.1088 21.9071,75.6088 20,73.5C 18.7592,75.4206 17.2592,75.754 15.5,74.5C 16.4891,73.5318 17.1557,72.3651 17.5,71C 16.6781,68.5284 16.0114,66.0284 15.5,63.5C 17.5,63.5 19.5,63.5 21.5,63.5C 22.3425,60.846 22.8425,58.1794 23,55.5C 22.3333,56.1667 21.6667,56.8333 21,57.5C 19.6439,56.6198 18.1439,56.2865 16.5,56.5C 18.1468,53.5265 20.1468,50.8599 22.5,48.5C 24.1172,47.962 25.7839,47.6287 27.5,47.5C 27.7733,49.451 27.1066,50.951 25.5,52C 27.2495,53.3186 29.2495,53.8186 31.5,53.5C 31.5,58.1667 31.5,62.8333 31.5,67.5C 30.1667,67.5 28.8333,67.5 27.5,67.5C 27.5,70.1667 27.5,72.8333 27.5,75.5C 30.7877,75.927 33.7877,75.2603 36.5,73.5C 37.1924,74.0253 37.6924,74.6919 38,75.5C 41.2091,71.0251 43.3758,66.0251 44.5,60.5C 45.5237,61.8532 46.857,62.5198 48.5,62.5 Z"/></g>
<g><path style="opacity:1" fill="#815c5c" d="M 87.5,54.5 C 87.5,54.1667 87.5,53.8333 87.5,53.5C 87.8333,53.5 88.1667,53.5 88.5,53.5C 89.1667,53.5 89.8333,53.5 90.5,53.5C 97.8174,54.1178 105.151,54.4512 112.5,54.5C 112.579,55.9305 112.246,57.2638 111.5,58.5C 107.933,61.1641 106.266,64.8307 106.5,69.5C 104.534,66.8433 101.867,65.1767 98.5,64.5C 97.6143,63.675 97.281,62.675 97.5,61.5C 98.8333,61.5 100.167,61.5 101.5,61.5C 101.5,59.5 101.5,57.5 101.5,55.5C 96.8696,54.7705 92.2029,54.4372 87.5,54.5 Z"/></g>
<g><path style="opacity:0.996" fill="#a09aec" d="M 200.5,30.5 C 216.651,45.002 227.984,62.6687 234.5,83.5C 233.883,83.3893 233.383,83.056 233,82.5C 231.092,85.2065 230.259,88.2065 230.5,91.5C 228.833,91.5 227.167,91.5 225.5,91.5C 225.5,92.8333 225.5,94.1667 225.5,95.5C 222.512,95.1547 221.179,96.488 221.5,99.5C 221.833,100.5 222.167,101.5 222.5,102.5C 223.962,101.529 225.295,101.862 226.5,103.5C 226.171,122.159 226.505,140.826 227.5,159.5C 224.881,159.232 222.381,159.565 220,160.5C 219.584,165.204 218.084,169.538 215.5,173.5C 216.754,175.334 217.421,177.334 217.5,179.5C 219.903,179.552 222.236,179.219 224.5,178.5C 221.898,184.053 218.564,189.053 214.5,193.5C 210.217,193.244 208.883,191.244 210.5,187.5C 207.823,185.942 205.323,183.942 203,181.5C 201.374,181.854 199.541,181.854 197.5,181.5C 197.247,179.173 197.914,177.173 199.5,175.5C 201.07,175.306 202.57,175.306 204,175.5C 204.667,172.167 204.667,168.833 204,165.5C 203,162.833 202,162.833 201,165.5C 200.833,164.833 200.667,164.167 200.5,163.5C 202.293,161.573 203.293,159.239 203.5,156.5C 204.5,156.5 205.5,156.5 206.5,156.5C 206.5,154.833 206.5,153.167 206.5,151.5C 206.936,147.015 208.436,143.015 211,139.5C 211.667,130.167 211.667,120.833 211,111.5C 210.809,109.292 210.309,107.292 209.5,105.5C 208.518,102.237 207.851,98.9032 207.5,95.5C 207.656,91.4183 207.156,87.4183 206,83.5C 204.961,82.2899 203.794,81.2899 202.5,80.5C 201.094,80.0269 200.427,79.0269 200.5,77.5C 199.842,74.8445 199.175,72.1778 198.5,69.5C 199.261,60.1182 199.928,50.9515 200.5,42C 200.227,39.8491 199.561,37.8491 198.5,36C 198.957,35.586 199.291,35.086 199.5,34.5C 195.431,32.2186 195.764,30.8853 200.5,30.5 Z"/></g>
<g><path style="opacity:0.989" fill="#f5c5d5" d="M 8.5,166.5 C 4.55195,156.691 1.55195,146.691 -0.5,136.5C -0.5,125.167 -0.5,113.833 -0.5,102.5C 2.37861,86.2038 8.04527,70.8705 16.5,56.5C 18.1439,56.2865 19.6439,56.6198 21,57.5C 21.6667,56.8333 22.3333,56.1667 23,55.5C 22.8425,58.1794 22.3425,60.846 21.5,63.5C 19.5,63.5 17.5,63.5 15.5,63.5C 16.0114,66.0284 16.6781,68.5284 17.5,71C 17.1557,72.3651 16.4891,73.5318 15.5,74.5C 17.2592,75.754 18.7592,75.4206 20,73.5C 21.9071,75.6088 22.7404,78.1088 22.5,81C 22.1125,87.3653 21.1125,93.5319 19.5,99.5C 16.8333,99.5 14.1667,99.5 11.5,99.5C 10.523,102.802 9.52302,106.135 8.5,109.5C 9.19282,114.267 10.1928,118.933 11.5,123.5C 12.5,123.5 13.5,123.5 14.5,123.5C 12.0084,129.881 10.0084,136.547 8.5,143.5C 10.8333,143.5 13.1667,143.5 15.5,143.5C 15.3338,149.842 15.5005,156.175 16,162.5C 18.1474,163.113 20.314,163.779 22.5,164.5C 21.8108,166.444 21.3108,168.444 21,170.5C 18.5603,171.274 17.227,172.94 17,175.5C 14.9599,172.719 13.2933,169.719 12,166.5C 10.8545,165.316 9.68787,165.316 8.5,166.5 Z"/></g>
<g><path style="opacity:1" fill="#9a8183" d="M 58.5,42.5 C 57.0023,57.598 56.0023,72.598 55.5,87.5C 55.5,75.5 55.5,63.5 55.5,51.5C 55.6896,48.145 56.6896,45.145 58.5,42.5 Z"/></g>
<g><path style="opacity:1" fill="#7b6364" d="M 151.5,25.5 C 155.975,29.3147 159.308,33.9813 161.5,39.5C 161.833,40.1667 162.167,40.8333 162.5,41.5C 161.291,43.4346 161.458,45.4346 163,47.5C 163.333,56.8333 163.667,66.1667 164,75.5C 164.21,73.9419 164.71,72.6085 165.5,71.5C 165.5,75.5 165.5,79.5 165.5,83.5C 167.5,83.5 169.5,83.5 171.5,83.5C 171.806,86.3854 171.473,89.0521 170.5,91.5C 170.5,90.1667 170.5,88.8333 170.5,87.5C 170.349,84.2819 169.516,83.9485 168,86.5C 167.692,85.6919 167.192,85.0253 166.5,84.5C 164.253,87.8268 162.753,87.8268 162,84.5C 161.768,85.7375 161.268,86.7375 160.5,87.5C 160.5,83.8333 160.5,80.1667 160.5,76.5C 160.815,72.6286 160.482,68.9619 159.5,65.5C 156.908,63.9639 155.908,61.6305 156.5,58.5C 154.5,58.5 152.5,58.5 150.5,58.5C 150.027,57.0937 149.027,56.427 147.5,56.5C 145.052,55.5269 142.385,55.1936 139.5,55.5C 142.305,54.6805 145.305,54.1805 148.5,54C 148.167,53.6667 147.833,53.3333 147.5,53C 149.301,52.6827 149.634,52.016 148.5,51C 149.191,49.9326 149.691,48.7659 150,47.5C 150.309,48.7659 150.809,49.9326 151.5,51C 154.912,52.4545 158.079,54.2879 161,56.5C 160.954,54.6874 161.12,53.0207 161.5,51.5C 161.123,49.1759 160.123,48.5092 158.5,49.5C 155.127,45.5663 153.46,41.233 153.5,36.5C 153.894,35.0328 154.227,33.5328 154.5,32C 153.478,29.8305 152.478,27.6638 151.5,25.5 Z"/></g>
<g><path style="opacity:1" fill="#6b4746" d="M 134.5,57.5 C 133.032,58.7791 132.365,60.4458 132.5,62.5C 130.194,62.9926 127.861,63.3259 125.5,63.5C 125.5,66.1667 125.5,68.8333 125.5,71.5C 125.167,71.5 124.833,71.5 124.5,71.5C 122.833,69.5 121.167,67.5 119.5,65.5C 120.183,63.8235 121.517,63.1568 123.5,63.5C 123.5,62.1667 123.5,60.8333 123.5,59.5C 127.197,58.9922 130.864,58.3255 134.5,57.5 Z"/></g>
<g><path style="opacity:1" fill="#261a19" d="M 147.5,56.5 C 149.027,56.427 150.027,57.0937 150.5,58.5C 150.804,59.1499 151.137,59.8165 151.5,60.5C 147.075,62.9396 142.408,64.1063 137.5,64C 136.167,61.6667 136.167,59.3333 137.5,57C 140.817,56.5017 144.15,56.335 147.5,56.5 Z"/></g>
<g><path style="opacity:1" fill="#654646" d="M 87.5,54.5 C 92.2029,54.4372 96.8696,54.7705 101.5,55.5C 101.5,57.5 101.5,59.5 101.5,61.5C 100.167,61.5 98.8333,61.5 97.5,61.5C 97.281,62.675 97.6143,63.675 98.5,64.5C 101.867,65.1767 104.534,66.8433 106.5,69.5C 106.975,72.0821 106.308,74.0821 104.5,75.5C 104.756,73.2075 104.423,71.0408 103.5,69C 98.964,67.6211 94.2973,67.1211 89.5,67.5C 86.8325,62.9719 82.8325,61.3053 77.5,62.5C 77.3029,58.1937 79.3029,56.1937 83.5,56.5C 84.8333,55.8333 86.1667,55.1667 87.5,54.5 Z"/></g>
<g><path style="opacity:1" fill="#371c1c" d="M 83.5,56.5 C 86.8599,56.3841 90.1933,56.0508 93.5,55.5C 93.822,57.7224 93.1554,59.5557 91.5,61C 88.5248,61.0435 85.5248,60.8769 82.5,60.5C 82.4326,59.0413 82.7659,57.7079 83.5,56.5 Z"/></g>
<g><path style="opacity:1" fill="#fdfcfc" d="M 48.5,62.5 C 49.1667,65.5 49.8333,68.5 50.5,71.5C 50.4013,74.2372 50.7347,76.9039 51.5,79.5C 51.5,81.8333 51.5,84.1667 51.5,86.5C 44.3664,85.8046 41.6998,88.9713 43.5,96C 43.0098,103.906 45.3431,110.739 50.5,116.5C 50.2627,117.791 50.596,118.791 51.5,119.5C 53.5112,123.03 55.3446,126.697 57,130.5C 57.841,138.546 59.0077,146.546 60.5,154.5C 60.3767,155.925 60.0434,157.258 59.5,158.5C 57.1097,159.891 55.4431,161.891 54.5,164.5C 53.1103,165.899 52.1103,167.566 51.5,169.5C 50.1667,170.5 48.8333,171.5 47.5,172.5C 46.5041,172.586 45.6708,172.252 45,171.5C 41.4605,166.416 38.4605,161.083 36,155.5C 25.9178,127.154 27.5845,99.487 41,72.5C 42.1096,70.9632 43.6096,70.2965 45.5,70.5C 45.3939,67.3855 46.3939,64.7188 48.5,62.5 Z"/></g>
<g><path style="opacity:1" fill="#9c807c" d="M 80.5,53.5 C 80.8333,53.5 81.1667,53.5 81.5,53.5C 83.5,53.5 85.5,53.5 87.5,53.5C 87.5,53.8333 87.5,54.1667 87.5,54.5C 86.1667,55.1667 84.8333,55.8333 83.5,56.5C 79.3029,56.1937 77.3029,58.1937 77.5,62.5C 80.5279,62.7903 82.5279,64.457 83.5,67.5C 83.3764,68.1067 83.0431,68.44 82.5,68.5C 79.4174,65.3562 76.0841,65.0228 72.5,67.5C 72.1667,66.6667 71.8333,65.8333 71.5,65C 73.5906,62.5515 75.2572,59.7182 76.5,56.5C 78.1836,55.8503 79.5169,54.8503 80.5,53.5 Z"/></g>
<g><path style="opacity:1" fill="#483432" d="M 139.5,55.5 C 142.385,55.1936 145.052,55.5269 147.5,56.5C 144.15,56.335 140.817,56.5017 137.5,57C 136.167,59.3333 136.167,61.6667 137.5,64C 142.408,64.1063 147.075,62.9396 151.5,60.5C 151.137,59.8165 150.804,59.1499 150.5,58.5C 152.5,58.5 154.5,58.5 156.5,58.5C 155.908,61.6305 156.908,63.9639 159.5,65.5C 159.657,66.8734 159.49,68.2068 159,69.5C 153.457,65.0312 147.624,64.5312 141.5,68C 143.927,68.9023 146.26,69.7356 148.5,70.5C 142.805,69.8281 137.138,68.8281 131.5,67.5C 130.167,67.8333 128.833,68.1667 127.5,68.5C 126.947,70.7273 126.947,73.0607 127.5,75.5C 126.326,74.4863 125.66,73.153 125.5,71.5C 125.5,68.8333 125.5,66.1667 125.5,63.5C 127.861,63.3259 130.194,62.9926 132.5,62.5C 132.365,60.4458 133.032,58.7791 134.5,57.5C 135.779,56.032 137.446,55.3653 139.5,55.5 Z"/></g>
<g><path style="opacity:1" fill="#352c29" d="M 162.5,41.5 C 166.727,51.0706 167.727,61.0706 165.5,71.5C 164.71,72.6085 164.21,73.9419 164,75.5C 163.667,66.1667 163.333,56.8333 163,47.5C 161.458,45.4346 161.291,43.4346 162.5,41.5 Z"/></g>
<g><path style="opacity:1" fill="#2b1b1a" d="M 148.5,70.5 C 148.842,71.3382 149.508,71.6716 150.5,71.5C 150.269,74.7845 151.603,77.2845 154.5,79C 152.866,79.4935 151.199,79.6602 149.5,79.5C 149.719,78.325 149.386,77.325 148.5,76.5C 147.479,78.188 146.145,79.5213 144.5,80.5C 144.84,78.321 145.84,76.4877 147.5,75C 143.71,73.1895 139.71,72.0229 135.5,71.5C 136.025,70.8076 136.692,70.3076 137.5,70C 132.183,68.7902 128.85,70.6235 127.5,75.5C 126.947,73.0607 126.947,70.7273 127.5,68.5C 128.833,68.1667 130.167,67.8333 131.5,67.5C 137.138,68.8281 142.805,69.8281 148.5,70.5 Z"/></g>
<g><path style="opacity:1" fill="#7d6561" d="M 77.5,62.5 C 82.8325,61.3053 86.8325,62.9719 89.5,67.5C 85.56,66.766 84.2266,68.0993 85.5,71.5C 83.3198,72.1171 81.3198,73.1171 79.5,74.5C 80.325,75.3857 81.325,75.719 82.5,75.5C 82.5,76.5 82.5,77.5 82.5,78.5C 81.8902,79.391 81.5569,80.391 81.5,81.5C 79.3888,80.2584 77.3888,80.2584 75.5,81.5C 75.189,82.4778 74.5223,83.1445 73.5,83.5C 70.6529,74.8477 73.6529,69.8477 82.5,68.5C 83.0431,68.44 83.3764,68.1067 83.5,67.5C 82.5279,64.457 80.5279,62.7903 77.5,62.5 Z"/></g>
<g><path style="opacity:1" fill="#4d4241" d="M 55.5,51.5 C 55.5,63.5 55.5,75.5 55.5,87.5C 54.5,87.5 53.5,87.5 52.5,87.5C 52.5,85.5 52.5,83.5 52.5,81.5C 53.5862,81.38 54.2528,80.7133 54.5,79.5C 53.895,75.197 53.5617,70.8636 53.5,66.5C 53.2871,61.2328 53.9538,56.2328 55.5,51.5 Z"/></g>
<g><path style="opacity:1" fill="#1c1111" d="M 85.5,71.5 C 86.8333,71.5 88.1667,71.5 89.5,71.5C 91.9689,72.6067 92.9689,74.6067 92.5,77.5C 90.0949,80.5167 87.0949,81.1833 83.5,79.5C 83.5,78.8333 83.1667,78.5 82.5,78.5C 82.5,77.5 82.5,76.5 82.5,75.5C 81.325,75.719 80.325,75.3857 79.5,74.5C 81.3198,73.1171 83.3198,72.1171 85.5,71.5 Z"/></g>
<g><path style="opacity:1" fill="#3e2324" d="M 92.5,77.5 C 92.9689,74.6067 91.9689,72.6067 89.5,71.5C 89.5,70.5 89.5,69.5 89.5,68.5C 95.0839,67.9735 99.7506,69.6402 103.5,73.5C 101.287,76.4711 100.287,79.8045 100.5,83.5C 99.5,83.5 98.5,83.5 97.5,83.5C 97.9864,80.2447 96.9864,77.578 94.5,75.5C 93.8182,76.2427 93.1515,76.9094 92.5,77.5 Z"/></g>
<g><path style="opacity:1" fill="#140a0b" d="M 144.5,80.5 C 142.143,80.6633 139.81,80.4966 137.5,80C 136.624,78.414 135.624,76.914 134.5,75.5C 133.996,78.3418 132.329,79.6751 129.5,79.5C 128.833,78.8333 128.167,78.1667 127.5,77.5C 127.5,76.8333 127.5,76.1667 127.5,75.5C 128.85,70.6235 132.183,68.7902 137.5,70C 136.692,70.3076 136.025,70.8076 135.5,71.5C 139.71,72.0229 143.71,73.1895 147.5,75C 145.84,76.4877 144.84,78.321 144.5,80.5 Z"/></g>
<g><path style="opacity:1" fill="#886160" d="M 106.5,69.5 C 108.379,72.8561 108.879,76.5227 108,80.5C 106.581,82.3359 105.414,84.3359 104.5,86.5C 103.675,87.3857 102.675,87.719 101.5,87.5C 102.446,85.8679 103.446,84.2012 104.5,82.5C 103.328,80.1772 103.328,77.8439 104.5,75.5C 106.308,74.0821 106.975,72.0821 106.5,69.5 Z"/></g>
<g><path style="opacity:1" fill="#6e6969" d="M 50.5,65.5 C 51.4219,69.9949 52.0886,74.6616 52.5,79.5C 52.1667,79.5 51.8333,79.5 51.5,79.5C 50.7347,76.9039 50.4013,74.2372 50.5,71.5C 50.5,69.5 50.5,67.5 50.5,65.5 Z"/></g>
<g><path style="opacity:1" fill="#2b1e1d" d="M 144.5,80.5 C 142.975,82.0358 140.975,83.0358 138.5,83.5C 139.246,84.7362 139.579,86.0695 139.5,87.5C 137.167,87.5 134.833,87.5 132.5,87.5C 130.62,85.2446 129.62,82.5779 129.5,79.5C 132.329,79.6751 133.996,78.3418 134.5,75.5C 135.624,76.914 136.624,78.414 137.5,80C 139.81,80.4966 142.143,80.6633 144.5,80.5 Z"/></g>
<g><path style="opacity:1" fill="#624a48" d="M 159.5,65.5 C 160.482,68.9619 160.815,72.6286 160.5,76.5C 159.681,79.3054 159.181,82.3054 159,85.5C 156.955,87.0432 155.455,86.7099 154.5,84.5C 155.117,84.3893 155.617,84.056 156,83.5C 158.104,77.3804 156.271,73.3804 150.5,71.5C 149.508,71.6716 148.842,71.3382 148.5,70.5C 146.26,69.7356 143.927,68.9023 141.5,68C 147.624,64.5312 153.457,65.0312 159,69.5C 159.49,68.2068 159.657,66.8734 159.5,65.5 Z"/></g>
<g><path style="opacity:1" fill="#472f30" d="M 150.5,71.5 C 156.271,73.3804 158.104,77.3804 156,83.5C 155.617,84.056 155.117,84.3893 154.5,84.5C 153.272,83.6935 152.272,82.6935 151.5,81.5C 148.845,81.6586 146.512,82.6586 144.5,84.5C 145.263,85.7193 146.263,86.7193 147.5,87.5C 147.167,87.8333 146.833,88.1667 146.5,88.5C 143.338,89.365 140.338,90.365 137.5,91.5C 135.251,90.9202 133.585,89.5869 132.5,87.5C 134.833,87.5 137.167,87.5 139.5,87.5C 139.579,86.0695 139.246,84.7362 138.5,83.5C 140.975,83.0358 142.975,82.0358 144.5,80.5C 146.145,79.5213 147.479,78.188 148.5,76.5C 149.386,77.325 149.719,78.325 149.5,79.5C 151.199,79.6602 152.866,79.4935 154.5,79C 151.603,77.2845 150.269,74.7845 150.5,71.5 Z"/></g>
<g><path style="opacity:1" fill="#59393a" d="M 89.5,67.5 C 94.2973,67.1211 98.964,67.6211 103.5,69C 104.423,71.0408 104.756,73.2075 104.5,75.5C 103.328,77.8439 103.328,80.1772 104.5,82.5C 103.446,84.2012 102.446,85.8679 101.5,87.5C 97.577,88.2431 93.577,88.2431 89.5,87.5C 90.0468,83.71 88.3801,81.71 84.5,81.5C 83.7025,81.0431 83.3691,80.3764 83.5,79.5C 87.0949,81.1833 90.0949,80.5167 92.5,77.5C 93.1515,76.9094 93.8182,76.2427 94.5,75.5C 96.9864,77.578 97.9864,80.2447 97.5,83.5C 98.5,83.5 99.5,83.5 100.5,83.5C 100.287,79.8045 101.287,76.4711 103.5,73.5C 99.7506,69.6402 95.0839,67.9735 89.5,68.5C 89.5,69.5 89.5,70.5 89.5,71.5C 88.1667,71.5 86.8333,71.5 85.5,71.5C 84.2266,68.0993 85.56,66.766 89.5,67.5 Z"/></g>
<g><path style="opacity:1" fill="#c39895" d="M 121.5,81.5 C 121.966,91.1014 121.299,100.601 119.5,110C 118.824,111.683 117.824,111.85 116.5,110.5C 114.241,107.311 111.241,106.644 107.5,108.5C 106.508,108.672 105.842,108.338 105.5,107.5C 105.167,107.5 104.833,107.5 104.5,107.5C 104.702,105.011 104.202,102.677 103,100.5C 101.989,99.6634 100.822,99.33 99.5,99.5C 100.215,96.0928 100.215,92.7595 99.5,89.5C 99.8333,89.5 100.167,89.5 100.5,89.5C 102.435,88.8505 104.435,88.5172 106.5,88.5C 107.437,84.0556 109.104,79.8889 111.5,76C 108.896,71.8438 108.896,67.6772 111.5,63.5C 112.429,64.6888 112.762,66.0222 112.5,67.5C 114.167,67.5 115.833,67.5 117.5,67.5C 117.564,71.2198 118.064,74.8865 119,78.5C 119.236,80.1193 120.069,81.1193 121.5,81.5 Z"/></g>
<g><path style="opacity:1" fill="#d0a4a3" d="M 105.5,107.5 C 105.5,105.5 105.5,103.5 105.5,101.5C 108.656,101.471 110.322,99.8043 110.5,96.5C 110.013,95.5539 109.68,94.5539 109.5,93.5C 111.248,89.0068 111.915,84.3401 111.5,79.5C 113.5,79.5 115.5,79.5 117.5,79.5C 117.173,87.6121 117.84,95.6121 119.5,103.5C 115.821,103.724 112.154,104.058 108.5,104.5C 108.5,105.5 108.5,106.5 108.5,107.5C 107.5,107.5 106.5,107.5 105.5,107.5 Z"/></g>
<g><path style="opacity:1" fill="#ba9fa2" d="M 51.5,79.5 C 51.8333,79.5 52.1667,79.5 52.5,79.5C 52.5,80.1667 52.5,80.8333 52.5,81.5C 52.5,83.5 52.5,85.5 52.5,87.5C 52.1667,87.5 51.8333,87.5 51.5,87.5C 50.968,89.3908 49.3013,90.7241 46.5,91.5C 45.1987,97.1764 45.3654,102.843 47,108.5C 47.4169,109.756 48.2502,110.423 49.5,110.5C 50.3414,112.379 50.6747,114.379 50.5,116.5C 45.3431,110.739 43.0098,103.906 43.5,96C 41.6998,88.9713 44.3664,85.8046 51.5,86.5C 51.5,84.1667 51.5,81.8333 51.5,79.5 Z"/></g>
<g><path style="opacity:1" fill="#865d5d" d="M 82.5,78.5 C 83.1667,78.5 83.5,78.8333 83.5,79.5C 83.3691,80.3764 83.7025,81.0431 84.5,81.5C 88.3801,81.71 90.0468,83.71 89.5,87.5C 93.577,88.2431 97.577,88.2431 101.5,87.5C 101.167,88.1667 100.833,88.8333 100.5,89.5C 100.167,89.5 99.8333,89.5 99.5,89.5C 95.7569,91.2519 91.7569,92.2519 87.5,92.5C 87.5,91.5 87.5,90.5 87.5,89.5C 86.1667,89.5 84.8333,89.5 83.5,89.5C 83.8928,86.4867 83.2261,83.8201 81.5,81.5C 81.5569,80.391 81.8902,79.391 82.5,78.5 Z"/></g>
<g><path style="opacity:1" fill="#aea8d9" d="M 202.5,80.5 C 203.794,81.2899 204.961,82.2899 206,83.5C 207.156,87.4183 207.656,91.4183 207.5,95.5C 205.242,90.7251 203.575,85.7251 202.5,80.5 Z"/></g>
<g><path style="opacity:1" fill="#512e31" d="M 170.5,87.5 C 170.5,88.8333 170.5,90.1667 170.5,91.5C 170.483,93.5648 170.15,95.5648 169.5,97.5C 167.661,95.367 166.661,92.7004 166.5,89.5C 166.667,88.8333 166.833,88.1667 167,87.5C 168.145,88.6843 169.312,88.6843 170.5,87.5 Z"/></g>
<g><path style="opacity:1" fill="#8b6164" d="M 51.5,87.5 C 51.8333,87.5 52.1667,87.5 52.5,87.5C 53.5,87.5 54.5,87.5 55.5,87.5C 55.5,90.8333 55.5,94.1667 55.5,97.5C 52.7396,96.4729 52.0729,94.6396 53.5,92C 52.5862,90.5936 51.9195,89.0936 51.5,87.5 Z"/></g>
<g><path style="opacity:1" fill="#a57377" d="M 118.5,65.5 C 118.833,65.5 119.167,65.5 119.5,65.5C 121.167,67.5 122.833,69.5 124.5,71.5C 126.106,81.4513 126.939,91.4513 127,101.5C 124.127,106.102 121.627,110.936 119.5,116C 115.86,116.514 112.86,115.348 110.5,112.5C 112.631,111.831 114.631,111.165 116.5,110.5C 117.824,111.85 118.824,111.683 119.5,110C 121.299,100.601 121.966,91.1014 121.5,81.5C 122.07,75.8236 121.07,70.4903 118.5,65.5 Z"/></g>
<g><path style="opacity:1" fill="#ccaea9" d="M 83.5,22.5 C 85.9643,23.5122 87.631,25.3455 88.5,28C 86.4418,29.8079 86.1084,31.9746 87.5,34.5C 85.5714,34.2308 83.9047,34.7308 82.5,36C 83.7376,39.3561 84.4043,42.8561 84.5,46.5C 84.9938,49.6576 83.9938,51.9909 81.5,53.5C 81.1667,53.5 80.8333,53.5 80.5,53.5C 78.712,53.2148 77.0453,53.5481 75.5,54.5C 73.8802,58.0819 71.5469,61.0819 68.5,63.5C 66.7307,74.4231 67.3974,85.0897 70.5,95.5C 74.3667,99.2392 77.0334,103.739 78.5,109C 76.7079,112.438 74.5413,115.605 72,118.5C 70.9914,120.025 70.4914,121.692 70.5,123.5C 69.1667,123.5 67.8333,123.5 66.5,123.5C 67.3983,118.534 66.3983,113.868 63.5,109.5C 61.2573,108.526 58.924,108.192 56.5,108.5C 56.7845,106.585 56.4511,104.919 55.5,103.5C 55.5,101.5 55.5,99.5 55.5,97.5C 55.5,94.1667 55.5,90.8333 55.5,87.5C 56.0023,72.598 57.0023,57.598 58.5,42.5C 60.1468,39.5265 62.1468,36.8599 64.5,34.5C 67.3937,33.047 69.0603,30.7136 69.5,27.5C 71.5466,27.4889 73.5466,27.1556 75.5,26.5C 77.5001,23.8332 80.1667,22.4999 83.5,22.5 Z"/></g>
<g><path style="opacity:1" fill="#b28482" d="M 75.5,81.5 C 77.3888,80.2584 79.3888,80.2584 81.5,81.5C 83.2261,83.8201 83.8928,86.4867 83.5,89.5C 84.8333,89.5 86.1667,89.5 87.5,89.5C 87.5,90.5 87.5,91.5 87.5,92.5C 91.7569,92.2519 95.7569,91.2519 99.5,89.5C 100.215,92.7595 100.215,96.0928 99.5,99.5C 100.822,99.33 101.989,99.6634 103,100.5C 104.202,102.677 104.702,105.011 104.5,107.5C 103.308,101.319 99.9752,99.9853 94.5,103.5C 89.6637,108.555 85.3304,113.888 81.5,119.5C 83.3907,113.777 85.0574,107.943 86.5,102C 84.6055,100.225 82.9389,98.2246 81.5,96C 76.6554,94.4132 73.3221,91.2466 71.5,86.5C 74.5,85.8333 77.5,85.1667 80.5,84.5C 79.6249,82.2275 77.9582,81.2275 75.5,81.5 Z"/></g>
<g><path style="opacity:1" fill="#83615f" d="M 170.5,87.5 C 169.312,88.6843 168.145,88.6843 167,87.5C 166.833,88.1667 166.667,88.8333 166.5,89.5C 166.661,92.7004 167.661,95.367 169.5,97.5C 168.65,102.232 167.484,106.899 166,111.5C 166.094,122.454 164.928,133.12 162.5,143.5C 161.662,143.158 161.328,142.492 161.5,141.5C 162.919,135.586 162.585,129.753 160.5,124C 163.309,117.16 161.309,114.327 154.5,115.5C 149.333,114.887 146.667,111.887 146.5,106.5C 146.529,104.971 147.196,103.804 148.5,103C 147.577,100.959 147.244,98.7925 147.5,96.5C 149.167,96.5 150.833,96.5 152.5,96.5C 152.675,91.0838 155.342,88.0838 160.5,87.5C 161.268,86.7375 161.768,85.7375 162,84.5C 162.753,87.8268 164.253,87.8268 166.5,84.5C 167.192,85.0253 167.692,85.6919 168,86.5C 169.516,83.9485 170.349,84.2819 170.5,87.5 Z"/></g>
<g><path style="opacity:1" fill="#8d545a" d="M 46.5,91.5 C 48.2479,97.461 49.2479,103.794 49.5,110.5C 48.2502,110.423 47.4169,109.756 47,108.5C 45.3654,102.843 45.1987,97.1764 46.5,91.5 Z"/></g>
<g><path style="opacity:1" fill="#a27171" d="M 104.5,107.5 C 104.833,107.5 105.167,107.5 105.5,107.5C 105.842,108.338 106.508,108.672 107.5,108.5C 107.649,109.552 107.483,110.552 107,111.5C 106.282,110.549 105.449,110.383 104.5,111C 104.996,112.996 105.996,114.663 107.5,116C 103.91,117.307 100.41,118.807 97,120.5C 96.1667,120.167 95.3333,119.833 94.5,119.5C 96.7832,114.979 98.4498,110.313 99.5,105.5C 97.8333,105.5 96.1667,105.5 94.5,105.5C 92.9566,112.573 89.1233,118.24 83,122.5C 81.5796,132.086 81.0796,141.753 81.5,151.5C 81.1667,151.5 80.8333,151.5 80.5,151.5C 78.2193,141.816 78.2193,132.149 80.5,122.5C 80.5569,121.391 80.8902,120.391 81.5,119.5C 85.3304,113.888 89.6637,108.555 94.5,103.5C 99.9752,99.9853 103.308,101.319 104.5,107.5 Z"/></g>
<g><path style="opacity:1" fill="#c18e91" d="M 51.5,87.5 C 51.9195,89.0936 52.5862,90.5936 53.5,92C 52.0729,94.6396 52.7396,96.4729 55.5,97.5C 55.5,99.5 55.5,101.5 55.5,103.5C 55.2719,108.297 55.1052,112.963 55,117.5C 53.184,118.743 51.684,118.41 50.5,116.5C 50.6747,114.379 50.3414,112.379 49.5,110.5C 49.2479,103.794 48.2479,97.461 46.5,91.5C 49.3013,90.7241 50.968,89.3908 51.5,87.5 Z"/></g>
<g><path style="opacity:1" fill="#905859" d="M 52.5,99.5 C 53.7943,101.048 54.4609,103.048 54.5,105.5C 53.9265,113.274 52.9265,113.274 51.5,105.5C 51.6718,103.452 52.0051,101.452 52.5,99.5 Z"/></g>
<g><path style="opacity:0.989" fill="#9c97ee" d="M 234.5,83.5 C 236.345,89.8848 238.012,96.2181 239.5,102.5C 239.5,113.833 239.5,125.167 239.5,136.5C 236.9,151.296 231.9,165.296 224.5,178.5C 222.236,179.219 219.903,179.552 217.5,179.5C 217.421,177.334 216.754,175.334 215.5,173.5C 218.084,169.538 219.584,165.204 220,160.5C 222.381,159.565 224.881,159.232 227.5,159.5C 226.505,140.826 226.171,122.159 226.5,103.5C 225.295,101.862 223.962,101.529 222.5,102.5C 222.167,101.5 221.833,100.5 221.5,99.5C 221.179,96.488 222.512,95.1547 225.5,95.5C 225.5,94.1667 225.5,92.8333 225.5,91.5C 227.167,91.5 228.833,91.5 230.5,91.5C 230.259,88.2065 231.092,85.2065 233,82.5C 233.383,83.056 233.883,83.3893 234.5,83.5 Z"/></g>
<g><path style="opacity:1" fill="#795352" d="M 160.5,76.5 C 160.5,80.1667 160.5,83.8333 160.5,87.5C 155.342,88.0838 152.675,91.0838 152.5,96.5C 150.833,96.5 149.167,96.5 147.5,96.5C 147.244,98.7925 147.577,100.959 148.5,103C 147.196,103.804 146.529,104.971 146.5,106.5C 146.667,111.887 149.333,114.887 154.5,115.5C 161.309,114.327 163.309,117.16 160.5,124C 162.585,129.753 162.919,135.586 161.5,141.5C 158.541,141.223 157.874,139.89 159.5,137.5C 158.246,135.666 157.579,133.666 157.5,131.5C 156.5,131.5 155.5,131.5 154.5,131.5C 153.845,125.862 151.178,121.528 146.5,118.5C 145.167,117.5 143.833,116.5 142.5,115.5C 140.617,111.723 139.284,107.723 138.5,103.5C 137.5,103.5 136.5,103.5 135.5,103.5C 135.5,104.833 135.5,106.167 135.5,107.5C 133.856,107.714 132.356,107.38 131,106.5C 129.641,107.365 128.474,108.365 127.5,109.5C 127.569,106.916 128.735,104.916 131,103.5C 131.667,98.8333 131.667,94.1667 131,89.5C 127.903,86.1405 126.736,82.1405 127.5,77.5C 128.167,78.1667 128.833,78.8333 129.5,79.5C 129.62,82.5779 130.62,85.2446 132.5,87.5C 133.585,89.5869 135.251,90.9202 137.5,91.5C 137.611,92.1174 137.944,92.6174 138.5,93C 143.286,94.1584 147.619,93.3251 151.5,90.5C 152.577,87.5258 152.577,84.5258 151.5,81.5C 152.272,82.6935 153.272,83.6935 154.5,84.5C 155.455,86.7099 156.955,87.0432 159,85.5C 159.181,82.3054 159.681,79.3054 160.5,76.5 Z"/></g>
<g><path style="opacity:1" fill="#5b3c3a" d="M 151.5,81.5 C 152.577,84.5258 152.577,87.5258 151.5,90.5C 147.619,93.3251 143.286,94.1584 138.5,93C 137.944,92.6174 137.611,92.1174 137.5,91.5C 140.338,90.365 143.338,89.365 146.5,88.5C 146.833,88.1667 147.167,87.8333 147.5,87.5C 146.263,86.7193 145.263,85.7193 144.5,84.5C 146.512,82.6586 148.845,81.6586 151.5,81.5 Z"/></g>
<g><path style="opacity:1" fill="#623d3c" d="M 142.5,115.5 C 141.74,117.224 141.407,118.89 141.5,120.5C 139.882,118.684 137.882,117.351 135.5,116.5C 134.846,114.885 134.346,113.218 134,111.5C 132.482,111.943 131.315,111.276 130.5,109.5C 129.015,111.852 127.682,114.186 126.5,116.5C 123.875,117.52 122.209,118.854 121.5,120.5C 119.7,120.098 118.033,119.431 116.5,118.5C 113.609,119.403 110.609,119.736 107.5,119.5C 107.895,122.523 106.895,123.523 104.5,122.5C 103.646,123.522 102.646,124.355 101.5,125C 98.8333,125.333 96.1667,125.667 93.5,126C 90.9348,128.08 88.2682,129.913 85.5,131.5C 85.3285,129.508 85.9951,127.842 87.5,126.5C 91.2005,124.32 95.2005,122.82 99.5,122C 100.742,119.339 102.576,118.839 105,120.5C 106.3,119.293 107.8,118.626 109.5,118.5C 109.343,117.127 109.51,115.793 110,114.5C 117.902,121.427 122.402,119.76 123.5,109.5C 124.833,109.5 126.167,109.5 127.5,109.5C 128.474,108.365 129.641,107.365 131,106.5C 132.356,107.38 133.856,107.714 135.5,107.5C 135.5,106.167 135.5,104.833 135.5,103.5C 136.5,103.5 137.5,103.5 138.5,103.5C 139.284,107.723 140.617,111.723 142.5,115.5 Z"/></g>
<g><path style="opacity:1" fill="#b2abe1" d="M 209.5,105.5 C 210.309,107.292 210.809,109.292 211,111.5C 211.667,120.833 211.667,130.167 211,139.5C 208.436,143.015 206.936,147.015 206.5,151.5C 205.5,152.833 204.5,154.167 203.5,155.5C 205.015,148.782 206.848,142.116 209,135.5C 209.5,125.506 209.666,115.506 209.5,105.5 Z"/></g>
<g><path style="opacity:1" fill="#372120" d="M 147.5,139.5 C 145.905,137.889 144.739,135.889 144,133.5C 142.844,138.404 140.844,138.738 138,134.5C 137.501,138.821 137.334,143.154 137.5,147.5C 141.257,147.286 141.924,148.286 139.5,150.5C 138.545,154.984 138.545,159.651 139.5,164.5C 139.145,165.522 138.478,166.189 137.5,166.5C 135.121,165.085 135.121,163.418 137.5,161.5C 136.954,159.865 136.62,158.199 136.5,156.5C 134.833,156.5 133.167,156.5 131.5,156.5C 131.882,153.354 131.882,150.354 131.5,147.5C 132.833,147.5 134.167,147.5 135.5,147.5C 135.307,144.692 134.64,142.025 133.5,139.5C 130.833,139.5 128.167,139.5 125.5,139.5C 124.903,136.509 123.57,133.843 121.5,131.5C 117.704,131.551 114.038,131.551 110.5,131.5C 110.336,128.813 110.503,126.146 111,123.5C 113.165,122.087 114.999,120.421 116.5,118.5C 118.033,119.431 119.7,120.098 121.5,120.5C 122.209,118.854 123.875,117.52 126.5,116.5C 129.55,115.015 131.883,115.848 133.5,119C 137.965,120.149 142.132,121.982 146,124.5C 148.256,129.507 148.756,134.507 147.5,139.5 Z"/></g>
<g><path style="opacity:1" fill="#855a59" d="M 124.5,71.5 C 124.833,71.5 125.167,71.5 125.5,71.5C 125.66,73.153 126.326,74.4863 127.5,75.5C 127.5,76.1667 127.5,76.8333 127.5,77.5C 126.736,82.1405 127.903,86.1405 131,89.5C 131.667,94.1667 131.667,98.8333 131,103.5C 128.735,104.916 127.569,106.916 127.5,109.5C 126.167,109.5 124.833,109.5 123.5,109.5C 122.402,119.76 117.902,121.427 110,114.5C 109.51,115.793 109.343,117.127 109.5,118.5C 107.8,118.626 106.3,119.293 105,120.5C 102.576,118.839 100.742,119.339 99.5,122C 95.2005,122.82 91.2005,124.32 87.5,126.5C 85.9951,127.842 85.3285,129.508 85.5,131.5C 83.6755,137.988 83.0089,144.654 83.5,151.5C 82.8333,151.5 82.1667,151.5 81.5,151.5C 81.0796,141.753 81.5796,132.086 83,122.5C 89.1233,118.24 92.9566,112.573 94.5,105.5C 96.1667,105.5 97.8333,105.5 99.5,105.5C 98.4498,110.313 96.7832,114.979 94.5,119.5C 95.3333,119.833 96.1667,120.167 97,120.5C 100.41,118.807 103.91,117.307 107.5,116C 105.996,114.663 104.996,112.996 104.5,111C 105.449,110.383 106.282,110.549 107,111.5C 107.483,110.552 107.649,109.552 107.5,108.5C 111.241,106.644 114.241,107.311 116.5,110.5C 114.631,111.165 112.631,111.831 110.5,112.5C 112.86,115.348 115.86,116.514 119.5,116C 121.627,110.936 124.127,106.102 127,101.5C 126.939,91.4513 126.106,81.4513 124.5,71.5 Z"/></g>
<g><path style="opacity:1" fill="#4b3230" d="M 142.5,115.5 C 143.833,116.5 145.167,117.5 146.5,118.5C 147.412,120.595 148.579,122.595 150,124.5C 150.5,134.161 150.666,143.828 150.5,153.5C 150.299,157.61 149.299,161.276 147.5,164.5C 148.833,156.167 148.833,147.833 147.5,139.5C 148.756,134.507 148.256,129.507 146,124.5C 142.132,121.982 137.965,120.149 133.5,119C 131.883,115.848 129.55,115.015 126.5,116.5C 127.682,114.186 129.015,111.852 130.5,109.5C 131.315,111.276 132.482,111.943 134,111.5C 134.346,113.218 134.846,114.885 135.5,116.5C 137.882,117.351 139.882,118.684 141.5,120.5C 141.407,118.89 141.74,117.224 142.5,115.5 Z"/></g>
<g><path style="opacity:1" fill="#4f302c" d="M 116.5,118.5 C 114.999,120.421 113.165,122.087 111,123.5C 110.503,126.146 110.336,128.813 110.5,131.5C 109.778,131.918 109.278,132.584 109,133.5C 108.333,130.833 107.667,130.833 107,133.5C 106.692,132.692 106.192,132.025 105.5,131.5C 104.571,132.689 104.238,134.022 104.5,135.5C 101.941,135.198 99.6074,135.532 97.5,136.5C 93.5624,136.687 90.0624,135.687 87,133.5C 85.5179,137.344 84.6845,141.344 84.5,145.5C 84.9878,153.419 84.9878,161.419 84.5,169.5C 83.7595,164.814 83.0928,159.98 82.5,155C 82.9891,153.862 83.3225,152.695 83.5,151.5C 83.0089,144.654 83.6755,137.988 85.5,131.5C 88.2682,129.913 90.9348,128.08 93.5,126C 96.1667,125.667 98.8333,125.333 101.5,125C 102.646,124.355 103.646,123.522 104.5,122.5C 106.895,123.523 107.895,122.523 107.5,119.5C 110.609,119.736 113.609,119.403 116.5,118.5 Z"/></g>
<g><path style="opacity:1" fill="#b5a5a1" d="M 51.5,119.5 C 54.2377,119.851 56.9044,120.518 59.5,121.5C 60.052,130.671 60.8853,140.005 62,149.5C 63.3316,155.386 65.1649,161.052 67.5,166.5C 66.7893,168.842 65.456,169.175 63.5,167.5C 63.2891,163.818 61.9558,160.818 59.5,158.5C 60.0434,157.258 60.3767,155.925 60.5,154.5C 59.0077,146.546 57.841,138.546 57,130.5C 55.3446,126.697 53.5112,123.03 51.5,119.5 Z"/></g>
<g><path style="opacity:1" fill="#573936" d="M 110.5,131.5 C 114.038,131.551 117.704,131.551 121.5,131.5C 123.57,133.843 124.903,136.509 125.5,139.5C 128.167,139.5 130.833,139.5 133.5,139.5C 134.64,142.025 135.307,144.692 135.5,147.5C 134.167,147.5 132.833,147.5 131.5,147.5C 127.827,149.318 123.827,149.984 119.5,149.5C 119.719,150.675 119.386,151.675 118.5,152.5C 117.583,151.873 116.583,151.539 115.5,151.5C 115.5,149.833 115.5,148.167 115.5,146.5C 119.884,146.826 124.217,146.492 128.5,145.5C 129.5,144.667 130.5,143.833 131.5,143C 128.183,142.502 124.85,142.335 121.5,142.5C 117.323,142.071 113.323,141.071 109.5,139.5C 109.649,138.448 109.483,137.448 109,136.5C 106.573,137.781 104.073,138.781 101.5,139.5C 99.5328,139.261 97.6995,139.594 96,140.5C 95.5034,142.81 95.3367,145.143 95.5,147.5C 92.3443,147.529 90.6777,149.196 90.5,152.5C 90.9424,153.739 91.6091,154.739 92.5,155.5C 95.3864,159.337 97.7197,163.337 99.5,167.5C 101.752,168.333 103.919,168.333 106,167.5C 106.469,161.818 106.302,156.152 105.5,150.5C 106.93,150.579 108.264,150.246 109.5,149.5C 110.509,152.337 112.509,153.67 115.5,153.5C 115.592,159.347 118.092,164.013 123,167.5C 123.711,165.633 123.211,164.133 121.5,163C 123.137,161.049 124.637,161.216 126,163.5C 127.119,166.057 127.285,168.557 126.5,171C 125.552,171.483 124.552,171.649 123.5,171.5C 123.5,172.833 123.5,174.167 123.5,175.5C 122.178,175.33 121.011,175.663 120,176.5C 117.704,170.145 116.038,170.145 115,176.5C 113.43,175.386 112.097,174.053 111,172.5C 110.08,174.314 108.58,175.314 106.5,175.5C 101.614,174.019 96.6142,173.186 91.5,173C 91.1667,172.667 90.8333,172.333 90.5,172C 92.1066,170.951 92.7733,169.451 92.5,167.5C 90.8333,167.5 89.1667,167.5 87.5,167.5C 87.5,166.167 87.5,164.833 87.5,163.5C 88.5,163.5 89.5,163.5 90.5,163.5C 90.6641,160.813 90.4974,158.146 90,155.5C 89.5,153.667 88.3333,152.5 86.5,152C 88.7871,150.573 89.1205,148.739 87.5,146.5C 92.1885,144.4 95.5218,141.067 97.5,136.5C 99.6074,135.532 101.941,135.198 104.5,135.5C 104.238,134.022 104.571,132.689 105.5,131.5C 106.192,132.025 106.692,132.692 107,133.5C 107.667,130.833 108.333,130.833 109,133.5C 109.278,132.584 109.778,131.918 110.5,131.5 Z"/></g>
<g><path style="opacity:1" fill="#6b4f50" d="M 146.5,118.5 C 151.178,121.528 153.845,125.862 154.5,131.5C 155.5,131.5 156.5,131.5 157.5,131.5C 157.579,133.666 158.246,135.666 159.5,137.5C 157.874,139.89 158.541,141.223 161.5,141.5C 161.328,142.492 161.662,143.158 162.5,143.5C 161.622,150.566 159.622,157.233 156.5,163.5C 155.058,161.46 154.058,159.127 153.5,156.5C 153.709,155.914 154.043,155.414 154.5,155C 153.099,154.59 151.766,154.09 150.5,153.5C 150.666,143.828 150.5,134.161 150,124.5C 148.579,122.595 147.412,120.595 146.5,118.5 Z"/></g>
<g><path style="opacity:1" fill="#9b7574" d="M 121.5,142.5 C 121.611,143.117 121.944,143.617 122.5,144C 119.089,144.909 115.755,145.909 112.5,147C 107.659,147.769 102.993,147.269 98.5,145.5C 98.5792,144.07 98.2458,142.736 97.5,141.5C 98.9492,140.828 100.282,140.161 101.5,139.5C 104.073,138.781 106.573,137.781 109,136.5C 109.483,137.448 109.649,138.448 109.5,139.5C 113.323,141.071 117.323,142.071 121.5,142.5 Z"/></g>
<g><path style="opacity:1" fill="#77534e" d="M 101.5,139.5 C 100.282,140.161 98.9492,140.828 97.5,141.5C 98.2458,142.736 98.5792,144.07 98.5,145.5C 102.993,147.269 107.659,147.769 112.5,147C 115.755,145.909 119.089,144.909 122.5,144C 121.944,143.617 121.611,143.117 121.5,142.5C 124.85,142.335 128.183,142.502 131.5,143C 130.5,143.833 129.5,144.667 128.5,145.5C 124.217,146.492 119.884,146.826 115.5,146.5C 115.5,148.167 115.5,149.833 115.5,151.5C 115.5,152.167 115.5,152.833 115.5,153.5C 112.509,153.67 110.509,152.337 109.5,149.5C 108.264,150.246 106.93,150.579 105.5,150.5C 106.302,156.152 106.469,161.818 106,167.5C 103.919,168.333 101.752,168.333 99.5,167.5C 100.007,166.141 101.007,165.141 102.5,164.5C 101.906,161.17 101.24,157.836 100.5,154.5C 99.914,154.709 99.414,155.043 99,155.5C 97.872,153.655 97.372,151.655 97.5,149.5C 93.0917,149.062 91.4251,151.062 92.5,155.5C 91.6091,154.739 90.9424,153.739 90.5,152.5C 90.6777,149.196 92.3443,147.529 95.5,147.5C 95.3367,145.143 95.5034,142.81 96,140.5C 97.6995,139.594 99.5328,139.261 101.5,139.5 Z"/></g>
<g><path style="opacity:1" fill="#bd9d98" d="M 80.5,53.5 C 79.5169,54.8503 78.1836,55.8503 76.5,56.5C 75.2572,59.7182 73.5906,62.5515 71.5,65C 71.8333,65.8333 72.1667,66.6667 72.5,67.5C 76.0841,65.0228 79.4174,65.3562 82.5,68.5C 73.6529,69.8477 70.6529,74.8477 73.5,83.5C 74.5223,83.1445 75.189,82.4778 75.5,81.5C 77.9582,81.2275 79.6249,82.2275 80.5,84.5C 77.5,85.1667 74.5,85.8333 71.5,86.5C 73.3221,91.2466 76.6554,94.4132 81.5,96C 82.9389,98.2246 84.6055,100.225 86.5,102C 85.0574,107.943 83.3907,113.777 81.5,119.5C 80.8902,120.391 80.5569,121.391 80.5,122.5C 79.1779,122.33 78.0113,122.663 77,123.5C 76.1785,126.117 75.6785,128.784 75.5,131.5C 73.4086,131.318 71.4086,131.652 69.5,132.5C 68.4614,136.105 67.7947,139.772 67.5,143.5C 65.6536,143.222 64.3202,143.889 63.5,145.5C 64.8613,147.028 66.028,148.695 67,150.5C 66.9206,155.153 68.0873,159.32 70.5,163C 70.0222,164.642 69.0222,165.809 67.5,166.5C 65.1649,161.052 63.3316,155.386 62,149.5C 60.8853,140.005 60.052,130.671 59.5,121.5C 56.9044,120.518 54.2377,119.851 51.5,119.5C 50.596,118.791 50.2627,117.791 50.5,116.5C 51.684,118.41 53.184,118.743 55,117.5C 55.1052,112.963 55.2719,108.297 55.5,103.5C 56.4511,104.919 56.7845,106.585 56.5,108.5C 58.924,108.192 61.2573,108.526 63.5,109.5C 66.3983,113.868 67.3983,118.534 66.5,123.5C 67.8333,123.5 69.1667,123.5 70.5,123.5C 70.4914,121.692 70.9914,120.025 72,118.5C 74.5413,115.605 76.7079,112.438 78.5,109C 77.0334,103.739 74.3667,99.2392 70.5,95.5C 67.3974,85.0897 66.7307,74.4231 68.5,63.5C 71.5469,61.0819 73.8802,58.0819 75.5,54.5C 77.0453,53.5481 78.712,53.2148 80.5,53.5 Z"/></g>
<g><path style="opacity:1" fill="#2b1a19" d="M 147.5,139.5 C 148.833,147.833 148.833,156.167 147.5,164.5C 147.5,166.167 147.5,167.833 147.5,169.5C 146.167,169.5 144.833,169.5 143.5,169.5C 143.045,173.957 142.045,178.29 140.5,182.5C 138.254,183.21 135.92,183.71 133.5,184C 132.072,186.185 130.405,188.185 128.5,190C 122.175,190.5 115.842,190.666 109.5,190.5C 107.698,189.542 105.698,188.875 103.5,188.5C 100.482,187.438 97.4819,186.271 94.5,185C 93.1772,184.184 92.5106,183.017 92.5,181.5C 91.4884,180.128 90.4884,178.795 89.5,177.5C 89.3932,175.621 89.8932,175.288 91,176.5C 92.3528,175.296 94.0194,174.629 96,174.5C 100.258,173.593 102.091,175.259 101.5,179.5C 107.045,178.94 112.045,180.273 116.5,183.5C 117.167,182.167 117.833,180.833 118.5,179.5C 119.328,180.415 120.328,181.081 121.5,181.5C 123.453,180.844 125.453,180.511 127.5,180.5C 126.979,176.281 128.146,172.614 131,169.5C 131.333,169.833 131.667,170.167 132,170.5C 132.483,169.552 132.649,168.552 132.5,167.5C 134.415,167.784 136.081,167.451 137.5,166.5C 138.478,166.189 139.145,165.522 139.5,164.5C 138.545,159.651 138.545,154.984 139.5,150.5C 141.924,148.286 141.257,147.286 137.5,147.5C 137.334,143.154 137.501,138.821 138,134.5C 140.844,138.738 142.844,138.404 144,133.5C 144.739,135.889 145.905,137.889 147.5,139.5 Z"/></g>
<g><path style="opacity:1" fill="#9e8077" d="M 80.5,151.5 C 82.0393,157.972 82.8727,164.639 83,171.5C 84.3292,173.985 85.8292,176.319 87.5,178.5C 87.8039,179.15 88.1373,179.817 88.5,180.5C 86.322,181.657 84.322,182.99 82.5,184.5C 83.5775,186.85 85.2441,188.517 87.5,189.5C 86.7822,191.137 86.6155,192.803 87,194.5C 89.0176,196.35 90.8509,198.35 92.5,200.5C 92,200.833 91.5,201.167 91,201.5C 87.8725,200.796 84.7058,200.296 81.5,200C 76.7466,196.292 73.0799,191.792 70.5,186.5C 71.2685,184.333 72.2685,182.166 73.5,180C 70.5799,175.632 69.7466,170.799 71,165.5C 71.9246,164.953 72.7579,164.287 73.5,163.5C 69.7022,157.326 71.3688,154.659 78.5,155.5C 78.1568,153.517 78.8235,152.183 80.5,151.5 Z"/></g>
<g><path style="opacity:1" fill="#ae8d87" d="M 80.5,122.5 C 78.2193,132.149 78.2193,141.816 80.5,151.5C 78.8235,152.183 78.1568,153.517 78.5,155.5C 71.3688,154.659 69.7022,157.326 73.5,163.5C 72.7579,164.287 71.9246,164.953 71,165.5C 69.7466,170.799 70.5799,175.632 73.5,180C 72.2685,182.166 71.2685,184.333 70.5,186.5C 68.31,185.626 67.31,183.959 67.5,181.5C 66.1667,181.5 64.8333,181.5 63.5,181.5C 63.5,176.833 63.5,172.167 63.5,167.5C 65.456,169.175 66.7893,168.842 67.5,166.5C 69.0222,165.809 70.0222,164.642 70.5,163C 68.0873,159.32 66.9206,155.153 67,150.5C 66.028,148.695 64.8613,147.028 63.5,145.5C 64.3202,143.889 65.6536,143.222 67.5,143.5C 67.7947,139.772 68.4614,136.105 69.5,132.5C 71.4086,131.652 73.4086,131.318 75.5,131.5C 75.6785,128.784 76.1785,126.117 77,123.5C 78.0113,122.663 79.1779,122.33 80.5,122.5 Z"/></g>
<g><path style="opacity:1" fill="#6a524b" d="M 80.5,151.5 C 80.8333,151.5 81.1667,151.5 81.5,151.5C 82.1667,151.5 82.8333,151.5 83.5,151.5C 83.3225,152.695 82.9891,153.862 82.5,155C 83.0928,159.98 83.7595,164.814 84.5,169.5C 85.6693,172.511 87.336,175.178 89.5,177.5C 90.4884,178.795 91.4884,180.128 92.5,181.5C 90.6458,180.759 88.9791,179.759 87.5,178.5C 85.8292,176.319 84.3292,173.985 83,171.5C 82.8727,164.639 82.0393,157.972 80.5,151.5 Z"/></g>
<g><path style="opacity:1" fill="#3f2924" d="M 97.5,136.5 C 95.5218,141.067 92.1885,144.4 87.5,146.5C 89.1205,148.739 88.7871,150.573 86.5,152C 88.3333,152.5 89.5,153.667 90,155.5C 90.4974,158.146 90.6641,160.813 90.5,163.5C 89.5,163.5 88.5,163.5 87.5,163.5C 87.5,164.833 87.5,166.167 87.5,167.5C 89.1667,167.5 90.8333,167.5 92.5,167.5C 92.7733,169.451 92.1066,170.951 90.5,172C 90.8333,172.333 91.1667,172.667 91.5,173C 96.6142,173.186 101.614,174.019 106.5,175.5C 108.58,175.314 110.08,174.314 111,172.5C 112.097,174.053 113.43,175.386 115,176.5C 116.038,170.145 117.704,170.145 120,176.5C 121.011,175.663 122.178,175.33 123.5,175.5C 123.5,174.167 123.5,172.833 123.5,171.5C 124.552,171.649 125.552,171.483 126.5,171C 127.285,168.557 127.119,166.057 126,163.5C 124.637,161.216 123.137,161.049 121.5,163C 123.211,164.133 123.711,165.633 123,167.5C 118.092,164.013 115.592,159.347 115.5,153.5C 115.5,152.833 115.5,152.167 115.5,151.5C 116.583,151.539 117.583,151.873 118.5,152.5C 119.386,151.675 119.719,150.675 119.5,149.5C 123.827,149.984 127.827,149.318 131.5,147.5C 131.882,150.354 131.882,153.354 131.5,156.5C 133.167,156.5 134.833,156.5 136.5,156.5C 136.62,158.199 136.954,159.865 137.5,161.5C 135.121,163.418 135.121,165.085 137.5,166.5C 136.081,167.451 134.415,167.784 132.5,167.5C 132.649,168.552 132.483,169.552 132,170.5C 131.667,170.167 131.333,169.833 131,169.5C 128.146,172.614 126.979,176.281 127.5,180.5C 125.453,180.511 123.453,180.844 121.5,181.5C 120.328,181.081 119.328,180.415 118.5,179.5C 117.833,180.833 117.167,182.167 116.5,183.5C 112.045,180.273 107.045,178.94 101.5,179.5C 102.091,175.259 100.258,173.593 96,174.5C 94.0194,174.629 92.3528,175.296 91,176.5C 89.8932,175.288 89.3932,175.621 89.5,177.5C 87.336,175.178 85.6693,172.511 84.5,169.5C 84.9878,161.419 84.9878,153.419 84.5,145.5C 84.6845,141.344 85.5179,137.344 87,133.5C 90.0624,135.687 93.5624,136.687 97.5,136.5 Z"/></g>
<g><path style="opacity:1" fill="#8b635e" d="M 99.5,167.5 C 97.7197,163.337 95.3864,159.337 92.5,155.5C 91.4251,151.062 93.0917,149.062 97.5,149.5C 97.372,151.655 97.872,153.655 99,155.5C 99.414,155.043 99.914,154.709 100.5,154.5C 101.24,157.836 101.906,161.17 102.5,164.5C 101.007,165.141 100.007,166.141 99.5,167.5 Z"/></g>
<g><path style="opacity:1" fill="#5e4742" d="M 150.5,153.5 C 151.766,154.09 153.099,154.59 154.5,155C 154.043,155.414 153.709,155.914 153.5,156.5C 154.058,159.127 155.058,161.46 156.5,163.5C 156.5,163.833 156.5,164.167 156.5,164.5C 155.531,166.663 154.698,168.996 154,171.5C 153.5,180.827 153.334,190.161 153.5,199.5C 152.504,199.414 151.671,199.748 151,200.5C 150.821,203.553 150.321,206.553 149.5,209.5C 146.804,210.851 144.47,212.684 142.5,215C 141.552,215.483 140.552,215.649 139.5,215.5C 139.328,214.508 139.662,213.842 140.5,213.5C 141.942,211.46 142.942,209.127 143.5,206.5C 143.833,206.167 144.167,205.833 144.5,205.5C 145.167,206.167 145.833,206.833 146.5,207.5C 147.491,203.555 147.824,199.555 147.5,195.5C 144.136,194.789 141.803,195.956 140.5,199C 137.522,199.696 134.522,200.196 131.5,200.5C 131.5,199.167 131.5,197.833 131.5,196.5C 128.186,197.873 124.686,198.873 121,199.5C 118.431,199.467 116.597,198.3 115.5,196C 113.19,195.503 110.857,195.337 108.5,195.5C 106.951,193.178 105.285,190.845 103.5,188.5C 105.698,188.875 107.698,189.542 109.5,190.5C 110.091,191.151 110.757,191.818 111.5,192.5C 117.143,193.607 122.809,194.607 128.5,195.5C 135.388,193.62 139.388,189.287 140.5,182.5C 142.045,178.29 143.045,173.957 143.5,169.5C 144.833,169.5 146.167,169.5 147.5,169.5C 147.5,167.833 147.5,166.167 147.5,164.5C 149.299,161.276 150.299,157.61 150.5,153.5 Z"/></g>
<g><path style="opacity:1" fill="#a79de5" d="M 206.5,151.5 C 206.5,153.167 206.5,154.833 206.5,156.5C 205.5,156.5 204.5,156.5 203.5,156.5C 203.293,159.239 202.293,161.573 200.5,163.5C 200.667,164.167 200.833,164.833 201,165.5C 202,162.833 203,162.833 204,165.5C 204.667,168.833 204.667,172.167 204,175.5C 202.57,175.306 201.07,175.306 199.5,175.5C 197.914,177.173 197.247,179.173 197.5,181.5C 199.541,181.854 201.374,181.854 203,181.5C 205.323,183.942 207.823,185.942 210.5,187.5C 208.883,191.244 210.217,193.244 214.5,193.5C 209.167,200.833 202.833,207.167 195.5,212.5C 195.828,207.125 195.495,201.792 194.5,196.5C 190.212,194.199 186.545,191.199 183.5,187.5C 183.343,186.127 183.51,184.793 184,183.5C 191.753,174.977 198.253,165.643 203.5,155.5C 204.5,154.167 205.5,152.833 206.5,151.5 Z"/></g>
<g><path style="opacity:1" fill="#1b1c20" d="M 179.5,185.5 C 180.833,186.167 182.167,186.833 183.5,187.5C 186.545,191.199 190.212,194.199 194.5,196.5C 195.495,201.792 195.828,207.125 195.5,212.5C 181.506,224.996 165.172,232.996 146.5,236.5C 146.952,233.797 147.619,231.13 148.5,228.5C 152.975,222.244 157.475,215.911 162,209.5C 162.333,209.833 162.667,210.167 163,210.5C 163.483,209.552 163.649,208.552 163.5,207.5C 164.978,207.762 166.311,207.429 167.5,206.5C 168.188,202.791 169.688,199.457 172,196.5C 172.72,194.888 172.554,193.388 171.5,192C 173.037,190.89 173.703,189.39 173.5,187.5C 175.898,187.741 177.898,187.074 179.5,185.5 Z"/></g>
<g><path style="opacity:1" fill="#4a3835" d="M 140.5,182.5 C 139.388,189.287 135.388,193.62 128.5,195.5C 122.809,194.607 117.143,193.607 111.5,192.5C 110.757,191.818 110.091,191.151 109.5,190.5C 115.842,190.666 122.175,190.5 128.5,190C 130.405,188.185 132.072,186.185 133.5,184C 135.92,183.71 138.254,183.21 140.5,182.5 Z"/></g>
<g><path style="opacity:1" fill="#2e3439" d="M 51.5,169.5 C 49.9706,173.988 49.3039,178.654 49.5,183.5C 49.7918,189.852 50.1252,196.019 50.5,202C 49.3842,204.406 48.3842,206.906 47.5,209.5C 48.7704,213.272 51.2704,215.939 55,217.5C 55.6272,219.927 56.7938,221.927 58.5,223.5C 48.9879,218.323 40.6546,211.656 33.5,203.5C 33.3337,196.825 33.5004,190.158 34,183.5C 36.7953,181.707 39.2953,179.54 41.5,177C 44.5433,176.668 46.5433,175.168 47.5,172.5C 48.8333,171.5 50.1667,170.5 51.5,169.5 Z"/></g>
<g><path style="opacity:1" fill="#7f6763" d="M 87.5,178.5 C 88.9791,179.759 90.6458,180.759 92.5,181.5C 92.5106,183.017 93.1772,184.184 94.5,185C 97.4819,186.271 100.482,187.438 103.5,188.5C 105.285,190.845 106.951,193.178 108.5,195.5C 108.833,196.833 109.167,198.167 109.5,199.5C 105.818,199.665 102.152,199.499 98.5,199C 96.1547,197.217 93.488,196.217 90.5,196C 90.0504,193.467 89.0504,191.3 87.5,189.5C 85.2441,188.517 83.5775,186.85 82.5,184.5C 84.322,182.99 86.322,181.657 88.5,180.5C 88.1373,179.817 87.8039,179.15 87.5,178.5 Z"/></g>
<g><path style="opacity:1" fill="#6f5750" d="M 108.5,195.5 C 110.857,195.337 113.19,195.503 115.5,196C 116.597,198.3 118.431,199.467 121,199.5C 124.686,198.873 128.186,197.873 131.5,196.5C 131.5,197.833 131.5,199.167 131.5,200.5C 134.522,200.196 137.522,199.696 140.5,199C 141.803,195.956 144.136,194.789 147.5,195.5C 147.824,199.555 147.491,203.555 146.5,207.5C 145.833,206.833 145.167,206.167 144.5,205.5C 144.167,205.833 143.833,206.167 143.5,206.5C 142.942,209.127 141.942,211.46 140.5,213.5C 140.54,210.119 140.207,206.786 139.5,203.5C 136.753,203.187 134.086,203.52 131.5,204.5C 128.319,207.925 124.319,209.259 119.5,208.5C 119.663,206.143 119.497,203.81 119,201.5C 116.564,200.645 114.064,199.979 111.5,199.5C 110.833,199.5 110.167,199.5 109.5,199.5C 109.167,198.167 108.833,196.833 108.5,195.5 Z"/></g>
<g><path style="opacity:1" fill="#121315" d="M 158.5,166.5 C 160.69,169.688 163.024,172.855 165.5,176C 170.618,178.639 175.285,181.805 179.5,185.5C 177.898,187.074 175.898,187.741 173.5,187.5C 173.703,189.39 173.037,190.89 171.5,192C 172.554,193.388 172.72,194.888 172,196.5C 169.688,199.457 168.188,202.791 167.5,206.5C 166.311,207.429 164.978,207.762 163.5,207.5C 163.649,208.552 163.483,209.552 163,210.5C 162.667,210.167 162.333,209.833 162,209.5C 157.475,215.911 152.975,222.244 148.5,228.5C 147.619,231.13 146.952,233.797 146.5,236.5C 144.001,236.516 141.335,236.183 138.5,235.5C 138.546,232.908 139.546,230.741 141.5,229C 140.496,227.202 139.996,225.368 140,223.5C 146.3,222.603 151.134,219.103 154.5,213C 152.053,211.771 151.887,210.271 154,208.5C 154.805,210.901 155.638,210.734 156.5,208C 157.448,207.517 158.448,207.351 159.5,207.5C 159.154,204.398 159.821,201.565 161.5,199C 159.459,197.758 158.293,195.925 158,193.5C 157.781,194.938 157.281,196.271 156.5,197.5C 156.167,195.5 155.833,193.5 155.5,191.5C 156.111,183.507 156.611,175.507 157,167.5C 157.383,166.944 157.883,166.611 158.5,166.5 Z"/></g>
<g><path style="opacity:1" fill="#8a6f63" d="M 63.5,181.5 C 64.8333,181.5 66.1667,181.5 67.5,181.5C 67.31,183.959 68.31,185.626 70.5,186.5C 73.0799,191.792 76.7466,196.292 81.5,200C 84.7058,200.296 87.8725,200.796 91,201.5C 91.5,201.167 92,200.833 92.5,200.5C 90.8509,198.35 89.0176,196.35 87,194.5C 86.6155,192.803 86.7822,191.137 87.5,189.5C 89.0504,191.3 90.0504,193.467 90.5,196C 93.488,196.217 96.1547,197.217 98.5,199C 102.152,199.499 105.818,199.665 109.5,199.5C 110.167,199.5 110.833,199.5 111.5,199.5C 112.287,201.104 113.62,201.771 115.5,201.5C 115.793,205.437 115.46,209.27 114.5,213C 108.953,214.69 103.453,216.523 98,218.5C 97.0546,218.095 96.3879,217.428 96,216.5C 95.4387,217.022 94.772,217.355 94,217.5C 91.7903,215.889 89.2903,215.222 86.5,215.5C 86.7022,213.011 86.2022,210.677 85,208.5C 79.111,204.837 74.9443,199.837 72.5,193.5C 71.914,193.709 71.414,194.043 71,194.5C 70.6667,193.167 70.3333,191.833 70,190.5C 69.3292,189.748 68.4959,189.414 67.5,189.5C 66.7321,188.737 66.2321,187.737 66,186.5C 65.3292,185.748 64.4959,185.414 63.5,185.5C 63.5,184.167 63.5,182.833 63.5,181.5 Z"/></g>
<g><path style="opacity:1" fill="#876f60" d="M 135.5,217.5 C 132.937,218.088 130.604,219.088 128.5,220.5C 124.215,221.295 119.881,221.628 115.5,221.5C 115.611,220.883 115.944,220.383 116.5,220C 114.579,219.64 112.912,218.806 111.5,217.5C 113.323,216.509 114.823,215.176 116,213.5C 120.004,216.612 122.171,215.612 122.5,210.5C 125.203,210.045 127.87,209.378 130.5,208.5C 136.074,209.315 137.741,212.315 135.5,217.5 Z"/></g>
<g><path style="opacity:1" fill="#644a44" d="M 63.5,185.5 C 64.4959,185.414 65.3292,185.748 66,186.5C 66.2321,187.737 66.7321,188.737 67.5,189.5C 68.2276,192.079 68.7276,194.746 69,197.5C 77.2842,203.265 83.4508,210.598 87.5,219.5C 84.9205,218.772 82.2538,218.272 79.5,218C 74.5703,213.084 71.4036,207.25 70,200.5C 67.3328,198.552 65.8328,195.885 65.5,192.5C 65.0431,191.702 64.3764,191.369 63.5,191.5C 63.5,189.5 63.5,187.5 63.5,185.5 Z"/></g>
<g><path style="opacity:1" fill="#3c2e29" d="M 153.5,199.5 C 153.025,204.112 151.692,208.445 149.5,212.5C 143.178,217.151 136.178,219.817 128.5,220.5C 130.604,219.088 132.937,218.088 135.5,217.5C 137.062,217.267 138.395,216.6 139.5,215.5C 140.552,215.649 141.552,215.483 142.5,215C 144.47,212.684 146.804,210.851 149.5,209.5C 150.321,206.553 150.821,203.553 151,200.5C 151.671,199.748 152.504,199.414 153.5,199.5 Z"/></g>
<g><path style="opacity:1" fill="#3d2b27" d="M 63.5,191.5 C 64.3764,191.369 65.0431,191.702 65.5,192.5C 65.8328,195.885 67.3328,198.552 70,200.5C 71.4036,207.25 74.5703,213.084 79.5,218C 82.2538,218.272 84.9205,218.772 87.5,219.5C 89.5,220.167 91.5,220.833 93.5,221.5C 93.5,221.833 93.5,222.167 93.5,222.5C 88.7451,220.645 83.7451,219.478 78.5,219C 76.6499,216.982 74.6499,215.149 72.5,213.5C 69.956,207.41 67.1227,201.41 64,195.5C 63.51,194.207 63.3433,192.873 63.5,191.5 Z"/></g>
<g><path style="opacity:1" fill="#7e655b" d="M 67.5,189.5 C 68.4959,189.414 69.3292,189.748 70,190.5C 70.3333,191.833 70.6667,193.167 71,194.5C 71.414,194.043 71.914,193.709 72.5,193.5C 74.9443,199.837 79.111,204.837 85,208.5C 86.2022,210.677 86.7022,213.011 86.5,215.5C 89.2903,215.222 91.7903,215.889 94,217.5C 94.772,217.355 95.4387,217.022 96,216.5C 96.3879,217.428 97.0546,218.095 98,218.5C 103.453,216.523 108.953,214.69 114.5,213C 115.46,209.27 115.793,205.437 115.5,201.5C 113.62,201.771 112.287,201.104 111.5,199.5C 114.064,199.979 116.564,200.645 119,201.5C 119.497,203.81 119.663,206.143 119.5,208.5C 124.319,209.259 128.319,207.925 131.5,204.5C 134.086,203.52 136.753,203.187 139.5,203.5C 140.207,206.786 140.54,210.119 140.5,213.5C 139.662,213.842 139.328,214.508 139.5,215.5C 138.395,216.6 137.062,217.267 135.5,217.5C 137.741,212.315 136.074,209.315 130.5,208.5C 127.87,209.378 125.203,210.045 122.5,210.5C 122.171,215.612 120.004,216.612 116,213.5C 114.823,215.176 113.323,216.509 111.5,217.5C 112.912,218.806 114.579,219.64 116.5,220C 115.944,220.383 115.611,220.883 115.5,221.5C 108.167,221.5 100.833,221.5 93.5,221.5C 91.5,220.833 89.5,220.167 87.5,219.5C 83.4508,210.598 77.2842,203.265 69,197.5C 68.7276,194.746 68.2276,192.079 67.5,189.5 Z"/></g>
<g><path style="opacity:1" fill="#1f2024" d="M 54.5,164.5 C 55.278,166.225 55.6114,167.891 55.5,169.5C 54.9747,170.192 54.3081,170.692 53.5,171C 54.5982,173.498 54.4316,175.998 53,178.5C 52.3457,177.304 51.8457,177.304 51.5,178.5C 54.4477,187.508 57.2811,196.508 60,205.5C 61.4314,209.108 63.2647,211.775 65.5,213.5C 64.3887,214.611 63.722,215.945 63.5,217.5C 64.7899,219.792 66.4565,221.792 68.5,223.5C 69.1667,222.167 69.8333,220.833 70.5,219.5C 72.3641,222.592 73.5307,225.926 74,229.5C 77.3498,226.884 80.1831,227.55 82.5,231.5C 83.086,231.291 83.586,230.957 84,230.5C 84.7848,232.249 85.6182,233.916 86.5,235.5C 76.6676,232.582 67.3343,228.582 58.5,223.5C 56.7938,221.927 55.6272,219.927 55,217.5C 51.2704,215.939 48.7704,213.272 47.5,209.5C 48.3842,206.906 49.3842,204.406 50.5,202C 50.1252,196.019 49.7918,189.852 49.5,183.5C 49.3039,178.654 49.9706,173.988 51.5,169.5C 52.1103,167.566 53.1103,165.899 54.5,164.5 Z"/></g>
<g><path style="opacity:1" fill="#1b1716" d="M 156.5,164.5 C 157.5,164.833 158.167,165.5 158.5,166.5C 157.883,166.611 157.383,166.944 157,167.5C 156.611,175.507 156.111,183.507 155.5,191.5C 155.833,193.5 156.167,195.5 156.5,197.5C 157.281,196.271 157.781,194.938 158,193.5C 158.293,195.925 159.459,197.758 161.5,199C 159.821,201.565 159.154,204.398 159.5,207.5C 158.448,207.351 157.448,207.517 156.5,208C 155.638,210.734 154.805,210.901 154,208.5C 151.887,210.271 152.053,211.771 154.5,213C 151.134,219.103 146.3,222.603 140,223.5C 139.996,225.368 140.496,227.202 141.5,229C 139.546,230.741 138.546,232.908 138.5,235.5C 141.335,236.183 144.001,236.516 146.5,236.5C 143.22,237.712 139.887,238.712 136.5,239.5C 125.167,239.5 113.833,239.5 102.5,239.5C 100.5,238.833 98.5,238.167 96.5,237.5C 99.713,237.918 102.88,237.252 106,235.5C 107.561,235.603 109.061,235.937 110.5,236.5C 110.833,236 111.167,235.5 111.5,235C 109.12,231.468 105.786,229.301 101.5,228.5C 101.277,227.033 100.944,225.533 100.5,224C 97.9644,223.814 95.631,223.314 93.5,222.5C 104.153,223.444 114.819,223.61 125.5,223C 126.942,222.623 127.942,221.79 128.5,220.5C 136.178,219.817 143.178,217.151 149.5,212.5C 151.692,208.445 153.025,204.112 153.5,199.5C 153.334,190.161 153.5,180.827 154,171.5C 154.698,168.996 155.531,166.663 156.5,164.5 Z"/></g>
<g><path style="opacity:1" fill="#635048" d="M 128.5,220.5 C 127.942,221.79 126.942,222.623 125.5,223C 114.819,223.61 104.153,223.444 93.5,222.5C 93.5,222.167 93.5,221.833 93.5,221.5C 100.833,221.5 108.167,221.5 115.5,221.5C 119.881,221.628 124.215,221.295 128.5,220.5 Z"/></g>
<g><path style="opacity:0.998" fill="#171416" d="M 59.5,158.5 C 61.9558,160.818 63.2891,163.818 63.5,167.5C 63.5,172.167 63.5,176.833 63.5,181.5C 63.5,182.833 63.5,184.167 63.5,185.5C 63.5,187.5 63.5,189.5 63.5,191.5C 63.3433,192.873 63.51,194.207 64,195.5C 67.1227,201.41 69.956,207.41 72.5,213.5C 74.6499,215.149 76.6499,216.982 78.5,219C 83.7451,219.478 88.7451,220.645 93.5,222.5C 95.631,223.314 97.9644,223.814 100.5,224C 100.944,225.533 101.277,227.033 101.5,228.5C 105.786,229.301 109.12,231.468 111.5,235C 111.167,235.5 110.833,236 110.5,236.5C 109.061,235.937 107.561,235.603 106,235.5C 102.88,237.252 99.713,237.918 96.5,237.5C 93.0968,237.149 89.7635,236.482 86.5,235.5C 85.6182,233.916 84.7848,232.249 84,230.5C 83.586,230.957 83.086,231.291 82.5,231.5C 80.1831,227.55 77.3498,226.884 74,229.5C 73.5307,225.926 72.3641,222.592 70.5,219.5C 69.8333,220.833 69.1667,222.167 68.5,223.5C 66.4565,221.792 64.7899,219.792 63.5,217.5C 63.722,215.945 64.3887,214.611 65.5,213.5C 63.2647,211.775 61.4314,209.108 60,205.5C 57.2811,196.508 54.4477,187.508 51.5,178.5C 51.8457,177.304 52.3457,177.304 53,178.5C 54.4316,175.998 54.5982,173.498 53.5,171C 54.3081,170.692 54.9747,170.192 55.5,169.5C 55.6114,167.891 55.278,166.225 54.5,164.5C 55.4431,161.891 57.1097,159.891 59.5,158.5 Z"/></g>
</svg>
