<?xml version="1.0" encoding="UTF-8"?>
<!DOCTYPE svg PUBLIC "-//W3C//DTD SVG 1.1//EN" "http://www.w3.org/Graphics/SVG/1.1/DTD/svg11.dtd">
<svg xmlns="http://www.w3.org/2000/svg" version="1.1" width="357px" height="68px" style="shape-rendering:geometricPrecision; text-rendering:geometricPrecision; image-rendering:optimizeQuality; fill-rule:evenodd; clip-rule:evenodd" xmlns:xlink="http://www.w3.org/1999/xlink">
<g><path style="opacity:0.667" fill="#241d21" d="M 44.5,6.5 C 43.6661,7.7479 42.3328,8.41456 40.5,8.5C 37.9514,7.86257 35.6181,7.86257 33.5,8.5C 31.4471,8.40206 29.7804,9.06873 28.5,10.5C 14.2321,21.0754 11.7321,34.0754 21,49.5C 21.414,49.9574 21.914,50.2907 22.5,50.5C 23.3611,48.0894 24.6944,46.0894 26.5,44.5C 26.5,43.8333 26.8333,43.5 27.5,43.5C 27.7244,47.1788 28.0578,50.8455 28.5,54.5C 25.9616,53.9573 23.6282,52.9573 21.5,51.5C 17.7781,48.0565 15.6114,43.7232 15,38.5C 12.9354,25.7939 17.1021,15.6272 27.5,8C 33.0716,6.64931 38.7383,6.14931 44.5,6.5 Z"/></g>
<g><path style="opacity:1" fill="#aba1d5" d="M 47.5,7.5 C 51.8562,8.51074 55.8562,10.3441 59.5,13C 61.7899,14.7772 63.4566,16.9438 64.5,19.5C 63.0384,18.5423 61.7051,17.3756 60.5,16C 59.5,15.3333 58.5,15.3333 57.5,16C 59.301,19.1466 61.1343,22.3132 63,25.5C 63.6667,28.8333 63.6667,32.1667 63,35.5C 62.7216,36.4158 62.2216,37.0825 61.5,37.5C 61.6224,32.7682 61.1224,28.1016 60,23.5C 58.2636,20.2608 55.7636,17.9274 52.5,16.5C 50.1712,14.1587 48.1712,11.4921 46.5,8.5C 46.6236,7.89333 46.9569,7.55999 47.5,7.5 Z"/></g>
<g><path style="opacity:0.23" fill="#0e0d18" d="M 47.5,7.5 C 47.5,7.16667 47.5,6.83333 47.5,6.5C 50.5219,6.80404 53.5219,7.30404 56.5,8C 57.1258,8.75044 57.6258,9.58377 58,10.5C 59.0665,8.71739 60.5665,8.21739 62.5,9C 64,10.5 65.5,12 67,13.5C 66.1822,16.8306 66.3489,20.1639 67.5,23.5C 66.5,22.1667 65.5,20.8333 64.5,19.5C 63.4566,16.9438 61.7899,14.7772 59.5,13C 55.8562,10.3441 51.8562,8.51074 47.5,7.5 Z"/></g>
<g><path style="opacity:1" fill="#796262" d="M 44.5,6.5 C 45.5,6.5 46.5,6.5 47.5,6.5C 47.5,6.83333 47.5,7.16667 47.5,7.5C 46.9569,7.55999 46.6236,7.89333 46.5,8.5C 48.1712,11.4921 50.1712,14.1587 52.5,16.5C 52.5,16.8333 52.5,17.1667 52.5,17.5C 51.7321,18.2625 51.2321,19.2625 51,20.5C 49.4157,19.1387 47.5824,18.472 45.5,18.5C 47.0454,15.3476 46.3788,12.6809 43.5,10.5C 40.1337,9.75967 36.8004,9.093 33.5,8.5C 35.6181,7.86257 37.9514,7.86257 40.5,8.5C 42.3328,8.41456 43.6661,7.7479 44.5,6.5 Z"/></g>
<g><path style="opacity:1" fill="#bb9a96" d="M 34.5,18.5 C 33.2086,19.4728 33.2086,20.4728 34.5,21.5C 33.675,22.3857 32.675,22.719 31.5,22.5C 31.0826,27.0685 33.0826,28.5685 37.5,27C 38.3805,26.2917 39.0472,25.4584 39.5,24.5C 40.2679,23.7375 40.7679,22.7375 41,21.5C 42.4833,24.7024 42.8166,28.0357 42,31.5C 40.3066,30.8155 38.8066,29.8155 37.5,28.5C 35.3841,30.3999 34.0507,32.7332 33.5,35.5C 33.3457,40.0149 33.3457,44.3482 33.5,48.5C 32.7666,49.087 31.7666,49.087 30.5,48.5C 29.9518,46.3736 29.2852,44.3736 28.5,42.5C 28.8887,38.5863 28.2221,34.9196 26.5,31.5C 28.0168,26.4144 28.8501,21.081 29,15.5C 30,13.1667 31.6667,11.5 34,10.5C 34.3242,12.5689 35.1575,12.9023 36.5,11.5C 37.4656,13.396 37.7989,15.396 37.5,17.5C 36.209,17.2627 35.209,17.596 34.5,18.5 Z"/></g>
<g><path style="opacity:1" fill="#9a7774" d="M 33.5,8.5 C 36.8004,9.093 40.1337,9.75967 43.5,10.5C 46.3788,12.6809 47.0454,15.3476 45.5,18.5C 44.791,19.404 43.791,19.7373 42.5,19.5C 42.6287,21.2161 42.962,22.8828 43.5,24.5C 43.5,26.8333 43.5,29.1667 43.5,31.5C 40.1743,32.0986 37.1743,33.432 34.5,35.5C 34.1667,35.5 33.8333,35.5 33.5,35.5C 34.0507,32.7332 35.3841,30.3999 37.5,28.5C 38.8066,29.8155 40.3066,30.8155 42,31.5C 42.8166,28.0357 42.4833,24.7024 41,21.5C 40.7679,22.7375 40.2679,23.7375 39.5,24.5C 40.5749,20.062 38.9083,18.062 34.5,18.5C 35.209,17.596 36.209,17.2627 37.5,17.5C 37.7989,15.396 37.4656,13.396 36.5,11.5C 35.1575,12.9023 34.3242,12.5689 34,10.5C 31.6667,11.5 30,13.1667 29,15.5C 28.8501,21.081 28.0168,26.4144 26.5,31.5C 25.7846,28.2405 25.7846,24.9072 26.5,21.5C 26.2935,17.413 27.6269,13.913 30.5,11C 29.9056,10.5357 29.2389,10.369 28.5,10.5C 29.7804,9.06873 31.4471,8.40206 33.5,8.5 Z"/></g>
<g><path style="opacity:1" fill="#72504e" d="M 34.5,18.5 C 38.9083,18.062 40.5749,20.062 39.5,24.5C 39.0472,25.4584 38.3805,26.2917 37.5,27C 33.0826,28.5685 31.0826,27.0685 31.5,22.5C 32.675,22.719 33.675,22.3857 34.5,21.5C 33.2086,20.4728 33.2086,19.4728 34.5,18.5 Z"/></g>
<g><path style="opacity:1" fill="#4f3031" d="M 52.5,17.5 C 52.5,18.8333 52.5,20.1667 52.5,21.5C 51.7975,24.203 50.1308,26.203 47.5,27.5C 45.5567,27.2133 44.2233,26.2133 43.5,24.5C 42.962,22.8828 42.6287,21.2161 42.5,19.5C 43.791,19.7373 44.791,19.404 45.5,18.5C 47.5824,18.472 49.4157,19.1387 51,20.5C 51.2321,19.2625 51.7321,18.2625 52.5,17.5 Z"/></g>
<g><path style="opacity:1" fill="#f8f7f9" d="M 52.5,16.5 C 55.7636,17.9274 58.2636,20.2608 60,23.5C 61.1224,28.1016 61.6224,32.7682 61.5,37.5C 61.5792,38.9305 61.2458,40.2638 60.5,41.5C 58.8281,43.6724 57.1614,45.6724 55.5,47.5C 54.8333,47.1667 54.1667,46.8333 53.5,46.5C 52.2719,45.6935 51.2719,44.6935 50.5,43.5C 50.5,42.5 50.5,41.5 50.5,40.5C 52.8823,34.4297 53.549,28.0964 52.5,21.5C 52.5,20.1667 52.5,18.8333 52.5,17.5C 52.5,17.1667 52.5,16.8333 52.5,16.5 Z"/></g>
<g><path style="opacity:0.873" fill="#eaecea" d="M 177.5,18.5 C 176.982,19.5774 176.648,20.7441 176.5,22C 177.636,30.4629 178.302,38.9629 178.5,47.5C 177.504,47.5858 176.671,47.2524 176,46.5C 175.506,44.8659 175.34,43.1992 175.5,41.5C 175.473,35.0381 174.806,30.7048 173.5,28.5C 171.653,32.2251 170.319,36.2251 169.5,40.5C 168.952,43.0838 167.285,44.0838 164.5,43.5C 164.343,42.1266 164.51,40.7932 165,39.5C 165.333,39.8333 165.667,40.1667 166,40.5C 168.935,33.5548 171.601,26.5548 174,19.5C 175.011,18.6634 176.178,18.33 177.5,18.5 Z"/></g>
<g><path style="opacity:0.827" fill="#d3d5d4" d="M 186.5,18.5 C 191.152,19.1035 192.652,21.7702 191,26.5C 189.857,29.9153 188.19,30.2486 186,27.5C 184.519,24.1846 184.686,21.1846 186.5,18.5 Z"/></g>
<g><path style="opacity:1" fill="#e4c0cf" d="M 28.5,10.5 C 29.2389,10.369 29.9056,10.5357 30.5,11C 27.6269,13.913 26.2935,17.413 26.5,21.5C 23.0194,23.5338 21.686,26.7005 22.5,31C 22.5435,34.5697 23.0435,38.0697 24,41.5C 24.2355,43.1193 25.0689,44.1193 26.5,44.5C 24.6944,46.0894 23.3611,48.0894 22.5,50.5C 21.914,50.2907 21.414,49.9574 21,49.5C 11.7321,34.0754 14.2321,21.0754 28.5,10.5 Z"/></g>
<g><path style="opacity:1" fill="#7a5d5c" d="M 52.5,21.5 C 53.549,28.0964 52.8823,34.4297 50.5,40.5C 50.7673,35.4379 48.434,32.4379 43.5,31.5C 43.5,29.1667 43.5,26.8333 43.5,24.5C 44.2233,26.2133 45.5567,27.2133 47.5,27.5C 50.1308,26.203 51.7975,24.203 52.5,21.5 Z"/></g>
<g><path style="opacity:0.613" fill="#dfd1c2" d="M 177.5,18.5 C 178.117,18.6107 178.617,18.944 179,19.5C 180.385,28.7849 181.218,38.1182 181.5,47.5C 180.5,47.5 179.5,47.5 178.5,47.5C 178.302,38.9629 177.636,30.4629 176.5,22C 176.648,20.7441 176.982,19.5774 177.5,18.5 Z"/></g>
<g><path style="opacity:0.912" fill="#eaebec" d="M 315.5,29.5 C 317.871,31.9966 318.871,34.9966 318.5,38.5C 313.786,38.1734 309.12,38.5067 304.5,39.5C 307.092,45.0883 310.592,45.755 315,41.5C 318.102,43.3373 318.269,45.3373 315.5,47.5C 303.408,50.2309 298.242,45.5642 300,33.5C 301.025,31.313 302.525,29.6464 304.5,28.5C 308.29,27.0976 311.956,27.4309 315.5,29.5 Z"/></g>
<g><path style="opacity:1" fill="#fbf2f6" d="M 26.5,21.5 C 25.7846,24.9072 25.7846,28.2405 26.5,31.5C 28.2221,34.9196 28.8887,38.5863 28.5,42.5C 27.8333,42.5 27.5,42.8333 27.5,43.5C 26.8333,43.5 26.5,43.8333 26.5,44.5C 25.0689,44.1193 24.2355,43.1193 24,41.5C 23.0435,38.0697 22.5435,34.5697 22.5,31C 21.686,26.7005 23.0194,23.5338 26.5,21.5 Z"/></g>
<g><path style="opacity:0.118" fill="#5e4c42" d="M 140.5,28.5 C 142.293,30.4261 143.293,32.7594 143.5,35.5C 141.182,33.8148 140.182,31.4815 140.5,28.5 Z"/></g>
<g><path style="opacity:0.102" fill="#4c3d34" d="M 173.5,28.5 C 173.5,30.5 173.5,32.5 173.5,34.5C 172.167,36.5 170.833,38.5 169.5,40.5C 170.319,36.2251 171.653,32.2251 173.5,28.5 Z"/></g>
<g><path style="opacity:0.146" fill="#3d3c41" d="M 257.5,29.5 C 259.5,30.8333 261.5,30.8333 263.5,29.5C 263.5,35.1667 263.5,40.8333 263.5,46.5C 262.295,44.8624 260.962,44.5291 259.5,45.5C 259.443,44.391 259.11,43.391 258.5,42.5C 258.167,42.5 257.833,42.5 257.5,42.5C 256.503,41.2875 255.503,41.4542 254.5,43C 249.841,44.6514 247.174,43.1514 246.5,38.5C 250.833,38.5 255.167,38.5 259.5,38.5C 259.79,35.2153 259.123,32.2153 257.5,29.5 Z M 258.5,42.5 C 261.28,34.7445 262.28,34.7445 261.5,42.5C 260.5,42.5 259.5,42.5 258.5,42.5 Z"/></g>
<g><path style="opacity:0.141" fill="#443730" d="M 298.5,28.5 C 298.833,28.5 299.167,28.5 299.5,28.5C 298.489,32.514 297.489,36.514 296.5,40.5C 295.557,43.4001 293.89,45.7334 291.5,47.5C 293.638,41.0848 295.971,34.7515 298.5,28.5 Z"/></g>
<g><path style="opacity:0.008" fill="#354762" d="M 175.5,41.5 C 173.837,39.5615 173.171,37.2282 173.5,34.5C 173.5,32.5 173.5,30.5 173.5,28.5C 174.806,30.7048 175.473,35.0381 175.5,41.5 Z"/></g>
<g><path style="opacity:0.043" fill="#313941" d="M 276.5,28.5 C 277.167,28.5 277.833,28.5 278.5,28.5C 279.566,30.7014 280.233,33.0347 280.5,35.5C 279.533,34.1938 278.199,33.5271 276.5,33.5C 276.5,31.8333 276.5,30.1667 276.5,28.5 Z"/></g>
<g><path style="opacity:0.101" fill="#453633" d="M 76.5,18.5 C 78.1312,25.5901 78.9646,32.9234 79,40.5C 83.4014,41.4667 87.9014,41.8 92.5,41.5C 92.5,43.1667 92.5,44.8333 92.5,46.5C 91.8333,46.8333 91.1667,47.1667 90.5,47.5C 90.5,45.8333 90.5,44.1667 90.5,42.5C 85.8333,42.5 81.1667,42.5 76.5,42.5C 76.5,34.5 76.5,26.5 76.5,18.5 Z"/></g>
<g><path style="opacity:0.135" fill="#3c4352" d="M 299.5,28.5 C 301.167,28.5 302.833,28.5 304.5,28.5C 302.525,29.6464 301.025,31.313 300,33.5C 298.242,45.5642 303.408,50.2309 315.5,47.5C 311.741,49.9455 307.741,50.1122 303.5,48C 300.989,45.6565 298.656,43.1565 296.5,40.5C 297.489,36.514 298.489,32.514 299.5,28.5 Z"/></g>
<g><path style="opacity:0.161" fill="#373840" d="M 307.5,31.5 C 310.061,31.4469 312.061,32.4469 313.5,34.5C 310.554,35.6548 307.554,35.8214 304.5,35C 305.365,33.6412 306.365,32.4745 307.5,31.5 Z"/></g>
<g><path style="opacity:0.902" fill="#eae9e4" d="M 332.5,32.5 C 330.61,32.2965 329.11,32.9632 328,34.5C 327.502,37.4816 327.335,40.4816 327.5,43.5C 327.843,45.4832 327.176,46.8166 325.5,47.5C 324.5,47.5 323.5,47.5 322.5,47.5C 322.5,41.1667 322.5,34.8333 322.5,28.5C 326.525,28.1839 330.525,28.0172 334.5,28C 335.38,29.3561 335.714,30.8561 335.5,32.5C 334.5,32.5 333.5,32.5 332.5,32.5 Z"/></g>
<g><path style="opacity:0.112" fill="#30586d" d="M 95.5,18.5 C 95.5,28.1667 95.5,37.8333 95.5,47.5C 94.391,47.4431 93.391,47.1098 92.5,46.5C 92.5,44.8333 92.5,43.1667 92.5,41.5C 92.9147,33.627 93.9147,25.9603 95.5,18.5 Z"/></g>
<g><path style="opacity:0.867" fill="#cfcecc" d="M 96.5,18.5 C 98.8097,17.8362 101.31,17.5029 104,17.5C 112.348,16.25 117.182,19.75 118.5,28C 118.481,29.833 117.815,31.333 116.5,32.5C 111.684,34.7532 111.35,37.4199 115.5,40.5C 116.338,40.8417 116.672,41.5084 116.5,42.5C 117.038,44.1172 117.371,45.7839 117.5,47.5C 113.131,48.8018 110.464,47.1351 109.5,42.5C 109.573,40.9731 108.906,39.9731 107.5,39.5C 107.586,38.5041 107.252,37.6708 106.5,37C 104.527,36.5045 102.527,36.3379 100.5,36.5C 100.5,39.8333 100.5,43.1667 100.5,46.5C 100.5,47.1667 100.167,47.5 99.5,47.5C 98.5285,46.6009 97.8618,45.4343 97.5,44C 99.0577,36.9168 99.7244,29.7501 99.5,22.5C 102.713,22.19 105.713,22.5233 108.5,23.5C 105.833,23.5 103.167,23.5 100.5,23.5C 100.5,26.1667 100.5,28.8333 100.5,31.5C 103.5,31.5 106.5,31.5 109.5,31.5C 109.279,32.7348 108.612,33.7348 107.5,34.5C 108.246,35.7362 108.579,37.0695 108.5,38.5C 109.5,38.5 110.5,38.5 111.5,38.5C 111.5,36.5 111.5,34.5 111.5,32.5C 112.5,32.5 113.5,32.5 114.5,32.5C 115.291,27.4111 113.958,23.0778 110.5,19.5C 105.88,18.5067 101.214,18.1734 96.5,18.5 Z M 111.5,26.5 C 111.567,27.9587 111.234,29.2921 110.5,30.5C 107.813,30.6641 105.146,30.4974 102.5,30C 100.574,26.21 101.74,24.3766 106,24.5C 108.178,24.3948 110.012,25.0615 111.5,26.5 Z"/></g>
<g><path style="opacity:0.153" fill="#434143" d="M 208.5,32.5 C 208.5,34.1667 208.5,35.8333 208.5,37.5C 205.583,36.5826 202.583,35.916 199.5,35.5C 199.33,34.1779 199.663,33.0113 200.5,32C 202.669,31.5706 204.669,32.0706 206.5,33.5C 207.183,33.1373 207.85,32.8039 208.5,32.5 Z"/></g>
<g><path style="opacity:0.122" fill="#37383c" d="M 237.5,30.5 C 238.458,30.9528 239.292,31.6195 240,32.5C 240.671,31.7476 241.504,31.4142 242.5,31.5C 241.167,35.8333 241.167,40.1667 242.5,44.5C 241.167,44.5 239.833,44.5 238.5,44.5C 238.66,42.8008 238.494,41.1341 238,39.5C 234.589,37.281 231.089,35.281 227.5,33.5C 227.887,32.2801 228.72,31.6135 230,31.5C 231.667,32.1667 233.333,32.8333 235,33.5C 236.749,33.2517 237.582,32.2517 237.5,30.5 Z"/></g>
<g><path style="opacity:0.906" fill="#dadee3" d="M 276.5,28.5 C 276.5,30.1667 276.5,31.8333 276.5,33.5C 274.833,33.5 273.167,33.5 271.5,33.5C 270.25,33.5774 269.417,34.244 269,35.5C 268.501,39.4862 268.334,43.4862 268.5,47.5C 266.414,49.0234 264.748,48.69 263.5,46.5C 263.5,40.8333 263.5,35.1667 263.5,29.5C 264.531,28.7515 265.698,28.0848 267,27.5C 270.257,27.7245 273.424,28.0579 276.5,28.5 Z"/></g>
<g><path style="opacity:0.086" fill="#3c3734" d="M 332.5,32.5 C 331.312,33.3636 330.145,34.3636 329,35.5C 328.817,38.3647 328.317,41.0314 327.5,43.5C 327.335,40.4816 327.502,37.4816 328,34.5C 329.11,32.9632 330.61,32.2965 332.5,32.5 Z"/></g>
<g><path style="opacity:0.063" fill="#4a3d33" d="M 116.5,32.5 C 116.08,34.0936 115.414,35.5936 114.5,37C 114.989,38.1385 115.322,39.3052 115.5,40.5C 111.35,37.4199 111.684,34.7532 116.5,32.5 Z"/></g>
<g><path style="opacity:0.839" fill="#d5d9db" d="M 163.5,28.5 C 164.24,35.6383 165.573,35.9716 167.5,29.5C 168.201,25.6992 169.368,22.0325 171,18.5C 173.274,17.1888 175.44,17.1888 177.5,18.5C 176.178,18.33 175.011,18.6634 174,19.5C 171.601,26.5548 168.935,33.5548 166,40.5C 165.667,40.1667 165.333,39.8333 165,39.5C 164.51,40.7932 164.343,42.1266 164.5,43.5C 162.5,43.5 161.5,42.5 161.5,40.5C 160.507,35.6866 159.007,31.0199 157,26.5C 156.502,29.8168 156.335,33.1501 156.5,36.5C 156.816,39.9783 156.316,43.3117 155,46.5C 153.301,47.4061 151.467,47.7394 149.5,47.5C 149.5,44.8333 149.5,42.1667 149.5,39.5C 150.092,32.4323 151.092,25.4323 152.5,18.5C 154.765,17.3526 157.098,17.1859 159.5,18C 161.671,21.1841 163.004,24.6841 163.5,28.5 Z"/></g>
<g><path style="opacity:0.125" fill="#4d493f" d="M 163.5,28.5 C 164.472,30.4931 165.805,30.8264 167.5,29.5C 165.573,35.9716 164.24,35.6383 163.5,28.5 Z"/></g>
<g><path style="opacity:0.837" fill="#eaedee" d="M 257.5,29.5 C 259.123,32.2153 259.79,35.2153 259.5,38.5C 255.167,38.5 250.833,38.5 246.5,38.5C 247.174,43.1514 249.841,44.6514 254.5,43C 255.503,41.4542 256.503,41.2875 257.5,42.5C 257.297,44.0443 256.63,45.3777 255.5,46.5C 252.914,47.48 250.247,47.8134 247.5,47.5C 245.326,47.2503 243.659,46.2503 242.5,44.5C 241.167,40.1667 241.167,35.8333 242.5,31.5C 246.94,27.1043 251.94,26.4376 257.5,29.5 Z"/></g>
<g><path style="opacity:0.161" fill="#3e3d3e" d="M 248.5,31.5 C 251.657,31.0785 253.99,32.2452 255.5,35C 252.446,35.8214 249.446,35.6548 246.5,34.5C 247.193,33.4822 247.859,32.4822 248.5,31.5 Z"/></g>
<g><path style="opacity:0.035" fill="#383b45" d="M 161.5,40.5 C 159.821,39.0837 158.154,37.7503 156.5,36.5C 156.335,33.1501 156.502,29.8168 157,26.5C 159.007,31.0199 160.507,35.6866 161.5,40.5 Z"/></g>
<g><path style="opacity:0.885" fill="#e2e4e6" d="M 237.5,30.5 C 237.582,32.2517 236.749,33.2517 235,33.5C 233.333,32.8333 231.667,32.1667 230,31.5C 228.72,31.6135 227.887,32.2801 227.5,33.5C 231.089,35.281 234.589,37.281 238,39.5C 238.494,41.1341 238.66,42.8008 238.5,44.5C 234.853,48.4611 230.52,49.4611 225.5,47.5C 225.027,46.0937 224.027,45.427 222.5,45.5C 222.685,43.8042 223.519,42.4709 225,41.5C 227.716,44.742 230.549,45.0753 233.5,42.5C 230.95,40.2633 227.95,38.7633 224.5,38C 222.771,36.2111 222.104,34.0444 222.5,31.5C 224.104,28.7769 226.604,27.4436 230,27.5C 233.044,27.452 235.544,28.452 237.5,30.5 Z"/></g>
<g><path style="opacity:0.882" fill="#e3e4e4" d="M 208.5,32.5 C 207.85,32.8039 207.183,33.1373 206.5,33.5C 204.669,32.0706 202.669,31.5706 200.5,32C 199.663,33.0113 199.33,34.1779 199.5,35.5C 202.583,35.916 205.583,36.5826 208.5,37.5C 211.526,41.5456 210.859,45.0456 206.5,48C 203.5,48.6667 200.5,48.6667 197.5,48C 195.249,47.2525 193.916,45.7525 193.5,43.5C 194.721,42.9717 195.887,42.305 197,41.5C 199.656,44.8889 202.156,45.0556 204.5,42C 201.356,40.2397 198.189,38.4063 195,36.5C 194.444,34.1152 194.61,31.7819 195.5,29.5C 200.177,26.5692 204.677,26.9026 209,30.5C 209.692,31.4368 209.525,32.1034 208.5,32.5 Z"/></g>
<g><path style="opacity:0.737" fill="#71889f" d="M 124.5,32.5 C 124.655,35.716 123.655,38.3826 121.5,40.5C 121.98,37.5568 122.98,34.8902 124.5,32.5 Z"/></g>
<g><path style="opacity:0.898" fill="#e2e7ea" d="M 136.5,19.5 C 138.556,27.0186 140.556,34.5186 142.5,42C 142.057,43.825 141.723,45.6583 141.5,47.5C 140.326,46.4863 139.66,45.153 139.5,43.5C 139.5,42.8333 139.5,42.1667 139.5,41.5C 137.696,40.838 135.696,40.5046 133.5,40.5C 131.048,40.5391 129.048,41.2057 127.5,42.5C 126.326,43.5137 125.66,44.847 125.5,46.5C 123.792,48.5124 121.792,48.8458 119.5,47.5C 120.167,45.1667 120.833,42.8333 121.5,40.5C 123.655,38.3826 124.655,35.716 124.5,32.5C 126.033,27.7385 127.866,23.0719 130,18.5C 132.552,16.9797 134.718,17.3131 136.5,19.5 Z M 133.5,29.5 C 134.067,31.0295 134.733,32.5295 135.5,34C 134.436,35.5106 133.103,35.6772 131.5,34.5C 131.402,32.4471 132.069,30.7804 133.5,29.5 Z"/></g>
<g><path style="opacity:0.031" fill="#323d4e" d="M 133.5,26.5 C 134.81,29.3985 136.143,32.3985 137.5,35.5C 135.604,36.4656 133.604,36.7989 131.5,36.5C 131.5,35.8333 131.5,35.1667 131.5,34.5C 133.103,35.6772 134.436,35.5106 135.5,34C 134.733,32.5295 134.067,31.0295 133.5,29.5C 133.5,28.5 133.5,27.5 133.5,26.5 Z"/></g>
<g><path style="opacity:0.008" fill="#4f3b35" d="M 133.5,26.5 C 133.5,27.5 133.5,28.5 133.5,29.5C 132.069,30.7804 131.402,32.4471 131.5,34.5C 131.5,35.1667 131.5,35.8333 131.5,36.5C 130.503,36.5299 129.836,36.0299 129.5,35C 130.451,31.2816 131.784,28.4483 133.5,26.5 Z"/></g>
<g><path style="opacity:0.112" fill="#6c4941" d="M 271.5,33.5 C 270.026,38.1407 269.026,42.8074 268.5,47.5C 268.334,43.4862 268.501,39.4862 269,35.5C 269.417,34.244 270.25,33.5774 271.5,33.5 Z"/></g>
<g><path style="opacity:0.078" fill="#323160" d="M 76.5,18.5 C 74.8333,18.5 73.1667,18.5 71.5,18.5C 71.5,27.8333 71.5,37.1667 71.5,46.5C 70.5,45.1667 69.5,43.8333 68.5,42.5C 68.6716,41.5084 68.3382,40.8417 67.5,40.5C 68.7683,34.8416 68.7683,29.1749 67.5,23.5C 68.2216,23.9175 68.7216,24.5842 69,25.5C 69.4974,22.854 69.6641,20.1873 69.5,17.5C 71.1439,17.7135 72.6439,17.3802 74,16.5C 74.9947,17.0659 75.828,17.7326 76.5,18.5 Z"/></g>
<g><path style="opacity:0.288" fill="#506f88" d="M 322.5,28.5 C 322.5,34.8333 322.5,41.1667 322.5,47.5C 323.5,47.5 324.5,47.5 325.5,47.5C 324.167,48.8333 322.833,48.8333 321.5,47.5C 321.5,41.5 321.5,35.5 321.5,29.5C 321.5,28.8333 321.833,28.5 322.5,28.5 Z"/></g>
<g><path style="opacity:0.918" fill="#ecf0f3" d="M 95.5,18.5 C 95.8333,18.5 96.1667,18.5 96.5,18.5C 101.214,18.1734 105.88,18.5067 110.5,19.5C 113.958,23.0778 115.291,27.4111 114.5,32.5C 113.5,32.5 112.5,32.5 111.5,32.5C 111.5,34.5 111.5,36.5 111.5,38.5C 110.5,38.5 109.5,38.5 108.5,38.5C 108.579,37.0695 108.246,35.7362 107.5,34.5C 108.612,33.7348 109.279,32.7348 109.5,31.5C 110.167,31.5 110.5,31.1667 110.5,30.5C 111.234,29.2921 111.567,27.9587 111.5,26.5C 111.5,24.5 110.5,23.5 108.5,23.5C 105.713,22.5233 102.713,22.19 99.5,22.5C 99.7244,29.7501 99.0577,36.9168 97.5,44C 97.8618,45.4343 98.5285,46.6009 99.5,47.5C 98.2946,48.6857 96.9613,48.6857 95.5,47.5C 95.5,37.8333 95.5,28.1667 95.5,18.5 Z M 111.5,26.5 C 111.567,27.9587 111.234,29.2921 110.5,30.5C 107.813,30.6641 105.146,30.4974 102.5,30C 100.574,26.21 101.74,24.3766 106,24.5C 108.178,24.3948 110.012,25.0615 111.5,26.5 Z"/></g>
<g><path style="opacity:0.157" fill="#373431" d="M 108.5,23.5 C 110.5,23.5 111.5,24.5 111.5,26.5C 110.012,25.0615 108.178,24.3948 106,24.5C 101.74,24.3766 100.574,26.21 102.5,30C 105.146,30.4974 107.813,30.6641 110.5,30.5C 110.5,31.1667 110.167,31.5 109.5,31.5C 106.5,31.5 103.5,31.5 100.5,31.5C 100.5,28.8333 100.5,26.1667 100.5,23.5C 103.167,23.5 105.833,23.5 108.5,23.5 Z"/></g>
<g><path style="opacity:0.22" fill="#9ea0a5" d="M 139.5,41.5 C 138.5,41.5 137.5,41.5 136.5,41.5C 133.43,41.3677 130.43,41.701 127.5,42.5C 129.048,41.2057 131.048,40.5391 133.5,40.5C 135.696,40.5046 137.696,40.838 139.5,41.5 Z"/></g>
<g><path style="opacity:0.896" fill="#e9e0d5" d="M 136.5,19.5 C 138.625,22.0878 139.958,25.0878 140.5,28.5C 140.182,31.4815 141.182,33.8148 143.5,35.5C 144.227,39.6399 145.561,43.6399 147.5,47.5C 145.5,47.5 143.5,47.5 141.5,47.5C 141.723,45.6583 142.057,43.825 142.5,42C 140.556,34.5186 138.556,27.0186 136.5,19.5 Z"/></g>
<g><path style="opacity:0.149" fill="#343942" d="M 195.5,29.5 C 194.61,31.7819 194.444,34.1152 195,36.5C 198.189,38.4063 201.356,40.2397 204.5,42C 202.156,45.0556 199.656,44.8889 197,41.5C 195.887,42.305 194.721,42.9717 193.5,43.5C 194.604,40.3762 194.604,37.2095 193.5,34C 193.307,31.9919 193.974,30.4919 195.5,29.5 Z"/></g>
<g><path style="opacity:0.037" fill="#3b3f49" d="M 222.5,31.5 C 222.104,34.0444 222.771,36.2111 224.5,38C 227.95,38.7633 230.95,40.2633 233.5,42.5C 230.549,45.0753 227.716,44.742 225,41.5C 223.519,42.4709 222.685,43.8042 222.5,45.5C 221.197,43.2431 221.864,41.4098 224.5,40C 221.52,37.5858 220.853,34.7525 222.5,31.5 Z"/></g>
<g><path style="opacity:0.153" fill="#3c393b" d="M 315.5,29.5 C 317.549,30.6414 319.549,30.6414 321.5,29.5C 321.5,35.5 321.5,41.5 321.5,47.5C 319.612,46.7249 317.612,46.7249 315.5,47.5C 318.269,45.3373 318.102,43.3373 315,41.5C 310.592,45.755 307.092,45.0883 304.5,39.5C 309.12,38.5067 313.786,38.1734 318.5,38.5C 318.871,34.9966 317.871,31.9966 315.5,29.5 Z"/></g>
<g><path style="opacity:1" fill="#9e96d8" d="M 64.5,19.5 C 65.5,20.8333 66.5,22.1667 67.5,23.5C 68.7683,29.1749 68.7683,34.8416 67.5,40.5C 66.5406,43.7522 65.0406,46.7522 63,49.5C 62.0922,51.4386 60.5922,52.4386 58.5,52.5C 58.69,50.0411 57.69,48.3745 55.5,47.5C 57.1614,45.6724 58.8281,43.6724 60.5,41.5C 61.2458,40.2638 61.5792,38.9305 61.5,37.5C 62.2216,37.0825 62.7216,36.4158 63,35.5C 63.6667,32.1667 63.6667,28.8333 63,25.5C 61.1343,22.3132 59.301,19.1466 57.5,16C 58.5,15.3333 59.5,15.3333 60.5,16C 61.7051,17.3756 63.0384,18.5423 64.5,19.5 Z"/></g>
<g><path style="opacity:0.11" fill="#364453" d="M 107.5,39.5 C 108.906,39.9731 109.573,40.9731 109.5,42.5C 108.094,42.0269 107.427,41.0269 107.5,39.5 Z"/></g>
<g><path style="opacity:0.102" fill="#3e383f" d="M 143.5,35.5 C 144.349,38.9082 146.349,40.2416 149.5,39.5C 149.5,42.1667 149.5,44.8333 149.5,47.5C 148.833,47.5 148.167,47.5 147.5,47.5C 145.561,43.6399 144.227,39.6399 143.5,35.5 Z"/></g>
<g><path style="opacity:0.122" fill="#3a536e" d="M 280.5,35.5 C 282.538,39.2613 284.204,43.2613 285.5,47.5C 282.688,44.0868 281.021,40.0868 280.5,35.5 Z"/></g>
<g><path style="opacity:0.11" fill="#3a322a" d="M 107.5,39.5 C 105.858,37.9192 103.858,37.2525 101.5,37.5C 101.81,40.7131 101.477,43.7131 100.5,46.5C 100.5,43.1667 100.5,39.8333 100.5,36.5C 102.527,36.3379 104.527,36.5045 106.5,37C 107.252,37.6708 107.586,38.5041 107.5,39.5 Z"/></g>
<g><path style="opacity:0.075" fill="#2f3544" d="M 136.5,41.5 C 137.5,41.5 138.5,41.5 139.5,41.5C 139.5,42.1667 139.5,42.8333 139.5,43.5C 138.29,43.0679 137.29,42.4013 136.5,41.5 Z"/></g>
<g><path style="opacity:0.949" fill="#e4e5e4" d="M 278.5,28.5 C 280.735,28.2053 282.735,28.5386 284.5,29.5C 285.56,33.1796 286.726,36.8463 288,40.5C 289.654,37.7068 290.821,34.7068 291.5,31.5C 291.414,30.5041 291.748,29.6708 292.5,29C 294.473,28.5045 296.473,28.3379 298.5,28.5C 295.971,34.7515 293.638,41.0848 291.5,47.5C 289.5,48.8333 287.5,48.8333 285.5,47.5C 284.204,43.2613 282.538,39.2613 280.5,35.5C 280.233,33.0347 279.566,30.7014 278.5,28.5 Z"/></g>
<g><path style="opacity:0.184" fill="#3a353a" d="M 284.5,29.5 C 286.129,30.6253 287.629,31.9586 289,33.5C 289.708,32.6195 290.542,31.9528 291.5,31.5C 290.821,34.7068 289.654,37.7068 288,40.5C 286.726,36.8463 285.56,33.1796 284.5,29.5 Z"/></g>
<g><path style="opacity:1" fill="#432b28" d="M 43.5,31.5 C 48.434,32.4379 50.7673,35.4379 50.5,40.5C 50.5,41.5 50.5,42.5 50.5,43.5C 49.9819,46.9786 48.9819,50.3119 47.5,53.5C 47.6567,52.1266 47.49,50.7932 47,49.5C 41.9581,51.6598 38.1247,50.3265 35.5,45.5C 36.7757,44.3554 38.109,44.3554 39.5,45.5C 40.6446,44.2243 40.6446,42.891 39.5,41.5C 41.0461,40.316 42.7127,39.316 44.5,38.5C 39.0495,36.2902 35.8829,37.9569 35,43.5C 34.5026,40.854 34.3359,38.1873 34.5,35.5C 37.1743,33.432 40.1743,32.0986 43.5,31.5 Z"/></g>
<g><path style="opacity:0.869" fill="#e0dfe0" d="M 76.5,18.5 C 76.5,26.5 76.5,34.5 76.5,42.5C 81.1667,42.5 85.8333,42.5 90.5,42.5C 90.5,44.1667 90.5,45.8333 90.5,47.5C 88.0221,48.1641 85.3555,48.4975 82.5,48.5C 78.5313,48.7058 74.8646,48.0392 71.5,46.5C 71.5,37.1667 71.5,27.8333 71.5,18.5C 73.1667,18.5 74.8333,18.5 76.5,18.5 Z"/></g>
<g><path style="opacity:0.075" fill="#625343" d="M 127.5,42.5 C 127.771,44.3797 127.104,45.713 125.5,46.5C 125.66,44.847 126.326,43.5137 127.5,42.5 Z"/></g>
<g><path style="opacity:0.086" fill="#383944" d="M 121.5,40.5 C 120.833,42.8333 120.167,45.1667 119.5,47.5C 118.833,47.5 118.167,47.5 117.5,47.5C 117.371,45.7839 117.038,44.1172 116.5,42.5C 117.117,42.6107 117.617,42.944 118,43.5C 119.039,42.2899 120.206,41.2899 121.5,40.5 Z"/></g>
<g><path style="opacity:0.329" fill="#738598" d="M 222.5,45.5 C 224.027,45.427 225.027,46.0937 225.5,47.5C 223.973,47.573 222.973,46.9063 222.5,45.5 Z"/></g>
<g><path style="opacity:0.471" fill="#9e9999" d="M 257.5,42.5 C 257.833,42.5 258.167,42.5 258.5,42.5C 259.11,43.391 259.443,44.391 259.5,45.5C 258.942,46.7899 257.942,47.6232 256.5,48C 253.304,48.8045 250.304,48.6378 247.5,47.5C 250.247,47.8134 252.914,47.48 255.5,46.5C 256.63,45.3777 257.297,44.0443 257.5,42.5 Z"/></g>
<g><path style="opacity:1" fill="#7a5e58" d="M 33.5,35.5 C 33.8333,35.5 34.1667,35.5 34.5,35.5C 34.3359,38.1873 34.5026,40.854 35,43.5C 35.8829,37.9569 39.0495,36.2902 44.5,38.5C 42.7127,39.316 41.0461,40.316 39.5,41.5C 40.6446,42.891 40.6446,44.2243 39.5,45.5C 38.109,44.3554 36.7757,44.3554 35.5,45.5C 38.1247,50.3265 41.9581,51.6598 47,49.5C 47.49,50.7932 47.6567,52.1266 47.5,53.5C 43.4689,55.4387 39.1355,55.9387 34.5,55C 32.3679,53.303 31.0346,51.1363 30.5,48.5C 31.7666,49.087 32.7666,49.087 33.5,48.5C 33.3457,44.3482 33.3457,40.0149 33.5,35.5 Z"/></g>
<g><path style="opacity:0.282" fill="#1a1823" d="M 67.5,40.5 C 68.3382,40.8417 68.6716,41.5084 68.5,42.5C 66.1717,47.1548 63.3383,51.4881 60,55.5C 58.114,54.0699 56.4473,52.4032 55,50.5C 54.4788,53.9821 52.6455,56.3154 49.5,57.5C 49.4802,55.857 50.1468,54.5237 51.5,53.5C 50.6518,51.5914 50.3184,49.5914 50.5,47.5C 51.791,47.7373 52.791,47.404 53.5,46.5C 54.1667,46.8333 54.8333,47.1667 55.5,47.5C 57.69,48.3745 58.69,50.0411 58.5,52.5C 60.5922,52.4386 62.0922,51.4386 63,49.5C 65.0406,46.7522 66.5406,43.7522 67.5,40.5 Z"/></g>
<g><path style="opacity:0.299" fill="#1a1514" d="M 28.5,42.5 C 29.2852,44.3736 29.9518,46.3736 30.5,48.5C 31.0346,51.1363 32.3679,53.303 34.5,55C 39.1355,55.9387 43.4689,55.4387 47.5,53.5C 48.9819,50.3119 49.9819,46.9786 50.5,43.5C 51.2719,44.6935 52.2719,45.6935 53.5,46.5C 52.791,47.404 51.791,47.7373 50.5,47.5C 50.3184,49.5914 50.6518,51.5914 51.5,53.5C 50.1468,54.5237 49.4802,55.857 49.5,57.5C 41.3507,60.318 33.3507,59.818 25.5,56C 23.9586,54.6288 22.6253,53.1288 21.5,51.5C 23.6282,52.9573 25.9616,53.9573 28.5,54.5C 28.0578,50.8455 27.7244,47.1788 27.5,43.5C 27.5,42.8333 27.8333,42.5 28.5,42.5 Z"/></g>
</svg>
